<mxfile host="Electron" agent="Mozilla/5.0 (Macintosh; Intel Mac OS X 10_15_7) AppleWebKit/537.36 (KHTML, like Gecko) draw.io/26.1.1 Chrome/132.0.6834.210 Electron/34.3.3 Safari/537.36" version="26.1.1" pages="10">
  <diagram name="nondeterministic" id="ZAlmdrRH_l2KzV7yHv0Q">
    <mxGraphModel dx="1100" dy="661" grid="1" gridSize="10" guides="1" tooltips="1" connect="1" arrows="1" fold="1" page="1" pageScale="1" pageWidth="1100" pageHeight="850" math="0" shadow="0">
      <root>
        <mxCell id="0" />
        <mxCell id="1" parent="0" />
        <mxCell id="-5bQla3dnRqBQKIm_dE6-1" value="" style="rhombus;rounded=1;fontStyle=1;glass=0;sketch=0;fontSize=12;points=[[0,0.5,0,0,0],[0.5,0,0,0,0],[0.5,1,0,0,0],[1,0.5,0,0,0]];shadow=1;fontFamily=Helvetica;fontColor=default;labelBackgroundColor=none;" parent="1" vertex="1">
          <mxGeometry x="120" y="260" width="40" height="40" as="geometry" />
        </mxCell>
        <mxCell id="-5bQla3dnRqBQKIm_dE6-2" value="World" style="rounded=1;container=1;recursiveResize=0;verticalAlign=top;arcSize=6;fontStyle=1;autosize=0;points=[];absoluteArcSize=1;shadow=1;strokeColor=#6c8ebf;fillColor=#dae8fc;fontFamily=Helvetica;fontSize=11;gradientColor=#0050EF;fontColor=default;labelBackgroundColor=none;" parent="1" vertex="1">
          <mxGeometry x="280" y="160" width="138" height="100" as="geometry">
            <mxRectangle x="-98" y="-1230" width="99" height="26" as="alternateBounds" />
          </mxGeometry>
        </mxCell>
        <mxCell id="-5bQla3dnRqBQKIm_dE6-3" value="" style="rounded=1;sketch=0;points=[[0,0.5,0,0,0],[1,0.5,0,0,0]];arcSize=50;fontFamily=Helvetica;fontSize=11;fontColor=default;labelBackgroundColor=none;" parent="-5bQla3dnRqBQKIm_dE6-2" vertex="1">
          <mxGeometry x="-16.75" y="27.5" width="36.75" height="25" as="geometry" />
        </mxCell>
        <mxCell id="-5bQla3dnRqBQKIm_dE6-4" value="" style="rounded=1;sketch=0;points=[[0,0.5,0,0,0],[1,0.5,0,0,0]];fillColor=#1ba1e2;fontColor=#ffffff;strokeColor=#006EAF;arcSize=50;fontFamily=Helvetica;fontSize=11;labelBackgroundColor=none;" parent="-5bQla3dnRqBQKIm_dE6-2" vertex="1">
          <mxGeometry x="120" y="27.5" width="36" height="25" as="geometry" />
        </mxCell>
        <mxCell id="-5bQla3dnRqBQKIm_dE6-5" value="✗" style="rounded=1;sketch=0;points=[[0,0.5,0,0,0],[1,0.5,0,0,0]];fillColor=#1ba1e2;fontColor=#ffffff;strokeColor=#006EAF;arcSize=50;fontFamily=Helvetica;fontSize=11;textOpacity=30;labelBackgroundColor=none;" parent="-5bQla3dnRqBQKIm_dE6-2" vertex="1">
          <mxGeometry x="120" y="60" width="36" height="25" as="geometry" />
        </mxCell>
        <mxCell id="-5bQla3dnRqBQKIm_dE6-6" value="Hello" style="rounded=1;container=1;recursiveResize=0;verticalAlign=top;arcSize=6;fontStyle=1;autosize=0;points=[];absoluteArcSize=1;shadow=1;strokeColor=#6c8ebf;fillColor=#dae8fc;fontFamily=Helvetica;fontSize=11;gradientColor=#0050EF;fontColor=default;labelBackgroundColor=none;" parent="1" vertex="1">
          <mxGeometry x="280" y="320" width="138" height="100" as="geometry">
            <mxRectangle x="-98" y="-1230" width="99" height="26" as="alternateBounds" />
          </mxGeometry>
        </mxCell>
        <mxCell id="-5bQla3dnRqBQKIm_dE6-7" value="" style="rounded=1;sketch=0;points=[[0,0.5,0,0,0],[1,0.5,0,0,0]];arcSize=50;fontFamily=Helvetica;fontSize=11;fontColor=default;labelBackgroundColor=none;" parent="-5bQla3dnRqBQKIm_dE6-6" vertex="1">
          <mxGeometry x="-16.75" y="27.5" width="36.75" height="25" as="geometry" />
        </mxCell>
        <mxCell id="-5bQla3dnRqBQKIm_dE6-8" value="" style="rounded=1;sketch=0;points=[[0,0.5,0,0,0],[1,0.5,0,0,0]];fillColor=#1ba1e2;fontColor=#ffffff;strokeColor=#006EAF;arcSize=50;fontFamily=Helvetica;fontSize=11;labelBackgroundColor=none;" parent="-5bQla3dnRqBQKIm_dE6-6" vertex="1">
          <mxGeometry x="120" y="27.5" width="36" height="25" as="geometry" />
        </mxCell>
        <mxCell id="-5bQla3dnRqBQKIm_dE6-9" value="✗" style="rounded=1;sketch=0;points=[[0,0.5,0,0,0],[1,0.5,0,0,0]];fillColor=#1ba1e2;fontColor=#ffffff;strokeColor=#006EAF;arcSize=50;fontFamily=Helvetica;fontSize=11;textOpacity=30;labelBackgroundColor=none;" parent="-5bQla3dnRqBQKIm_dE6-6" vertex="1">
          <mxGeometry x="120" y="60" width="36" height="25" as="geometry" />
        </mxCell>
        <mxCell id="-5bQla3dnRqBQKIm_dE6-10" value="" style="rhombus;rounded=1;fontStyle=1;glass=0;sketch=0;fontSize=12;points=[[0,0.5,0,0,0],[0.5,0,0,0,0],[0.5,1,0,0,0],[1,0.5,0,0,0]];shadow=1;fillColor=#0050ef;fontColor=#ffffff;strokeColor=#001DBC;fontFamily=Helvetica;labelBackgroundColor=none;" parent="1" vertex="1">
          <mxGeometry x="520" y="260" width="40" height="40" as="geometry" />
        </mxCell>
        <mxCell id="-5bQla3dnRqBQKIm_dE6-11" value="✗" style="rhombus;whiteSpace=wrap;html=1;rounded=1;fillColor=#0050ef;fontColor=#ffffff;strokeColor=#001DBC;fontStyle=1;glass=0;sketch=0;fontSize=12;points=[[0,0.5,0,0,0],[0.5,0,0,0,0],[0.5,1,0,0,0],[1,0.5,0,0,0]];shadow=1;opacity=30;textOpacity=30;fontFamily=Helvetica;labelBackgroundColor=none;" parent="1" vertex="1">
          <mxGeometry x="520" y="440" width="40" height="40" as="geometry" />
        </mxCell>
        <mxCell id="-5bQla3dnRqBQKIm_dE6-12" value="" style="edgeStyle=orthogonalEdgeStyle;shape=connector;curved=0;rounded=1;orthogonalLoop=1;jettySize=auto;exitX=1;exitY=0.5;exitDx=0;exitDy=0;exitPerimeter=0;entryX=0;entryY=0.5;entryDx=0;entryDy=0;entryPerimeter=0;strokeColor=default;strokeWidth=2;align=center;verticalAlign=middle;fontFamily=Helvetica;fontSize=11;fontColor=default;labelBackgroundColor=default;endArrow=classic;" parent="1" source="-5bQla3dnRqBQKIm_dE6-1" target="-5bQla3dnRqBQKIm_dE6-3" edge="1">
          <mxGeometry relative="1" as="geometry" />
        </mxCell>
        <mxCell id="-5bQla3dnRqBQKIm_dE6-13" value="" style="edgeStyle=orthogonalEdgeStyle;shape=connector;curved=0;rounded=1;orthogonalLoop=1;jettySize=auto;exitX=1;exitY=0.5;exitDx=0;exitDy=0;exitPerimeter=0;entryX=0;entryY=0.5;entryDx=0;entryDy=0;entryPerimeter=0;strokeColor=default;strokeWidth=2;align=center;verticalAlign=middle;fontFamily=Helvetica;fontSize=11;fontColor=default;labelBackgroundColor=default;endArrow=classic;" parent="1" source="-5bQla3dnRqBQKIm_dE6-1" target="-5bQla3dnRqBQKIm_dE6-7" edge="1">
          <mxGeometry relative="1" as="geometry" />
        </mxCell>
        <mxCell id="-5bQla3dnRqBQKIm_dE6-14" value="" style="edgeStyle=orthogonalEdgeStyle;shape=connector;curved=0;rounded=1;orthogonalLoop=1;jettySize=auto;exitX=1;exitY=0.5;exitDx=0;exitDy=0;exitPerimeter=0;entryX=0;entryY=0.5;entryDx=0;entryDy=0;entryPerimeter=0;strokeColor=default;strokeWidth=2;align=center;verticalAlign=middle;fontFamily=Helvetica;fontSize=11;fontColor=default;labelBackgroundColor=default;endArrow=classic;" parent="1" source="-5bQla3dnRqBQKIm_dE6-4" target="-5bQla3dnRqBQKIm_dE6-10" edge="1">
          <mxGeometry relative="1" as="geometry" />
        </mxCell>
        <mxCell id="-5bQla3dnRqBQKIm_dE6-15" value="" style="edgeStyle=orthogonalEdgeStyle;shape=connector;curved=0;rounded=1;orthogonalLoop=1;jettySize=auto;exitX=1;exitY=0.5;exitDx=0;exitDy=0;exitPerimeter=0;entryX=0;entryY=0.5;entryDx=0;entryDy=0;entryPerimeter=0;strokeColor=default;strokeWidth=2;align=center;verticalAlign=middle;fontFamily=Helvetica;fontSize=11;fontColor=default;labelBackgroundColor=default;endArrow=classic;" parent="1" source="-5bQla3dnRqBQKIm_dE6-8" target="-5bQla3dnRqBQKIm_dE6-10" edge="1">
          <mxGeometry relative="1" as="geometry" />
        </mxCell>
        <mxCell id="-5bQla3dnRqBQKIm_dE6-16" value="" style="edgeStyle=orthogonalEdgeStyle;shape=connector;curved=0;rounded=1;orthogonalLoop=1;jettySize=auto;exitX=1;exitY=0.5;exitDx=0;exitDy=0;exitPerimeter=0;entryX=0;entryY=0.5;entryDx=0;entryDy=0;entryPerimeter=0;strokeColor=default;strokeWidth=1;align=center;verticalAlign=middle;fontFamily=Helvetica;fontSize=11;fontColor=default;labelBackgroundColor=default;endArrow=classic;dashed=1;dashPattern=1 4;" parent="1" source="-5bQla3dnRqBQKIm_dE6-5" target="-5bQla3dnRqBQKIm_dE6-11" edge="1">
          <mxGeometry relative="1" as="geometry">
            <Array as="points">
              <mxPoint x="460" y="233" />
              <mxPoint x="460" y="460" />
            </Array>
          </mxGeometry>
        </mxCell>
        <mxCell id="-5bQla3dnRqBQKIm_dE6-17" value="" style="edgeStyle=orthogonalEdgeStyle;shape=connector;curved=0;rounded=1;orthogonalLoop=1;jettySize=auto;exitX=1;exitY=0.5;exitDx=0;exitDy=0;exitPerimeter=0;entryX=0;entryY=0.5;entryDx=0;entryDy=0;entryPerimeter=0;strokeColor=default;strokeWidth=1;align=center;verticalAlign=middle;fontFamily=Helvetica;fontSize=11;fontColor=default;labelBackgroundColor=default;endArrow=classic;dashed=1;dashPattern=1 4;" parent="1" source="-5bQla3dnRqBQKIm_dE6-9" target="-5bQla3dnRqBQKIm_dE6-11" edge="1">
          <mxGeometry relative="1" as="geometry">
            <Array as="points">
              <mxPoint x="460" y="393" />
              <mxPoint x="460" y="460" />
            </Array>
          </mxGeometry>
        </mxCell>
        <mxCell id="-5bQla3dnRqBQKIm_dE6-18" value="Hello sends the string &quot;Hello&quot; when it receives any input&lt;div&gt;&lt;br&gt;&lt;/div&gt;&lt;div&gt;Likewise World sends &quot;World&quot;&lt;/div&gt;" style="shape=note;whiteSpace=wrap;html=1;backgroundOutline=1;fontColor=#000000;darkOpacity=0.05;fillColor=#FFF9B2;strokeColor=none;fillStyle=solid;direction=west;gradientDirection=north;gradientColor=#FFF2A1;shadow=1;size=20;pointerEvents=1;fontFamily=Helvetica;fontSize=11;labelBackgroundColor=none;" parent="1" vertex="1">
          <mxGeometry x="296" y="470" width="122" height="110" as="geometry" />
        </mxCell>
        <mxCell id="-5bQla3dnRqBQKIm_dE6-19" value="The output of the system is &quot;Hello World&quot; or &quot;World Hello&quot;" style="shape=note;whiteSpace=wrap;html=1;backgroundOutline=1;fontColor=#000000;darkOpacity=0.05;fillColor=#FFF9B2;strokeColor=none;fillStyle=solid;direction=west;gradientDirection=north;gradientColor=#FFF2A1;shadow=1;size=20;pointerEvents=1;fontFamily=Helvetica;fontSize=11;labelBackgroundColor=none;" parent="1" vertex="1">
          <mxGeometry x="600" y="250" width="122" height="70" as="geometry" />
        </mxCell>
      </root>
    </mxGraphModel>
  </diagram>
  <diagram name="seq1" id="c3HpbWeJGnhh-BtL5nCC">
    <mxGraphModel dx="1100" dy="661" grid="1" gridSize="10" guides="1" tooltips="1" connect="1" arrows="1" fold="1" page="1" pageScale="1" pageWidth="1100" pageHeight="850" math="0" shadow="0">
      <root>
        <mxCell id="HJt2ERbdlX2AMmVnLhqs-0" />
        <mxCell id="HJt2ERbdlX2AMmVnLhqs-1" parent="HJt2ERbdlX2AMmVnLhqs-0" />
        <mxCell id="HJt2ERbdlX2AMmVnLhqs-2" value="" style="rhombus;rounded=1;fontStyle=1;glass=0;sketch=0;fontSize=12;points=[[0,0.5,0,0,0],[0.5,0,0,0,0],[0.5,1,0,0,0],[1,0.5,0,0,0]];shadow=1;fontFamily=Helvetica;fontColor=default;labelBackgroundColor=none;" parent="HJt2ERbdlX2AMmVnLhqs-1" vertex="1">
          <mxGeometry x="120" y="260" width="40" height="40" as="geometry" />
        </mxCell>
        <mxCell id="HJt2ERbdlX2AMmVnLhqs-3" value="World" style="rounded=1;container=1;recursiveResize=0;verticalAlign=top;arcSize=6;fontStyle=1;autosize=0;points=[];absoluteArcSize=1;shadow=1;strokeColor=#6c8ebf;fillColor=#dae8fc;fontFamily=Helvetica;fontSize=11;gradientColor=#0050EF;fontColor=default;labelBackgroundColor=none;" parent="HJt2ERbdlX2AMmVnLhqs-1" vertex="1">
          <mxGeometry x="280" y="160" width="138" height="100" as="geometry">
            <mxRectangle x="-98" y="-1230" width="99" height="26" as="alternateBounds" />
          </mxGeometry>
        </mxCell>
        <mxCell id="HJt2ERbdlX2AMmVnLhqs-4" value="" style="rounded=1;sketch=0;points=[[0,0.5,0,0,0],[1,0.5,0,0,0]];arcSize=50;fontFamily=Helvetica;fontSize=11;fontColor=default;labelBackgroundColor=none;" parent="HJt2ERbdlX2AMmVnLhqs-3" vertex="1">
          <mxGeometry x="-16.75" y="27.5" width="36.75" height="25" as="geometry" />
        </mxCell>
        <mxCell id="HJt2ERbdlX2AMmVnLhqs-5" value="" style="rounded=1;sketch=0;points=[[0,0.5,0,0,0],[1,0.5,0,0,0]];fillColor=#1ba1e2;fontColor=#ffffff;strokeColor=#006EAF;arcSize=50;fontFamily=Helvetica;fontSize=11;labelBackgroundColor=none;" parent="HJt2ERbdlX2AMmVnLhqs-3" vertex="1">
          <mxGeometry x="120" y="27.5" width="36" height="25" as="geometry" />
        </mxCell>
        <mxCell id="HJt2ERbdlX2AMmVnLhqs-6" value="✗" style="rounded=1;sketch=0;points=[[0,0.5,0,0,0],[1,0.5,0,0,0]];fillColor=#1ba1e2;fontColor=#ffffff;strokeColor=#006EAF;arcSize=50;fontFamily=Helvetica;fontSize=11;textOpacity=30;labelBackgroundColor=none;" parent="HJt2ERbdlX2AMmVnLhqs-3" vertex="1">
          <mxGeometry x="120" y="60" width="36" height="25" as="geometry" />
        </mxCell>
        <mxCell id="HJt2ERbdlX2AMmVnLhqs-7" value="Hello" style="rounded=1;container=1;recursiveResize=0;verticalAlign=top;arcSize=6;fontStyle=1;autosize=0;points=[];absoluteArcSize=1;shadow=1;strokeColor=#6c8ebf;fillColor=#dae8fc;fontFamily=Helvetica;fontSize=11;gradientColor=#0050EF;fontColor=default;labelBackgroundColor=none;" parent="HJt2ERbdlX2AMmVnLhqs-1" vertex="1">
          <mxGeometry x="280" y="320" width="138" height="100" as="geometry">
            <mxRectangle x="-98" y="-1230" width="99" height="26" as="alternateBounds" />
          </mxGeometry>
        </mxCell>
        <mxCell id="HJt2ERbdlX2AMmVnLhqs-8" value="" style="rounded=1;sketch=0;points=[[0,0.5,0,0,0],[1,0.5,0,0,0]];arcSize=50;fontFamily=Helvetica;fontSize=11;fontColor=default;labelBackgroundColor=none;" parent="HJt2ERbdlX2AMmVnLhqs-7" vertex="1">
          <mxGeometry x="-16.75" y="27.5" width="36.75" height="25" as="geometry" />
        </mxCell>
        <mxCell id="HJt2ERbdlX2AMmVnLhqs-9" value="" style="rounded=1;sketch=0;points=[[0,0.5,0,0,0],[1,0.5,0,0,0]];fillColor=#1ba1e2;fontColor=#ffffff;strokeColor=#006EAF;arcSize=50;fontFamily=Helvetica;fontSize=11;labelBackgroundColor=none;" parent="HJt2ERbdlX2AMmVnLhqs-7" vertex="1">
          <mxGeometry x="120" y="27.5" width="36" height="25" as="geometry" />
        </mxCell>
        <mxCell id="HJt2ERbdlX2AMmVnLhqs-10" value="✗" style="rounded=1;sketch=0;points=[[0,0.5,0,0,0],[1,0.5,0,0,0]];fillColor=#1ba1e2;fontColor=#ffffff;strokeColor=#006EAF;arcSize=50;fontFamily=Helvetica;fontSize=11;textOpacity=30;labelBackgroundColor=none;" parent="HJt2ERbdlX2AMmVnLhqs-7" vertex="1">
          <mxGeometry x="120" y="60" width="36" height="25" as="geometry" />
        </mxCell>
        <mxCell id="HJt2ERbdlX2AMmVnLhqs-11" value="" style="rhombus;rounded=1;fontStyle=1;glass=0;sketch=0;fontSize=12;points=[[0,0.5,0,0,0],[0.5,0,0,0,0],[0.5,1,0,0,0],[1,0.5,0,0,0]];shadow=1;fillColor=#0050ef;fontColor=#ffffff;strokeColor=#001DBC;fontFamily=Helvetica;labelBackgroundColor=none;" parent="HJt2ERbdlX2AMmVnLhqs-1" vertex="1">
          <mxGeometry x="520" y="260" width="40" height="40" as="geometry" />
        </mxCell>
        <mxCell id="HJt2ERbdlX2AMmVnLhqs-12" value="✗" style="rhombus;whiteSpace=wrap;html=1;rounded=1;fillColor=#0050ef;fontColor=#ffffff;strokeColor=#001DBC;fontStyle=1;glass=0;sketch=0;fontSize=12;points=[[0,0.5,0,0,0],[0.5,0,0,0,0],[0.5,1,0,0,0],[1,0.5,0,0,0]];shadow=1;opacity=30;textOpacity=30;fontFamily=Helvetica;labelBackgroundColor=none;" parent="HJt2ERbdlX2AMmVnLhqs-1" vertex="1">
          <mxGeometry x="520" y="440" width="40" height="40" as="geometry" />
        </mxCell>
        <mxCell id="HJt2ERbdlX2AMmVnLhqs-13" value="" style="edgeStyle=orthogonalEdgeStyle;shape=connector;curved=0;rounded=1;orthogonalLoop=1;jettySize=auto;exitX=1;exitY=0.5;exitDx=0;exitDy=0;exitPerimeter=0;entryX=0;entryY=0.5;entryDx=0;entryDy=0;entryPerimeter=0;strokeColor=default;strokeWidth=2;align=center;verticalAlign=middle;fontFamily=Helvetica;fontSize=11;fontColor=default;labelBackgroundColor=default;endArrow=classic;" parent="HJt2ERbdlX2AMmVnLhqs-1" source="HJt2ERbdlX2AMmVnLhqs-2" target="HJt2ERbdlX2AMmVnLhqs-8" edge="1">
          <mxGeometry relative="1" as="geometry" />
        </mxCell>
        <mxCell id="HJt2ERbdlX2AMmVnLhqs-15" value="" style="edgeStyle=orthogonalEdgeStyle;shape=connector;curved=0;rounded=1;orthogonalLoop=1;jettySize=auto;exitX=1;exitY=0.5;exitDx=0;exitDy=0;exitPerimeter=0;entryX=0;entryY=0.5;entryDx=0;entryDy=0;entryPerimeter=0;strokeColor=default;strokeWidth=2;align=center;verticalAlign=middle;fontFamily=Helvetica;fontSize=11;fontColor=default;labelBackgroundColor=default;endArrow=classic;" parent="HJt2ERbdlX2AMmVnLhqs-1" source="HJt2ERbdlX2AMmVnLhqs-5" target="HJt2ERbdlX2AMmVnLhqs-11" edge="1">
          <mxGeometry relative="1" as="geometry" />
        </mxCell>
        <mxCell id="HJt2ERbdlX2AMmVnLhqs-16" value="" style="edgeStyle=orthogonalEdgeStyle;shape=connector;curved=0;rounded=1;orthogonalLoop=1;jettySize=auto;exitX=1;exitY=0.5;exitDx=0;exitDy=0;exitPerimeter=0;entryX=0;entryY=0.5;entryDx=0;entryDy=0;entryPerimeter=0;strokeColor=default;strokeWidth=2;align=center;verticalAlign=middle;fontFamily=Helvetica;fontSize=11;fontColor=default;labelBackgroundColor=default;endArrow=classic;" parent="HJt2ERbdlX2AMmVnLhqs-1" source="HJt2ERbdlX2AMmVnLhqs-9" target="HJt2ERbdlX2AMmVnLhqs-11" edge="1">
          <mxGeometry relative="1" as="geometry" />
        </mxCell>
        <mxCell id="HJt2ERbdlX2AMmVnLhqs-17" value="" style="edgeStyle=orthogonalEdgeStyle;shape=connector;curved=0;rounded=1;orthogonalLoop=1;jettySize=auto;exitX=1;exitY=0.5;exitDx=0;exitDy=0;exitPerimeter=0;entryX=0;entryY=0.5;entryDx=0;entryDy=0;entryPerimeter=0;strokeColor=default;strokeWidth=1;align=center;verticalAlign=middle;fontFamily=Helvetica;fontSize=11;fontColor=default;labelBackgroundColor=default;endArrow=classic;dashed=1;dashPattern=1 4;" parent="HJt2ERbdlX2AMmVnLhqs-1" source="HJt2ERbdlX2AMmVnLhqs-6" target="HJt2ERbdlX2AMmVnLhqs-12" edge="1">
          <mxGeometry relative="1" as="geometry">
            <Array as="points">
              <mxPoint x="460" y="233" />
              <mxPoint x="460" y="460" />
            </Array>
          </mxGeometry>
        </mxCell>
        <mxCell id="HJt2ERbdlX2AMmVnLhqs-18" value="" style="edgeStyle=orthogonalEdgeStyle;shape=connector;curved=0;rounded=1;orthogonalLoop=1;jettySize=auto;exitX=1;exitY=0.5;exitDx=0;exitDy=0;exitPerimeter=0;entryX=0;entryY=0.5;entryDx=0;entryDy=0;entryPerimeter=0;strokeColor=default;strokeWidth=1;align=center;verticalAlign=middle;fontFamily=Helvetica;fontSize=11;fontColor=default;labelBackgroundColor=default;endArrow=classic;dashed=1;dashPattern=1 4;" parent="HJt2ERbdlX2AMmVnLhqs-1" source="HJt2ERbdlX2AMmVnLhqs-10" target="HJt2ERbdlX2AMmVnLhqs-12" edge="1">
          <mxGeometry relative="1" as="geometry">
            <Array as="points">
              <mxPoint x="460" y="393" />
              <mxPoint x="460" y="460" />
            </Array>
          </mxGeometry>
        </mxCell>
        <mxCell id="HJt2ERbdlX2AMmVnLhqs-19" value="Hello sends the string &quot;Hello&quot; when it receives any input&lt;div&gt;&lt;br&gt;&lt;/div&gt;&lt;div&gt;Likewise World sends &quot;World&quot;&lt;/div&gt;" style="shape=note;whiteSpace=wrap;html=1;backgroundOutline=1;fontColor=#000000;darkOpacity=0.05;fillColor=#FFF9B2;strokeColor=none;fillStyle=solid;direction=west;gradientDirection=north;gradientColor=#FFF2A1;shadow=1;size=20;pointerEvents=1;fontFamily=Helvetica;fontSize=11;labelBackgroundColor=none;" parent="HJt2ERbdlX2AMmVnLhqs-1" vertex="1">
          <mxGeometry x="296" y="470" width="122" height="110" as="geometry" />
        </mxCell>
        <mxCell id="HJt2ERbdlX2AMmVnLhqs-20" value="The output of the system is &quot;Hello World&quot; or &quot;World Hello&quot;" style="shape=note;whiteSpace=wrap;html=1;backgroundOutline=1;fontColor=#000000;darkOpacity=0.05;fillColor=#FFF9B2;strokeColor=none;fillStyle=solid;direction=west;gradientDirection=north;gradientColor=#FFF2A1;shadow=1;size=20;pointerEvents=1;fontFamily=Helvetica;fontSize=11;labelBackgroundColor=none;" parent="HJt2ERbdlX2AMmVnLhqs-1" vertex="1">
          <mxGeometry x="600" y="250" width="122" height="70" as="geometry" />
        </mxCell>
        <mxCell id="WsV6ryXd-Gzds-49xMLh-0" style="edgeStyle=orthogonalEdgeStyle;rounded=1;orthogonalLoop=1;jettySize=auto;html=1;exitX=1;exitY=0.5;exitDx=0;exitDy=0;exitPerimeter=0;entryX=0;entryY=0.5;entryDx=0;entryDy=0;entryPerimeter=0;strokeWidth=2;curved=0;" parent="HJt2ERbdlX2AMmVnLhqs-1" source="HJt2ERbdlX2AMmVnLhqs-9" target="HJt2ERbdlX2AMmVnLhqs-4" edge="1">
          <mxGeometry relative="1" as="geometry" />
        </mxCell>
      </root>
    </mxGraphModel>
  </diagram>
  <diagram name="seq2" id="Cgz_zYDu7RxURtAuz_GJ">
    <mxGraphModel dx="1100" dy="661" grid="1" gridSize="10" guides="1" tooltips="1" connect="1" arrows="1" fold="1" page="1" pageScale="1" pageWidth="1100" pageHeight="850" math="0" shadow="0">
      <root>
        <mxCell id="b5fvVUOjdFuZS4JlEBf3-0" />
        <mxCell id="b5fvVUOjdFuZS4JlEBf3-1" parent="b5fvVUOjdFuZS4JlEBf3-0" />
        <mxCell id="b5fvVUOjdFuZS4JlEBf3-2" value="" style="rhombus;rounded=1;fontStyle=1;glass=0;sketch=0;fontSize=12;points=[[0,0.5,0,0,0],[0.5,0,0,0,0],[0.5,1,0,0,0],[1,0.5,0,0,0]];shadow=1;fontFamily=Helvetica;fontColor=default;labelBackgroundColor=none;" parent="b5fvVUOjdFuZS4JlEBf3-1" vertex="1">
          <mxGeometry x="120" y="260" width="40" height="40" as="geometry" />
        </mxCell>
        <mxCell id="b5fvVUOjdFuZS4JlEBf3-3" value="World" style="rounded=1;container=1;recursiveResize=0;verticalAlign=top;arcSize=6;fontStyle=1;autosize=0;points=[];absoluteArcSize=1;shadow=1;strokeColor=#6c8ebf;fillColor=#dae8fc;fontFamily=Helvetica;fontSize=11;gradientColor=#0050EF;fontColor=default;labelBackgroundColor=none;" parent="b5fvVUOjdFuZS4JlEBf3-1" vertex="1">
          <mxGeometry x="280" y="160" width="138" height="100" as="geometry">
            <mxRectangle x="-98" y="-1230" width="99" height="26" as="alternateBounds" />
          </mxGeometry>
        </mxCell>
        <mxCell id="b5fvVUOjdFuZS4JlEBf3-4" value="" style="rounded=1;sketch=0;points=[[0,0.5,0,0,0],[1,0.5,0,0,0]];arcSize=50;fontFamily=Helvetica;fontSize=11;fontColor=default;labelBackgroundColor=none;" parent="b5fvVUOjdFuZS4JlEBf3-3" vertex="1">
          <mxGeometry x="-16.75" y="27.5" width="36.75" height="25" as="geometry" />
        </mxCell>
        <mxCell id="b5fvVUOjdFuZS4JlEBf3-5" value="" style="rounded=1;sketch=0;points=[[0,0.5,0,0,0],[1,0.5,0,0,0]];fillColor=#1ba1e2;fontColor=#ffffff;strokeColor=#006EAF;arcSize=50;fontFamily=Helvetica;fontSize=11;labelBackgroundColor=none;" parent="b5fvVUOjdFuZS4JlEBf3-3" vertex="1">
          <mxGeometry x="120" y="27.5" width="36" height="25" as="geometry" />
        </mxCell>
        <mxCell id="b5fvVUOjdFuZS4JlEBf3-6" value="✗" style="rounded=1;sketch=0;points=[[0,0.5,0,0,0],[1,0.5,0,0,0]];fillColor=#1ba1e2;fontColor=#ffffff;strokeColor=#006EAF;arcSize=50;fontFamily=Helvetica;fontSize=11;textOpacity=30;labelBackgroundColor=none;" parent="b5fvVUOjdFuZS4JlEBf3-3" vertex="1">
          <mxGeometry x="120" y="60" width="36" height="25" as="geometry" />
        </mxCell>
        <mxCell id="b5fvVUOjdFuZS4JlEBf3-7" value="Hello" style="rounded=1;container=1;recursiveResize=0;verticalAlign=top;arcSize=6;fontStyle=1;autosize=0;points=[];absoluteArcSize=1;shadow=1;strokeColor=#6c8ebf;fillColor=#dae8fc;fontFamily=Helvetica;fontSize=11;gradientColor=#0050EF;fontColor=default;labelBackgroundColor=none;" parent="b5fvVUOjdFuZS4JlEBf3-1" vertex="1">
          <mxGeometry x="280" y="320" width="138" height="100" as="geometry">
            <mxRectangle x="-98" y="-1230" width="99" height="26" as="alternateBounds" />
          </mxGeometry>
        </mxCell>
        <mxCell id="b5fvVUOjdFuZS4JlEBf3-8" value="" style="rounded=1;sketch=0;points=[[0,0.5,0,0,0],[1,0.5,0,0,0]];arcSize=50;fontFamily=Helvetica;fontSize=11;fontColor=default;labelBackgroundColor=none;" parent="b5fvVUOjdFuZS4JlEBf3-7" vertex="1">
          <mxGeometry x="-16.75" y="27.5" width="36.75" height="25" as="geometry" />
        </mxCell>
        <mxCell id="b5fvVUOjdFuZS4JlEBf3-9" value="" style="rounded=1;sketch=0;points=[[0,0.5,0,0,0],[1,0.5,0,0,0]];fillColor=#1ba1e2;fontColor=#ffffff;strokeColor=#006EAF;arcSize=50;fontFamily=Helvetica;fontSize=11;labelBackgroundColor=none;" parent="b5fvVUOjdFuZS4JlEBf3-7" vertex="1">
          <mxGeometry x="120" y="27.5" width="36" height="25" as="geometry" />
        </mxCell>
        <mxCell id="b5fvVUOjdFuZS4JlEBf3-10" value="✗" style="rounded=1;sketch=0;points=[[0,0.5,0,0,0],[1,0.5,0,0,0]];fillColor=#1ba1e2;fontColor=#ffffff;strokeColor=#006EAF;arcSize=50;fontFamily=Helvetica;fontSize=11;textOpacity=30;labelBackgroundColor=none;" parent="b5fvVUOjdFuZS4JlEBf3-7" vertex="1">
          <mxGeometry x="120" y="60" width="36" height="25" as="geometry" />
        </mxCell>
        <mxCell id="b5fvVUOjdFuZS4JlEBf3-11" value="" style="rhombus;rounded=1;fontStyle=1;glass=0;sketch=0;fontSize=12;points=[[0,0.5,0,0,0],[0.5,0,0,0,0],[0.5,1,0,0,0],[1,0.5,0,0,0]];shadow=1;fillColor=#0050ef;fontColor=#ffffff;strokeColor=#001DBC;fontFamily=Helvetica;labelBackgroundColor=none;" parent="b5fvVUOjdFuZS4JlEBf3-1" vertex="1">
          <mxGeometry x="520" y="260" width="40" height="40" as="geometry" />
        </mxCell>
        <mxCell id="b5fvVUOjdFuZS4JlEBf3-12" value="✗" style="rhombus;whiteSpace=wrap;html=1;rounded=1;fillColor=#0050ef;fontColor=#ffffff;strokeColor=#001DBC;fontStyle=1;glass=0;sketch=0;fontSize=12;points=[[0,0.5,0,0,0],[0.5,0,0,0,0],[0.5,1,0,0,0],[1,0.5,0,0,0]];shadow=1;opacity=30;textOpacity=30;fontFamily=Helvetica;labelBackgroundColor=none;" parent="b5fvVUOjdFuZS4JlEBf3-1" vertex="1">
          <mxGeometry x="520" y="440" width="40" height="40" as="geometry" />
        </mxCell>
        <mxCell id="b5fvVUOjdFuZS4JlEBf3-13" value="" style="edgeStyle=orthogonalEdgeStyle;shape=connector;curved=0;rounded=1;orthogonalLoop=1;jettySize=auto;exitX=1;exitY=0.5;exitDx=0;exitDy=0;exitPerimeter=0;entryX=0;entryY=0.5;entryDx=0;entryDy=0;entryPerimeter=0;strokeColor=default;strokeWidth=2;align=center;verticalAlign=middle;fontFamily=Helvetica;fontSize=11;fontColor=default;labelBackgroundColor=default;endArrow=classic;" parent="b5fvVUOjdFuZS4JlEBf3-1" source="b5fvVUOjdFuZS4JlEBf3-2" target="b5fvVUOjdFuZS4JlEBf3-4" edge="1">
          <mxGeometry relative="1" as="geometry" />
        </mxCell>
        <mxCell id="b5fvVUOjdFuZS4JlEBf3-14" value="" style="edgeStyle=orthogonalEdgeStyle;shape=connector;curved=0;rounded=1;orthogonalLoop=1;jettySize=auto;exitX=1;exitY=0.5;exitDx=0;exitDy=0;exitPerimeter=0;entryX=0;entryY=0.5;entryDx=0;entryDy=0;entryPerimeter=0;strokeColor=default;strokeWidth=2;align=center;verticalAlign=middle;fontFamily=Helvetica;fontSize=11;fontColor=default;labelBackgroundColor=default;endArrow=classic;" parent="b5fvVUOjdFuZS4JlEBf3-1" source="b5fvVUOjdFuZS4JlEBf3-5" target="b5fvVUOjdFuZS4JlEBf3-11" edge="1">
          <mxGeometry relative="1" as="geometry" />
        </mxCell>
        <mxCell id="b5fvVUOjdFuZS4JlEBf3-15" value="" style="edgeStyle=orthogonalEdgeStyle;shape=connector;curved=0;rounded=1;orthogonalLoop=1;jettySize=auto;exitX=1;exitY=0.5;exitDx=0;exitDy=0;exitPerimeter=0;entryX=0;entryY=0.5;entryDx=0;entryDy=0;entryPerimeter=0;strokeColor=default;strokeWidth=2;align=center;verticalAlign=middle;fontFamily=Helvetica;fontSize=11;fontColor=default;labelBackgroundColor=default;endArrow=classic;" parent="b5fvVUOjdFuZS4JlEBf3-1" source="b5fvVUOjdFuZS4JlEBf3-9" target="b5fvVUOjdFuZS4JlEBf3-11" edge="1">
          <mxGeometry relative="1" as="geometry" />
        </mxCell>
        <mxCell id="b5fvVUOjdFuZS4JlEBf3-16" value="" style="edgeStyle=orthogonalEdgeStyle;shape=connector;curved=0;rounded=1;orthogonalLoop=1;jettySize=auto;exitX=1;exitY=0.5;exitDx=0;exitDy=0;exitPerimeter=0;entryX=0;entryY=0.5;entryDx=0;entryDy=0;entryPerimeter=0;strokeColor=default;strokeWidth=1;align=center;verticalAlign=middle;fontFamily=Helvetica;fontSize=11;fontColor=default;labelBackgroundColor=default;endArrow=classic;dashed=1;dashPattern=1 4;" parent="b5fvVUOjdFuZS4JlEBf3-1" source="b5fvVUOjdFuZS4JlEBf3-6" target="b5fvVUOjdFuZS4JlEBf3-12" edge="1">
          <mxGeometry relative="1" as="geometry">
            <Array as="points">
              <mxPoint x="460" y="233" />
              <mxPoint x="460" y="460" />
            </Array>
          </mxGeometry>
        </mxCell>
        <mxCell id="b5fvVUOjdFuZS4JlEBf3-17" value="" style="edgeStyle=orthogonalEdgeStyle;shape=connector;curved=0;rounded=1;orthogonalLoop=1;jettySize=auto;exitX=1;exitY=0.5;exitDx=0;exitDy=0;exitPerimeter=0;entryX=0;entryY=0.5;entryDx=0;entryDy=0;entryPerimeter=0;strokeColor=default;strokeWidth=1;align=center;verticalAlign=middle;fontFamily=Helvetica;fontSize=11;fontColor=default;labelBackgroundColor=default;endArrow=classic;dashed=1;dashPattern=1 4;" parent="b5fvVUOjdFuZS4JlEBf3-1" source="b5fvVUOjdFuZS4JlEBf3-10" target="b5fvVUOjdFuZS4JlEBf3-12" edge="1">
          <mxGeometry relative="1" as="geometry">
            <Array as="points">
              <mxPoint x="460" y="393" />
              <mxPoint x="460" y="460" />
            </Array>
          </mxGeometry>
        </mxCell>
        <mxCell id="b5fvVUOjdFuZS4JlEBf3-18" value="Hello sends the string &quot;Hello&quot; when it receives any input&lt;div&gt;&lt;br&gt;&lt;/div&gt;&lt;div&gt;Likewise World sends &quot;World&quot;&lt;/div&gt;" style="shape=note;whiteSpace=wrap;html=1;backgroundOutline=1;fontColor=#000000;darkOpacity=0.05;fillColor=#FFF9B2;strokeColor=none;fillStyle=solid;direction=west;gradientDirection=north;gradientColor=#FFF2A1;shadow=1;size=20;pointerEvents=1;fontFamily=Helvetica;fontSize=11;labelBackgroundColor=none;" parent="b5fvVUOjdFuZS4JlEBf3-1" vertex="1">
          <mxGeometry x="296" y="470" width="122" height="110" as="geometry" />
        </mxCell>
        <mxCell id="b5fvVUOjdFuZS4JlEBf3-19" value="The output of the system is &quot;Hello World&quot; or &quot;World Hello&quot;" style="shape=note;whiteSpace=wrap;html=1;backgroundOutline=1;fontColor=#000000;darkOpacity=0.05;fillColor=#FFF9B2;strokeColor=none;fillStyle=solid;direction=west;gradientDirection=north;gradientColor=#FFF2A1;shadow=1;size=20;pointerEvents=1;fontFamily=Helvetica;fontSize=11;labelBackgroundColor=none;" parent="b5fvVUOjdFuZS4JlEBf3-1" vertex="1">
          <mxGeometry x="600" y="250" width="122" height="70" as="geometry" />
        </mxCell>
        <mxCell id="KPeuojik3253JyzjcqL8-0" style="edgeStyle=orthogonalEdgeStyle;rounded=1;orthogonalLoop=1;jettySize=auto;html=1;exitX=1;exitY=0.5;exitDx=0;exitDy=0;exitPerimeter=0;entryX=0;entryY=0.5;entryDx=0;entryDy=0;entryPerimeter=0;strokeWidth=2;curved=0;" parent="b5fvVUOjdFuZS4JlEBf3-1" source="b5fvVUOjdFuZS4JlEBf3-5" target="b5fvVUOjdFuZS4JlEBf3-8" edge="1">
          <mxGeometry relative="1" as="geometry" />
        </mxCell>
      </root>
    </mxGraphModel>
  </diagram>
  <diagram name="seq3" id="YCwqijXUnWygP2vGrP-g">
    <mxGraphModel dx="1100" dy="661" grid="1" gridSize="8" guides="1" tooltips="1" connect="1" arrows="1" fold="1" page="1" pageScale="1" pageWidth="1100" pageHeight="850" math="0" shadow="0">
      <root>
        <mxCell id="_zt3f1tPY_YbowR_woag-0" />
        <mxCell id="_zt3f1tPY_YbowR_woag-1" parent="_zt3f1tPY_YbowR_woag-0" />
        <mxCell id="_zt3f1tPY_YbowR_woag-2" value="" style="rhombus;rounded=1;fontStyle=1;glass=0;sketch=0;fontSize=12;points=[[0,0.5,0,0,0],[0.5,0,0,0,0],[0.5,1,0,0,0],[1,0.5,0,0,0]];shadow=1;fontFamily=Helvetica;fontColor=default;labelBackgroundColor=none;" parent="_zt3f1tPY_YbowR_woag-1" vertex="1">
          <mxGeometry x="40" y="142.5" width="40" height="40" as="geometry" />
        </mxCell>
        <mxCell id="_zt3f1tPY_YbowR_woag-3" value="World" style="rounded=1;container=1;recursiveResize=0;verticalAlign=top;arcSize=6;fontStyle=1;autosize=0;points=[];absoluteArcSize=1;shadow=1;strokeColor=#6c8ebf;fillColor=#dae8fc;fontFamily=Helvetica;fontSize=11;gradientColor=#0050EF;fontColor=default;labelBackgroundColor=none;" parent="_zt3f1tPY_YbowR_woag-1" vertex="1">
          <mxGeometry x="600" y="180" width="138" height="100" as="geometry">
            <mxRectangle x="-98" y="-1230" width="99" height="26" as="alternateBounds" />
          </mxGeometry>
        </mxCell>
        <mxCell id="_zt3f1tPY_YbowR_woag-4" value="" style="rounded=1;sketch=0;points=[[0,0.5,0,0,0],[1,0.5,0,0,0]];arcSize=50;fontFamily=Helvetica;fontSize=11;fontColor=default;labelBackgroundColor=none;" parent="_zt3f1tPY_YbowR_woag-3" vertex="1">
          <mxGeometry x="-16.75" y="27.5" width="36.75" height="25" as="geometry" />
        </mxCell>
        <mxCell id="_zt3f1tPY_YbowR_woag-5" value="" style="rounded=1;sketch=0;points=[[0,0.5,0,0,0],[1,0.5,0,0,0]];fillColor=#1ba1e2;fontColor=#ffffff;strokeColor=#006EAF;arcSize=50;fontFamily=Helvetica;fontSize=11;labelBackgroundColor=none;" parent="_zt3f1tPY_YbowR_woag-3" vertex="1">
          <mxGeometry x="120" y="27.5" width="36" height="25" as="geometry" />
        </mxCell>
        <mxCell id="_zt3f1tPY_YbowR_woag-6" value="✗" style="rounded=1;sketch=0;points=[[0,0.5,0,0,0],[1,0.5,0,0,0]];fillColor=#1ba1e2;fontColor=#ffffff;strokeColor=#006EAF;arcSize=50;fontFamily=Helvetica;fontSize=11;textOpacity=30;labelBackgroundColor=none;" parent="_zt3f1tPY_YbowR_woag-3" vertex="1">
          <mxGeometry x="120" y="60" width="36" height="25" as="geometry" />
        </mxCell>
        <mxCell id="_zt3f1tPY_YbowR_woag-7" value="Hello" style="rounded=1;container=1;recursiveResize=0;verticalAlign=top;arcSize=6;fontStyle=1;autosize=0;points=[];absoluteArcSize=1;shadow=1;strokeColor=#6c8ebf;fillColor=#dae8fc;fontFamily=Helvetica;fontSize=11;gradientColor=#0050EF;fontColor=default;labelBackgroundColor=none;" parent="_zt3f1tPY_YbowR_woag-1" vertex="1">
          <mxGeometry x="600" y="320" width="138" height="100" as="geometry">
            <mxRectangle x="-98" y="-1230" width="99" height="26" as="alternateBounds" />
          </mxGeometry>
        </mxCell>
        <mxCell id="_zt3f1tPY_YbowR_woag-8" value="" style="rounded=1;sketch=0;points=[[0,0.5,0,0,0],[1,0.5,0,0,0]];arcSize=50;fontFamily=Helvetica;fontSize=11;fontColor=default;labelBackgroundColor=none;" parent="_zt3f1tPY_YbowR_woag-7" vertex="1">
          <mxGeometry x="-16.75" y="30" width="36.75" height="25" as="geometry" />
        </mxCell>
        <mxCell id="_zt3f1tPY_YbowR_woag-9" value="" style="rounded=1;sketch=0;points=[[0,0.5,0,0,0],[1,0.5,0,0,0]];fillColor=#1ba1e2;fontColor=#ffffff;strokeColor=#006EAF;arcSize=50;fontFamily=Helvetica;fontSize=11;labelBackgroundColor=none;" parent="_zt3f1tPY_YbowR_woag-7" vertex="1">
          <mxGeometry x="120" y="27.5" width="36" height="25" as="geometry" />
        </mxCell>
        <mxCell id="_zt3f1tPY_YbowR_woag-10" value="✗" style="rounded=1;sketch=0;points=[[0,0.5,0,0,0],[1,0.5,0,0,0]];fillColor=#1ba1e2;fontColor=#ffffff;strokeColor=#006EAF;arcSize=50;fontFamily=Helvetica;fontSize=11;textOpacity=30;labelBackgroundColor=none;" parent="_zt3f1tPY_YbowR_woag-7" vertex="1">
          <mxGeometry x="120" y="60" width="36" height="25" as="geometry" />
        </mxCell>
        <mxCell id="_zt3f1tPY_YbowR_woag-11" value="" style="rhombus;rounded=1;fontStyle=1;glass=0;sketch=0;fontSize=12;points=[[0,0.5,0,0,0],[0.5,0,0,0,0],[0.5,1,0,0,0],[1,0.5,0,0,0]];shadow=1;fillColor=#0050ef;fontColor=#ffffff;strokeColor=#001DBC;fontFamily=Helvetica;labelBackgroundColor=none;" parent="_zt3f1tPY_YbowR_woag-1" vertex="1">
          <mxGeometry x="840" y="260" width="40" height="40" as="geometry" />
        </mxCell>
        <mxCell id="_zt3f1tPY_YbowR_woag-12" value="✗" style="rhombus;whiteSpace=wrap;html=1;rounded=1;fillColor=#0050ef;fontColor=#ffffff;strokeColor=#001DBC;fontStyle=1;glass=0;sketch=0;fontSize=12;points=[[0,0.5,0,0,0],[0.5,0,0,0,0],[0.5,1,0,0,0],[1,0.5,0,0,0]];shadow=1;opacity=30;textOpacity=30;fontFamily=Helvetica;labelBackgroundColor=none;" parent="_zt3f1tPY_YbowR_woag-1" vertex="1">
          <mxGeometry x="840" y="440" width="40" height="40" as="geometry" />
        </mxCell>
        <mxCell id="_zt3f1tPY_YbowR_woag-15" value="" style="edgeStyle=orthogonalEdgeStyle;shape=connector;curved=0;rounded=1;orthogonalLoop=1;jettySize=auto;exitX=1;exitY=0.5;exitDx=0;exitDy=0;exitPerimeter=0;entryX=0;entryY=0.5;entryDx=0;entryDy=0;entryPerimeter=0;strokeColor=default;strokeWidth=2;align=center;verticalAlign=middle;fontFamily=Helvetica;fontSize=11;fontColor=default;labelBackgroundColor=default;endArrow=classic;" parent="_zt3f1tPY_YbowR_woag-1" source="_zt3f1tPY_YbowR_woag-5" target="_zt3f1tPY_YbowR_woag-11" edge="1">
          <mxGeometry relative="1" as="geometry" />
        </mxCell>
        <mxCell id="_zt3f1tPY_YbowR_woag-16" value="" style="edgeStyle=orthogonalEdgeStyle;shape=connector;curved=0;rounded=1;orthogonalLoop=1;jettySize=auto;exitX=1;exitY=0.5;exitDx=0;exitDy=0;exitPerimeter=0;entryX=0;entryY=0.5;entryDx=0;entryDy=0;entryPerimeter=0;strokeColor=default;strokeWidth=2;align=center;verticalAlign=middle;fontFamily=Helvetica;fontSize=11;fontColor=default;labelBackgroundColor=default;endArrow=classic;" parent="_zt3f1tPY_YbowR_woag-1" source="_zt3f1tPY_YbowR_woag-9" target="_zt3f1tPY_YbowR_woag-11" edge="1">
          <mxGeometry relative="1" as="geometry" />
        </mxCell>
        <mxCell id="_zt3f1tPY_YbowR_woag-17" value="" style="edgeStyle=orthogonalEdgeStyle;shape=connector;curved=0;rounded=1;orthogonalLoop=1;jettySize=auto;exitX=1;exitY=0.5;exitDx=0;exitDy=0;exitPerimeter=0;entryX=0;entryY=0.5;entryDx=0;entryDy=0;entryPerimeter=0;strokeColor=default;strokeWidth=1;align=center;verticalAlign=middle;fontFamily=Helvetica;fontSize=11;fontColor=default;labelBackgroundColor=default;endArrow=classic;dashed=1;dashPattern=1 4;" parent="_zt3f1tPY_YbowR_woag-1" source="_zt3f1tPY_YbowR_woag-6" target="_zt3f1tPY_YbowR_woag-12" edge="1">
          <mxGeometry relative="1" as="geometry">
            <Array as="points">
              <mxPoint x="780" y="253" />
              <mxPoint x="780" y="460" />
            </Array>
          </mxGeometry>
        </mxCell>
        <mxCell id="_zt3f1tPY_YbowR_woag-18" value="" style="edgeStyle=orthogonalEdgeStyle;shape=connector;curved=0;rounded=1;orthogonalLoop=1;jettySize=auto;exitX=1;exitY=0.5;exitDx=0;exitDy=0;exitPerimeter=0;entryX=0;entryY=0.5;entryDx=0;entryDy=0;entryPerimeter=0;strokeColor=default;strokeWidth=1;align=center;verticalAlign=middle;fontFamily=Helvetica;fontSize=11;fontColor=default;labelBackgroundColor=default;endArrow=classic;dashed=1;dashPattern=1 4;" parent="_zt3f1tPY_YbowR_woag-1" source="_zt3f1tPY_YbowR_woag-10" target="_zt3f1tPY_YbowR_woag-12" edge="1">
          <mxGeometry relative="1" as="geometry">
            <Array as="points">
              <mxPoint x="780" y="393" />
              <mxPoint x="780" y="460" />
            </Array>
          </mxGeometry>
        </mxCell>
        <mxCell id="VMMyZQn9hTGhELiOO-MU-0" value="Cruel" style="rounded=1;container=1;recursiveResize=0;verticalAlign=top;arcSize=6;fontStyle=1;autosize=0;points=[];absoluteArcSize=1;shadow=1;strokeColor=#6c8ebf;fillColor=#dae8fc;fontFamily=Helvetica;fontSize=11;gradientColor=#0050EF;fontColor=default;labelBackgroundColor=none;" parent="_zt3f1tPY_YbowR_woag-1" vertex="1">
          <mxGeometry x="600" y="40" width="138" height="100" as="geometry">
            <mxRectangle x="-98" y="-1230" width="99" height="26" as="alternateBounds" />
          </mxGeometry>
        </mxCell>
        <mxCell id="VMMyZQn9hTGhELiOO-MU-1" value="" style="rounded=1;sketch=0;points=[[0,0.5,0,0,0],[1,0.5,0,0,0]];arcSize=50;fontFamily=Helvetica;fontSize=11;fontColor=default;labelBackgroundColor=none;" parent="VMMyZQn9hTGhELiOO-MU-0" vertex="1">
          <mxGeometry x="-16.75" y="27.5" width="36.75" height="25" as="geometry" />
        </mxCell>
        <mxCell id="VMMyZQn9hTGhELiOO-MU-2" value="" style="rounded=1;sketch=0;points=[[0,0.5,0,0,0],[1,0.5,0,0,0]];fillColor=#1ba1e2;fontColor=#ffffff;strokeColor=#006EAF;arcSize=50;fontFamily=Helvetica;fontSize=11;labelBackgroundColor=none;" parent="VMMyZQn9hTGhELiOO-MU-0" vertex="1">
          <mxGeometry x="120" y="27.5" width="36" height="25" as="geometry" />
        </mxCell>
        <mxCell id="VMMyZQn9hTGhELiOO-MU-3" value="✗" style="rounded=1;sketch=0;points=[[0,0.5,0,0,0],[1,0.5,0,0,0]];fillColor=#1ba1e2;fontColor=#ffffff;strokeColor=#006EAF;arcSize=50;fontFamily=Helvetica;fontSize=11;textOpacity=30;labelBackgroundColor=none;" parent="VMMyZQn9hTGhELiOO-MU-0" vertex="1">
          <mxGeometry x="120" y="60" width="36" height="25" as="geometry" />
        </mxCell>
        <mxCell id="VMMyZQn9hTGhELiOO-MU-4" style="edgeStyle=orthogonalEdgeStyle;shape=connector;curved=0;rounded=1;orthogonalLoop=1;jettySize=auto;html=1;exitX=1;exitY=0.5;exitDx=0;exitDy=0;exitPerimeter=0;entryX=0;entryY=0.5;entryDx=0;entryDy=0;entryPerimeter=0;strokeColor=default;strokeWidth=2;align=center;verticalAlign=middle;fontFamily=Helvetica;fontSize=11;fontColor=default;labelBackgroundColor=default;endArrow=classic;" parent="_zt3f1tPY_YbowR_woag-1" source="VMMyZQn9hTGhELiOO-MU-2" target="_zt3f1tPY_YbowR_woag-11" edge="1">
          <mxGeometry relative="1" as="geometry" />
        </mxCell>
        <mxCell id="VMMyZQn9hTGhELiOO-MU-5" style="edgeStyle=orthogonalEdgeStyle;shape=connector;curved=0;rounded=1;orthogonalLoop=1;jettySize=auto;html=1;exitX=1;exitY=0.5;exitDx=0;exitDy=0;exitPerimeter=0;entryX=0;entryY=0.5;entryDx=0;entryDy=0;entryPerimeter=0;strokeColor=default;strokeWidth=1;align=center;verticalAlign=middle;fontFamily=Helvetica;fontSize=11;fontColor=default;labelBackgroundColor=default;endArrow=classic;dashed=1;" parent="_zt3f1tPY_YbowR_woag-1" source="VMMyZQn9hTGhELiOO-MU-3" target="_zt3f1tPY_YbowR_woag-12" edge="1">
          <mxGeometry relative="1" as="geometry">
            <Array as="points">
              <mxPoint x="780" y="113" />
              <mxPoint x="780" y="460" />
            </Array>
          </mxGeometry>
        </mxCell>
        <mxCell id="my9TNGS3KLkWz0i3TgJQ-0" value="1then2" style="rounded=1;whiteSpace=wrap;html=1;sketch=0;container=1;recursiveResize=0;verticalAlign=top;arcSize=6;fontStyle=1;autosize=0;points=[];absoluteArcSize=1;shadow=1;strokeColor=#001DBC;fillColor=#DAE8FC;fontColor=#ffffff;gradientColor=#0050EF;fontFamily=Helvetica;fontSize=11;labelBackgroundColor=none;" parent="_zt3f1tPY_YbowR_woag-1" vertex="1">
          <mxGeometry x="410" y="90" width="70" height="100" as="geometry">
            <mxRectangle x="-98" y="-1230" width="99" height="26" as="alternateBounds" />
          </mxGeometry>
        </mxCell>
        <mxCell id="my9TNGS3KLkWz0i3TgJQ-1" value="2" style="rounded=1;whiteSpace=wrap;html=1;sketch=0;points=[[0,0.5,0,0,0],[1,0.5,0,0,0]];arcSize=50;fontFamily=Helvetica;fontSize=11;fontColor=default;labelBackgroundColor=none;" parent="my9TNGS3KLkWz0i3TgJQ-0" vertex="1">
          <mxGeometry x="-10" y="60" width="40" height="25" as="geometry" />
        </mxCell>
        <mxCell id="my9TNGS3KLkWz0i3TgJQ-2" value="1" style="rounded=1;whiteSpace=wrap;html=1;sketch=0;points=[[0,0.5,0,0,0],[1,0.5,0,0,0]];arcSize=50;fontFamily=Helvetica;fontSize=11;fontColor=default;labelBackgroundColor=none;" parent="my9TNGS3KLkWz0i3TgJQ-0" vertex="1">
          <mxGeometry x="-10" y="30" width="40" height="25" as="geometry" />
        </mxCell>
        <mxCell id="my9TNGS3KLkWz0i3TgJQ-3" value="1" style="rounded=1;whiteSpace=wrap;html=1;sketch=0;points=[[0,0.5,0,0,0],[1,0.5,0,0,0]];fillColor=#1ba1e2;fontColor=#ffffff;strokeColor=#006EAF;arcSize=50;fontFamily=Helvetica;fontSize=11;labelBackgroundColor=none;" parent="my9TNGS3KLkWz0i3TgJQ-0" vertex="1">
          <mxGeometry x="40" y="30" width="40" height="25" as="geometry" />
        </mxCell>
        <mxCell id="my9TNGS3KLkWz0i3TgJQ-5" value="2" style="rounded=1;whiteSpace=wrap;html=1;sketch=0;points=[[0,0.5,0,0,0],[1,0.5,0,0,0]];fillColor=#1ba1e2;fontColor=#ffffff;strokeColor=#006EAF;arcSize=50;fontFamily=Helvetica;fontSize=11;labelBackgroundColor=none;" parent="my9TNGS3KLkWz0i3TgJQ-0" vertex="1">
          <mxGeometry x="40" y="60" width="40" height="25" as="geometry" />
        </mxCell>
        <mxCell id="my9TNGS3KLkWz0i3TgJQ-6" value="1then2" style="rounded=1;whiteSpace=wrap;html=1;sketch=0;container=1;recursiveResize=0;verticalAlign=top;arcSize=6;fontStyle=1;autosize=0;points=[];absoluteArcSize=1;shadow=1;strokeColor=#001DBC;fillColor=#DAE8FC;fontColor=#ffffff;gradientColor=#0050EF;fontFamily=Helvetica;fontSize=11;labelBackgroundColor=none;" parent="_zt3f1tPY_YbowR_woag-1" vertex="1">
          <mxGeometry x="220" y="320" width="70" height="100" as="geometry">
            <mxRectangle x="-98" y="-1230" width="99" height="26" as="alternateBounds" />
          </mxGeometry>
        </mxCell>
        <mxCell id="my9TNGS3KLkWz0i3TgJQ-7" value="2" style="rounded=1;whiteSpace=wrap;html=1;sketch=0;points=[[0,0.5,0,0,0],[1,0.5,0,0,0]];arcSize=50;fontFamily=Helvetica;fontSize=11;fontColor=default;labelBackgroundColor=none;" parent="my9TNGS3KLkWz0i3TgJQ-6" vertex="1">
          <mxGeometry x="-10" y="60" width="40" height="25" as="geometry" />
        </mxCell>
        <mxCell id="my9TNGS3KLkWz0i3TgJQ-8" value="1" style="rounded=1;whiteSpace=wrap;html=1;sketch=0;points=[[0,0.5,0,0,0],[1,0.5,0,0,0]];arcSize=50;fontFamily=Helvetica;fontSize=11;fontColor=default;labelBackgroundColor=none;" parent="my9TNGS3KLkWz0i3TgJQ-6" vertex="1">
          <mxGeometry x="-10" y="30" width="40" height="25" as="geometry" />
        </mxCell>
        <mxCell id="my9TNGS3KLkWz0i3TgJQ-9" value="1" style="rounded=1;whiteSpace=wrap;html=1;sketch=0;points=[[0,0.5,0,0,0],[1,0.5,0,0,0]];fillColor=#1ba1e2;fontColor=#ffffff;strokeColor=#006EAF;arcSize=50;fontFamily=Helvetica;fontSize=11;labelBackgroundColor=none;" parent="my9TNGS3KLkWz0i3TgJQ-6" vertex="1">
          <mxGeometry x="40" y="30" width="40" height="25" as="geometry" />
        </mxCell>
        <mxCell id="my9TNGS3KLkWz0i3TgJQ-10" value="2" style="rounded=1;whiteSpace=wrap;html=1;sketch=0;points=[[0,0.5,0,0,0],[1,0.5,0,0,0]];fillColor=#1ba1e2;fontColor=#ffffff;strokeColor=#006EAF;arcSize=50;fontFamily=Helvetica;fontSize=11;labelBackgroundColor=none;" parent="my9TNGS3KLkWz0i3TgJQ-6" vertex="1">
          <mxGeometry x="40" y="60" width="40" height="25" as="geometry" />
        </mxCell>
        <mxCell id="my9TNGS3KLkWz0i3TgJQ-11" style="edgeStyle=orthogonalEdgeStyle;shape=connector;curved=0;rounded=1;orthogonalLoop=1;jettySize=auto;html=1;exitX=1;exitY=0.5;exitDx=0;exitDy=0;exitPerimeter=0;entryX=0;entryY=0.5;entryDx=0;entryDy=0;entryPerimeter=0;strokeColor=default;strokeWidth=2;align=center;verticalAlign=middle;fontFamily=Helvetica;fontSize=11;fontColor=default;labelBackgroundColor=default;endArrow=classic;" parent="_zt3f1tPY_YbowR_woag-1" source="my9TNGS3KLkWz0i3TgJQ-10" target="my9TNGS3KLkWz0i3TgJQ-2" edge="1">
          <mxGeometry relative="1" as="geometry" />
        </mxCell>
        <mxCell id="my9TNGS3KLkWz0i3TgJQ-12" style="edgeStyle=orthogonalEdgeStyle;shape=connector;curved=0;rounded=1;orthogonalLoop=1;jettySize=auto;html=1;exitX=1;exitY=0.5;exitDx=0;exitDy=0;exitPerimeter=0;entryX=0;entryY=0.5;entryDx=0;entryDy=0;entryPerimeter=0;strokeColor=default;strokeWidth=2;align=center;verticalAlign=middle;fontFamily=Helvetica;fontSize=11;fontColor=default;labelBackgroundColor=default;endArrow=classic;" parent="_zt3f1tPY_YbowR_woag-1" source="my9TNGS3KLkWz0i3TgJQ-9" target="_zt3f1tPY_YbowR_woag-8" edge="1">
          <mxGeometry relative="1" as="geometry">
            <mxPoint x="503.25" y="360" as="targetPoint" />
          </mxGeometry>
        </mxCell>
        <mxCell id="my9TNGS3KLkWz0i3TgJQ-13" style="edgeStyle=orthogonalEdgeStyle;shape=connector;curved=0;rounded=1;orthogonalLoop=1;jettySize=auto;html=1;exitX=1;exitY=0.5;exitDx=0;exitDy=0;exitPerimeter=0;entryX=0;entryY=0.5;entryDx=0;entryDy=0;entryPerimeter=0;strokeColor=default;strokeWidth=2;align=center;verticalAlign=middle;fontFamily=Helvetica;fontSize=11;fontColor=default;labelBackgroundColor=default;endArrow=classic;" parent="_zt3f1tPY_YbowR_woag-1" source="my9TNGS3KLkWz0i3TgJQ-3" target="VMMyZQn9hTGhELiOO-MU-1" edge="1">
          <mxGeometry relative="1" as="geometry" />
        </mxCell>
        <mxCell id="my9TNGS3KLkWz0i3TgJQ-14" style="edgeStyle=orthogonalEdgeStyle;shape=connector;curved=0;rounded=1;orthogonalLoop=1;jettySize=auto;html=1;exitX=1;exitY=0.5;exitDx=0;exitDy=0;exitPerimeter=0;entryX=0;entryY=0.5;entryDx=0;entryDy=0;entryPerimeter=0;strokeColor=default;strokeWidth=2;align=center;verticalAlign=middle;fontFamily=Helvetica;fontSize=11;fontColor=default;labelBackgroundColor=default;endArrow=classic;" parent="_zt3f1tPY_YbowR_woag-1" source="my9TNGS3KLkWz0i3TgJQ-5" target="_zt3f1tPY_YbowR_woag-4" edge="1">
          <mxGeometry relative="1" as="geometry" />
        </mxCell>
        <mxCell id="my9TNGS3KLkWz0i3TgJQ-15" style="edgeStyle=orthogonalEdgeStyle;shape=connector;curved=0;rounded=1;orthogonalLoop=1;jettySize=auto;html=1;entryX=0;entryY=0.5;entryDx=0;entryDy=0;entryPerimeter=0;strokeColor=default;strokeWidth=2;align=center;verticalAlign=middle;fontFamily=Helvetica;fontSize=11;fontColor=default;labelBackgroundColor=default;endArrow=classic;" parent="_zt3f1tPY_YbowR_woag-1" source="_zt3f1tPY_YbowR_woag-2" target="my9TNGS3KLkWz0i3TgJQ-1" edge="1">
          <mxGeometry relative="1" as="geometry" />
        </mxCell>
        <mxCell id="my9TNGS3KLkWz0i3TgJQ-16" style="edgeStyle=orthogonalEdgeStyle;shape=connector;curved=0;rounded=1;orthogonalLoop=1;jettySize=auto;html=1;exitX=1;exitY=0.5;exitDx=0;exitDy=0;exitPerimeter=0;entryX=0;entryY=0.5;entryDx=0;entryDy=0;entryPerimeter=0;strokeColor=default;strokeWidth=2;align=center;verticalAlign=middle;fontFamily=Helvetica;fontSize=11;fontColor=default;labelBackgroundColor=default;endArrow=classic;" parent="_zt3f1tPY_YbowR_woag-1" source="_zt3f1tPY_YbowR_woag-2" target="my9TNGS3KLkWz0i3TgJQ-8" edge="1">
          <mxGeometry relative="1" as="geometry" />
        </mxCell>
        <mxCell id="my9TNGS3KLkWz0i3TgJQ-17" style="edgeStyle=orthogonalEdgeStyle;shape=connector;curved=0;rounded=1;orthogonalLoop=1;jettySize=auto;html=1;exitX=1;exitY=0.5;exitDx=0;exitDy=0;exitPerimeter=0;entryX=0;entryY=0.5;entryDx=0;entryDy=0;entryPerimeter=0;strokeColor=default;strokeWidth=2;align=center;verticalAlign=middle;fontFamily=Helvetica;fontSize=11;fontColor=default;labelBackgroundColor=default;endArrow=classic;" parent="_zt3f1tPY_YbowR_woag-1" source="_zt3f1tPY_YbowR_woag-2" target="my9TNGS3KLkWz0i3TgJQ-7" edge="1">
          <mxGeometry relative="1" as="geometry" />
        </mxCell>
      </root>
    </mxGraphModel>
  </diagram>
  <diagram name="seq3a" id="TsEE6MEeTRwDm9d91ZTD">
    <mxGraphModel dx="1100" dy="661" grid="1" gridSize="4" guides="1" tooltips="1" connect="1" arrows="1" fold="1" page="1" pageScale="1" pageWidth="1100" pageHeight="850" math="0" shadow="0">
      <root>
        <mxCell id="b5QN7oHuluKyTJzGZfwB-0" />
        <mxCell id="b5QN7oHuluKyTJzGZfwB-1" parent="b5QN7oHuluKyTJzGZfwB-0" />
        <mxCell id="b5QN7oHuluKyTJzGZfwB-2" value="" style="rhombus;rounded=1;fontStyle=1;glass=0;sketch=0;fontSize=12;points=[[0,0.5,0,0,0],[0.5,0,0,0,0],[0.5,1,0,0,0],[1,0.5,0,0,0]];shadow=1;fontFamily=Helvetica;fontColor=default;labelBackgroundColor=none;" parent="b5QN7oHuluKyTJzGZfwB-1" vertex="1">
          <mxGeometry x="40" y="128" width="40" height="40" as="geometry" />
        </mxCell>
        <mxCell id="b5QN7oHuluKyTJzGZfwB-3" value="Cruel" style="rounded=1;container=1;recursiveResize=0;verticalAlign=top;arcSize=6;fontStyle=1;autosize=0;points=[];absoluteArcSize=1;shadow=1;strokeColor=#6c8ebf;fillColor=#dae8fc;fontFamily=Helvetica;fontSize=11;gradientColor=#0050EF;fontColor=default;labelBackgroundColor=none;" parent="b5QN7oHuluKyTJzGZfwB-1" vertex="1">
          <mxGeometry x="600" y="180" width="138" height="100" as="geometry">
            <mxRectangle x="-98" y="-1230" width="99" height="26" as="alternateBounds" />
          </mxGeometry>
        </mxCell>
        <mxCell id="b5QN7oHuluKyTJzGZfwB-4" value="" style="rounded=1;sketch=0;points=[[0,0.5,0,0,0],[1,0.5,0,0,0]];arcSize=50;fontFamily=Helvetica;fontSize=11;fontColor=default;labelBackgroundColor=none;" parent="b5QN7oHuluKyTJzGZfwB-3" vertex="1">
          <mxGeometry x="-16.75" y="27.5" width="36.75" height="25" as="geometry" />
        </mxCell>
        <mxCell id="b5QN7oHuluKyTJzGZfwB-5" value="" style="rounded=1;sketch=0;points=[[0,0.5,0,0,0],[1,0.5,0,0,0]];fillColor=#1ba1e2;fontColor=#ffffff;strokeColor=#006EAF;arcSize=50;fontFamily=Helvetica;fontSize=11;labelBackgroundColor=none;" parent="b5QN7oHuluKyTJzGZfwB-3" vertex="1">
          <mxGeometry x="120" y="27.5" width="36" height="25" as="geometry" />
        </mxCell>
        <mxCell id="b5QN7oHuluKyTJzGZfwB-6" value="✗" style="rounded=1;sketch=0;points=[[0,0.5,0,0,0],[1,0.5,0,0,0]];fillColor=#1ba1e2;fontColor=#ffffff;strokeColor=#006EAF;arcSize=50;fontFamily=Helvetica;fontSize=11;textOpacity=30;labelBackgroundColor=none;" parent="b5QN7oHuluKyTJzGZfwB-3" vertex="1">
          <mxGeometry x="120" y="60" width="36" height="25" as="geometry" />
        </mxCell>
        <mxCell id="b5QN7oHuluKyTJzGZfwB-7" value="World" style="rounded=1;container=1;recursiveResize=0;verticalAlign=top;arcSize=6;fontStyle=1;autosize=0;points=[];absoluteArcSize=1;shadow=1;strokeColor=#6c8ebf;fillColor=#dae8fc;fontFamily=Helvetica;fontSize=11;gradientColor=#0050EF;fontColor=default;labelBackgroundColor=none;" parent="b5QN7oHuluKyTJzGZfwB-1" vertex="1">
          <mxGeometry x="600" y="320" width="138" height="100" as="geometry">
            <mxRectangle x="-98" y="-1230" width="99" height="26" as="alternateBounds" />
          </mxGeometry>
        </mxCell>
        <mxCell id="b5QN7oHuluKyTJzGZfwB-8" value="" style="rounded=1;sketch=0;points=[[0,0.5,0,0,0],[1,0.5,0,0,0]];arcSize=50;fontFamily=Helvetica;fontSize=11;fontColor=default;labelBackgroundColor=none;" parent="b5QN7oHuluKyTJzGZfwB-7" vertex="1">
          <mxGeometry x="-16.75" y="30" width="36.75" height="25" as="geometry" />
        </mxCell>
        <mxCell id="b5QN7oHuluKyTJzGZfwB-9" value="" style="rounded=1;sketch=0;points=[[0,0.5,0,0,0],[1,0.5,0,0,0]];fillColor=#1ba1e2;fontColor=#ffffff;strokeColor=#006EAF;arcSize=50;fontFamily=Helvetica;fontSize=11;labelBackgroundColor=none;" parent="b5QN7oHuluKyTJzGZfwB-7" vertex="1">
          <mxGeometry x="120" y="27.5" width="36" height="25" as="geometry" />
        </mxCell>
        <mxCell id="b5QN7oHuluKyTJzGZfwB-10" value="✗" style="rounded=1;sketch=0;points=[[0,0.5,0,0,0],[1,0.5,0,0,0]];fillColor=#1ba1e2;fontColor=#ffffff;strokeColor=#006EAF;arcSize=50;fontFamily=Helvetica;fontSize=11;textOpacity=30;labelBackgroundColor=none;" parent="b5QN7oHuluKyTJzGZfwB-7" vertex="1">
          <mxGeometry x="120" y="60" width="36" height="25" as="geometry" />
        </mxCell>
        <mxCell id="b5QN7oHuluKyTJzGZfwB-11" value="" style="rhombus;rounded=1;fontStyle=1;glass=0;sketch=0;fontSize=12;points=[[0,0.5,0,0,0],[0.5,0,0,0,0],[0.5,1,0,0,0],[1,0.5,0,0,0]];shadow=1;fillColor=#0050ef;fontColor=#ffffff;strokeColor=#001DBC;fontFamily=Helvetica;labelBackgroundColor=none;" parent="b5QN7oHuluKyTJzGZfwB-1" vertex="1">
          <mxGeometry x="880" y="260" width="40" height="40" as="geometry" />
        </mxCell>
        <mxCell id="b5QN7oHuluKyTJzGZfwB-12" value="✗" style="rhombus;whiteSpace=wrap;html=1;rounded=1;fillColor=#0050ef;fontColor=#ffffff;strokeColor=#001DBC;fontStyle=1;glass=0;sketch=0;fontSize=12;points=[[0,0.5,0,0,0],[0.5,0,0,0,0],[0.5,1,0,0,0],[1,0.5,0,0,0]];shadow=1;opacity=30;textOpacity=30;fontFamily=Helvetica;labelBackgroundColor=none;" parent="b5QN7oHuluKyTJzGZfwB-1" vertex="1">
          <mxGeometry x="880" y="440" width="40" height="40" as="geometry" />
        </mxCell>
        <mxCell id="b5QN7oHuluKyTJzGZfwB-13" value="" style="edgeStyle=orthogonalEdgeStyle;shape=connector;curved=0;rounded=1;orthogonalLoop=1;jettySize=auto;exitX=1;exitY=0.5;exitDx=0;exitDy=0;exitPerimeter=0;entryX=0;entryY=0.5;entryDx=0;entryDy=0;entryPerimeter=0;strokeColor=default;strokeWidth=2;align=center;verticalAlign=middle;fontFamily=Helvetica;fontSize=11;fontColor=default;labelBackgroundColor=default;endArrow=classic;" parent="b5QN7oHuluKyTJzGZfwB-1" source="b5QN7oHuluKyTJzGZfwB-5" target="b5QN7oHuluKyTJzGZfwB-11" edge="1">
          <mxGeometry relative="1" as="geometry" />
        </mxCell>
        <mxCell id="b5QN7oHuluKyTJzGZfwB-14" value="" style="edgeStyle=orthogonalEdgeStyle;shape=connector;curved=0;rounded=1;orthogonalLoop=1;jettySize=auto;exitX=1;exitY=0.5;exitDx=0;exitDy=0;exitPerimeter=0;entryX=0;entryY=0.5;entryDx=0;entryDy=0;entryPerimeter=0;strokeColor=default;strokeWidth=2;align=center;verticalAlign=middle;fontFamily=Helvetica;fontSize=11;fontColor=default;labelBackgroundColor=default;endArrow=classic;" parent="b5QN7oHuluKyTJzGZfwB-1" source="b5QN7oHuluKyTJzGZfwB-9" target="b5QN7oHuluKyTJzGZfwB-11" edge="1">
          <mxGeometry relative="1" as="geometry" />
        </mxCell>
        <mxCell id="b5QN7oHuluKyTJzGZfwB-15" value="" style="edgeStyle=orthogonalEdgeStyle;shape=connector;curved=0;rounded=1;orthogonalLoop=1;jettySize=auto;exitX=1;exitY=0.5;exitDx=0;exitDy=0;exitPerimeter=0;entryX=0;entryY=0.5;entryDx=0;entryDy=0;entryPerimeter=0;strokeColor=default;strokeWidth=1;align=center;verticalAlign=middle;fontFamily=Helvetica;fontSize=11;fontColor=default;labelBackgroundColor=default;endArrow=classic;dashed=1;dashPattern=1 4;opacity=20;" parent="b5QN7oHuluKyTJzGZfwB-1" source="b5QN7oHuluKyTJzGZfwB-6" target="b5QN7oHuluKyTJzGZfwB-12" edge="1">
          <mxGeometry relative="1" as="geometry">
            <Array as="points">
              <mxPoint x="780" y="253" />
              <mxPoint x="780" y="460" />
            </Array>
          </mxGeometry>
        </mxCell>
        <mxCell id="b5QN7oHuluKyTJzGZfwB-16" value="" style="edgeStyle=orthogonalEdgeStyle;shape=connector;curved=0;rounded=1;orthogonalLoop=1;jettySize=auto;exitX=1;exitY=0.5;exitDx=0;exitDy=0;exitPerimeter=0;entryX=0;entryY=0.5;entryDx=0;entryDy=0;entryPerimeter=0;strokeColor=default;strokeWidth=1;align=center;verticalAlign=middle;fontFamily=Helvetica;fontSize=11;fontColor=default;labelBackgroundColor=default;endArrow=classic;dashed=1;dashPattern=1 4;opacity=20;" parent="b5QN7oHuluKyTJzGZfwB-1" source="b5QN7oHuluKyTJzGZfwB-10" target="b5QN7oHuluKyTJzGZfwB-12" edge="1">
          <mxGeometry relative="1" as="geometry">
            <Array as="points">
              <mxPoint x="780" y="393" />
              <mxPoint x="780" y="460" />
            </Array>
          </mxGeometry>
        </mxCell>
        <mxCell id="b5QN7oHuluKyTJzGZfwB-17" value="Hello" style="rounded=1;container=1;recursiveResize=0;verticalAlign=top;arcSize=6;fontStyle=1;autosize=0;points=[];absoluteArcSize=1;shadow=1;strokeColor=#6c8ebf;fillColor=#dae8fc;fontFamily=Helvetica;fontSize=11;gradientColor=#0050EF;fontColor=default;labelBackgroundColor=none;" parent="b5QN7oHuluKyTJzGZfwB-1" vertex="1">
          <mxGeometry x="600" y="40" width="138" height="100" as="geometry">
            <mxRectangle x="-98" y="-1230" width="99" height="26" as="alternateBounds" />
          </mxGeometry>
        </mxCell>
        <mxCell id="b5QN7oHuluKyTJzGZfwB-18" value="" style="rounded=1;sketch=0;points=[[0,0.5,0,0,0],[1,0.5,0,0,0]];arcSize=50;fontFamily=Helvetica;fontSize=11;fontColor=default;labelBackgroundColor=none;" parent="b5QN7oHuluKyTJzGZfwB-17" vertex="1">
          <mxGeometry x="-16.75" y="27.5" width="36.75" height="25" as="geometry" />
        </mxCell>
        <mxCell id="b5QN7oHuluKyTJzGZfwB-19" value="" style="rounded=1;sketch=0;points=[[0,0.5,0,0,0],[1,0.5,0,0,0]];fillColor=#1ba1e2;fontColor=#ffffff;strokeColor=#006EAF;arcSize=50;fontFamily=Helvetica;fontSize=11;labelBackgroundColor=none;" parent="b5QN7oHuluKyTJzGZfwB-17" vertex="1">
          <mxGeometry x="120" y="27.5" width="36" height="25" as="geometry" />
        </mxCell>
        <mxCell id="b5QN7oHuluKyTJzGZfwB-20" value="✗" style="rounded=1;sketch=0;points=[[0,0.5,0,0,0],[1,0.5,0,0,0]];fillColor=#1ba1e2;fontColor=#ffffff;strokeColor=#006EAF;arcSize=50;fontFamily=Helvetica;fontSize=11;textOpacity=30;labelBackgroundColor=none;" parent="b5QN7oHuluKyTJzGZfwB-17" vertex="1">
          <mxGeometry x="120" y="60" width="36" height="25" as="geometry" />
        </mxCell>
        <mxCell id="b5QN7oHuluKyTJzGZfwB-21" style="edgeStyle=orthogonalEdgeStyle;shape=connector;curved=0;rounded=1;orthogonalLoop=1;jettySize=auto;html=1;exitX=1;exitY=0.5;exitDx=0;exitDy=0;exitPerimeter=0;entryX=0;entryY=0.5;entryDx=0;entryDy=0;entryPerimeter=0;strokeColor=default;strokeWidth=2;align=center;verticalAlign=middle;fontFamily=Helvetica;fontSize=11;fontColor=default;labelBackgroundColor=default;endArrow=classic;" parent="b5QN7oHuluKyTJzGZfwB-1" source="b5QN7oHuluKyTJzGZfwB-19" target="b5QN7oHuluKyTJzGZfwB-11" edge="1">
          <mxGeometry relative="1" as="geometry" />
        </mxCell>
        <mxCell id="b5QN7oHuluKyTJzGZfwB-22" style="edgeStyle=orthogonalEdgeStyle;shape=connector;curved=0;rounded=1;orthogonalLoop=1;jettySize=auto;html=1;exitX=1;exitY=0.5;exitDx=0;exitDy=0;exitPerimeter=0;entryX=0;entryY=0.5;entryDx=0;entryDy=0;entryPerimeter=0;strokeColor=default;strokeWidth=1;align=center;verticalAlign=middle;fontFamily=Helvetica;fontSize=11;fontColor=default;labelBackgroundColor=default;endArrow=classic;dashed=1;opacity=20;" parent="b5QN7oHuluKyTJzGZfwB-1" source="b5QN7oHuluKyTJzGZfwB-20" target="b5QN7oHuluKyTJzGZfwB-12" edge="1">
          <mxGeometry relative="1" as="geometry">
            <Array as="points">
              <mxPoint x="780" y="113" />
              <mxPoint x="780" y="460" />
            </Array>
          </mxGeometry>
        </mxCell>
        <mxCell id="b5QN7oHuluKyTJzGZfwB-23" value="1then2" style="rounded=1;whiteSpace=wrap;html=1;sketch=0;container=1;recursiveResize=0;verticalAlign=top;arcSize=6;fontStyle=1;autosize=0;points=[];absoluteArcSize=1;shadow=1;strokeColor=#001DBC;fillColor=#DAE8FC;fontColor=#ffffff;gradientColor=#0050EF;fontFamily=Helvetica;fontSize=11;labelBackgroundColor=none;" parent="b5QN7oHuluKyTJzGZfwB-1" vertex="1">
          <mxGeometry x="200" y="90" width="70" height="100" as="geometry">
            <mxRectangle x="-98" y="-1230" width="99" height="26" as="alternateBounds" />
          </mxGeometry>
        </mxCell>
        <mxCell id="b5QN7oHuluKyTJzGZfwB-24" value="2" style="rounded=1;whiteSpace=wrap;html=1;sketch=0;points=[[0,0.5,0,0,0],[1,0.5,0,0,0]];arcSize=50;fontFamily=Helvetica;fontSize=11;fontColor=default;labelBackgroundColor=none;" parent="b5QN7oHuluKyTJzGZfwB-23" vertex="1">
          <mxGeometry x="-10" y="60" width="40" height="25" as="geometry" />
        </mxCell>
        <mxCell id="b5QN7oHuluKyTJzGZfwB-25" value="1" style="rounded=1;whiteSpace=wrap;html=1;sketch=0;points=[[0,0.5,0,0,0],[1,0.5,0,0,0]];arcSize=50;fontFamily=Helvetica;fontSize=11;fontColor=default;labelBackgroundColor=none;" parent="b5QN7oHuluKyTJzGZfwB-23" vertex="1">
          <mxGeometry x="-10" y="30" width="40" height="25" as="geometry" />
        </mxCell>
        <mxCell id="b5QN7oHuluKyTJzGZfwB-26" value="1" style="rounded=1;whiteSpace=wrap;html=1;sketch=0;points=[[0,0.5,0,0,0],[1,0.5,0,0,0]];fillColor=#1ba1e2;fontColor=#ffffff;strokeColor=#006EAF;arcSize=50;fontFamily=Helvetica;fontSize=11;labelBackgroundColor=none;" parent="b5QN7oHuluKyTJzGZfwB-23" vertex="1">
          <mxGeometry x="40" y="30" width="40" height="25" as="geometry" />
        </mxCell>
        <mxCell id="b5QN7oHuluKyTJzGZfwB-27" value="2" style="rounded=1;whiteSpace=wrap;html=1;sketch=0;points=[[0,0.5,0,0,0],[1,0.5,0,0,0]];fillColor=#1ba1e2;fontColor=#ffffff;strokeColor=#006EAF;arcSize=50;fontFamily=Helvetica;fontSize=11;labelBackgroundColor=none;" parent="b5QN7oHuluKyTJzGZfwB-23" vertex="1">
          <mxGeometry x="40" y="60" width="40" height="25" as="geometry" />
        </mxCell>
        <mxCell id="b5QN7oHuluKyTJzGZfwB-28" value="1then2" style="rounded=1;whiteSpace=wrap;html=1;sketch=0;container=1;recursiveResize=0;verticalAlign=top;arcSize=6;fontStyle=1;autosize=0;points=[];absoluteArcSize=1;shadow=1;strokeColor=#001DBC;fillColor=#DAE8FC;fontColor=#ffffff;gradientColor=#0050EF;fontFamily=Helvetica;fontSize=11;labelBackgroundColor=none;" parent="b5QN7oHuluKyTJzGZfwB-1" vertex="1">
          <mxGeometry x="392" y="232" width="70" height="100" as="geometry">
            <mxRectangle x="-98" y="-1230" width="99" height="26" as="alternateBounds" />
          </mxGeometry>
        </mxCell>
        <mxCell id="b5QN7oHuluKyTJzGZfwB-29" value="2" style="rounded=1;whiteSpace=wrap;html=1;sketch=0;points=[[0,0.5,0,0,0],[1,0.5,0,0,0]];arcSize=50;fontFamily=Helvetica;fontSize=11;fontColor=default;labelBackgroundColor=none;" parent="b5QN7oHuluKyTJzGZfwB-28" vertex="1">
          <mxGeometry x="-10" y="60" width="40" height="25" as="geometry" />
        </mxCell>
        <mxCell id="b5QN7oHuluKyTJzGZfwB-30" value="1" style="rounded=1;whiteSpace=wrap;html=1;sketch=0;points=[[0,0.5,0,0,0],[1,0.5,0,0,0]];arcSize=50;fontFamily=Helvetica;fontSize=11;fontColor=default;labelBackgroundColor=none;" parent="b5QN7oHuluKyTJzGZfwB-28" vertex="1">
          <mxGeometry x="-10" y="30" width="40" height="25" as="geometry" />
        </mxCell>
        <mxCell id="b5QN7oHuluKyTJzGZfwB-31" value="1" style="rounded=1;whiteSpace=wrap;html=1;sketch=0;points=[[0,0.5,0,0,0],[1,0.5,0,0,0]];fillColor=#1ba1e2;fontColor=#ffffff;strokeColor=#006EAF;arcSize=50;fontFamily=Helvetica;fontSize=11;labelBackgroundColor=none;" parent="b5QN7oHuluKyTJzGZfwB-28" vertex="1">
          <mxGeometry x="40" y="30" width="40" height="25" as="geometry" />
        </mxCell>
        <mxCell id="b5QN7oHuluKyTJzGZfwB-32" value="2" style="rounded=1;whiteSpace=wrap;html=1;sketch=0;points=[[0,0.5,0,0,0],[1,0.5,0,0,0]];fillColor=#1ba1e2;fontColor=#ffffff;strokeColor=#006EAF;arcSize=50;fontFamily=Helvetica;fontSize=11;labelBackgroundColor=none;" parent="b5QN7oHuluKyTJzGZfwB-28" vertex="1">
          <mxGeometry x="40" y="60" width="40" height="25" as="geometry" />
        </mxCell>
        <mxCell id="b5QN7oHuluKyTJzGZfwB-34" style="edgeStyle=orthogonalEdgeStyle;shape=connector;curved=0;rounded=1;orthogonalLoop=1;jettySize=auto;html=1;exitX=1;exitY=0.5;exitDx=0;exitDy=0;exitPerimeter=0;entryX=0;entryY=0.5;entryDx=0;entryDy=0;entryPerimeter=0;strokeColor=default;strokeWidth=2;align=center;verticalAlign=middle;fontFamily=Helvetica;fontSize=11;fontColor=default;labelBackgroundColor=default;endArrow=classic;" parent="b5QN7oHuluKyTJzGZfwB-1" source="b5QN7oHuluKyTJzGZfwB-32" target="b5QN7oHuluKyTJzGZfwB-8" edge="1">
          <mxGeometry relative="1" as="geometry">
            <mxPoint x="503.25" y="360" as="targetPoint" />
          </mxGeometry>
        </mxCell>
        <mxCell id="b5QN7oHuluKyTJzGZfwB-35" style="edgeStyle=orthogonalEdgeStyle;shape=connector;curved=0;rounded=1;orthogonalLoop=1;jettySize=auto;html=1;exitX=1;exitY=0.5;exitDx=0;exitDy=0;exitPerimeter=0;entryX=0;entryY=0.5;entryDx=0;entryDy=0;entryPerimeter=0;strokeColor=default;strokeWidth=2;align=center;verticalAlign=middle;fontFamily=Helvetica;fontSize=11;fontColor=default;labelBackgroundColor=default;endArrow=classic;" parent="b5QN7oHuluKyTJzGZfwB-1" source="b5QN7oHuluKyTJzGZfwB-26" target="b5QN7oHuluKyTJzGZfwB-18" edge="1">
          <mxGeometry relative="1" as="geometry" />
        </mxCell>
        <mxCell id="b5QN7oHuluKyTJzGZfwB-36" style="edgeStyle=orthogonalEdgeStyle;shape=connector;curved=0;rounded=1;orthogonalLoop=1;jettySize=auto;html=1;exitX=1;exitY=0.5;exitDx=0;exitDy=0;exitPerimeter=0;entryX=0;entryY=0.5;entryDx=0;entryDy=0;entryPerimeter=0;strokeColor=default;strokeWidth=2;align=center;verticalAlign=middle;fontFamily=Helvetica;fontSize=11;fontColor=default;labelBackgroundColor=default;endArrow=classic;" parent="b5QN7oHuluKyTJzGZfwB-1" source="b5QN7oHuluKyTJzGZfwB-31" target="b5QN7oHuluKyTJzGZfwB-4" edge="1">
          <mxGeometry relative="1" as="geometry" />
        </mxCell>
        <mxCell id="b5QN7oHuluKyTJzGZfwB-37" style="edgeStyle=orthogonalEdgeStyle;shape=connector;curved=0;rounded=1;orthogonalLoop=1;jettySize=auto;html=1;entryX=0;entryY=0.5;entryDx=0;entryDy=0;entryPerimeter=0;strokeColor=default;strokeWidth=2;align=center;verticalAlign=middle;fontFamily=Helvetica;fontSize=11;fontColor=default;labelBackgroundColor=default;endArrow=classic;" parent="b5QN7oHuluKyTJzGZfwB-1" source="b5QN7oHuluKyTJzGZfwB-2" target="b5QN7oHuluKyTJzGZfwB-25" edge="1">
          <mxGeometry relative="1" as="geometry" />
        </mxCell>
        <mxCell id="b5QN7oHuluKyTJzGZfwB-38" style="edgeStyle=orthogonalEdgeStyle;shape=connector;curved=0;rounded=1;orthogonalLoop=1;jettySize=auto;html=1;exitX=1;exitY=0.5;exitDx=0;exitDy=0;exitPerimeter=0;entryX=0;entryY=0.5;entryDx=0;entryDy=0;entryPerimeter=0;strokeColor=default;strokeWidth=2;align=center;verticalAlign=middle;fontFamily=Helvetica;fontSize=11;fontColor=default;labelBackgroundColor=default;endArrow=classic;" parent="b5QN7oHuluKyTJzGZfwB-1" source="b5QN7oHuluKyTJzGZfwB-2" target="b5QN7oHuluKyTJzGZfwB-24" edge="1">
          <mxGeometry relative="1" as="geometry" />
        </mxCell>
        <mxCell id="5fv233LYuwCXgVqpoHh4-0" style="edgeStyle=orthogonalEdgeStyle;rounded=1;orthogonalLoop=1;jettySize=auto;html=1;exitX=1;exitY=0.5;exitDx=0;exitDy=0;exitPerimeter=0;entryX=0;entryY=0.5;entryDx=0;entryDy=0;entryPerimeter=0;curved=0;strokeWidth=2;" edge="1" parent="b5QN7oHuluKyTJzGZfwB-1" source="b5QN7oHuluKyTJzGZfwB-2" target="b5QN7oHuluKyTJzGZfwB-29">
          <mxGeometry relative="1" as="geometry">
            <Array as="points">
              <mxPoint x="136" y="148" />
              <mxPoint x="136" y="304" />
            </Array>
          </mxGeometry>
        </mxCell>
        <mxCell id="5fv233LYuwCXgVqpoHh4-1" style="edgeStyle=orthogonalEdgeStyle;shape=connector;curved=0;rounded=1;orthogonalLoop=1;jettySize=auto;html=1;exitX=1;exitY=0.5;exitDx=0;exitDy=0;exitPerimeter=0;entryX=0;entryY=0.5;entryDx=0;entryDy=0;entryPerimeter=0;strokeColor=default;strokeWidth=2;align=center;verticalAlign=middle;fontFamily=Helvetica;fontSize=11;fontColor=default;labelBackgroundColor=default;endArrow=classic;" edge="1" parent="b5QN7oHuluKyTJzGZfwB-1" source="b5QN7oHuluKyTJzGZfwB-27" target="b5QN7oHuluKyTJzGZfwB-30">
          <mxGeometry relative="1" as="geometry" />
        </mxCell>
      </root>
    </mxGraphModel>
  </diagram>
  <diagram name="seq3b" id="zBbLWRyQSTgTKYXiVuNy">
    <mxGraphModel dx="1100" dy="661" grid="1" gridSize="4" guides="1" tooltips="1" connect="1" arrows="1" fold="1" page="1" pageScale="1" pageWidth="1100" pageHeight="850" math="0" shadow="0">
      <root>
        <mxCell id="1OO3OjP8roBSX_PP4mbD-0" />
        <mxCell id="1OO3OjP8roBSX_PP4mbD-1" parent="1OO3OjP8roBSX_PP4mbD-0" />
        <mxCell id="1OO3OjP8roBSX_PP4mbD-2" value="" style="rhombus;rounded=1;fontStyle=1;glass=0;sketch=0;fontSize=12;points=[[0,0.5,0,0,0],[0.5,0,0,0,0],[0.5,1,0,0,0],[1,0.5,0,0,0]];shadow=1;fontFamily=Helvetica;fontColor=default;labelBackgroundColor=none;" vertex="1" parent="1OO3OjP8roBSX_PP4mbD-1">
          <mxGeometry x="40" y="128" width="40" height="40" as="geometry" />
        </mxCell>
        <mxCell id="1OO3OjP8roBSX_PP4mbD-3" value="Cruel" style="rounded=1;container=1;recursiveResize=0;verticalAlign=top;arcSize=6;fontStyle=1;autosize=0;points=[];absoluteArcSize=1;shadow=1;strokeColor=#6c8ebf;fillColor=#dae8fc;fontFamily=Helvetica;fontSize=11;gradientColor=#0050EF;fontColor=default;labelBackgroundColor=none;" vertex="1" parent="1OO3OjP8roBSX_PP4mbD-1">
          <mxGeometry x="600" y="180" width="138" height="100" as="geometry">
            <mxRectangle x="-98" y="-1230" width="99" height="26" as="alternateBounds" />
          </mxGeometry>
        </mxCell>
        <mxCell id="1OO3OjP8roBSX_PP4mbD-4" value="" style="rounded=1;sketch=0;points=[[0,0.5,0,0,0],[1,0.5,0,0,0]];arcSize=50;fontFamily=Helvetica;fontSize=11;fontColor=default;labelBackgroundColor=none;" vertex="1" parent="1OO3OjP8roBSX_PP4mbD-3">
          <mxGeometry x="-16.75" y="27.5" width="36.75" height="25" as="geometry" />
        </mxCell>
        <mxCell id="1OO3OjP8roBSX_PP4mbD-5" value="" style="rounded=1;sketch=0;points=[[0,0.5,0,0,0],[1,0.5,0,0,0]];fillColor=#1ba1e2;fontColor=#ffffff;strokeColor=#006EAF;arcSize=50;fontFamily=Helvetica;fontSize=11;labelBackgroundColor=none;" vertex="1" parent="1OO3OjP8roBSX_PP4mbD-3">
          <mxGeometry x="120" y="27.5" width="36" height="25" as="geometry" />
        </mxCell>
        <mxCell id="1OO3OjP8roBSX_PP4mbD-6" value="✗" style="rounded=1;sketch=0;points=[[0,0.5,0,0,0],[1,0.5,0,0,0]];fillColor=#1ba1e2;fontColor=#ffffff;strokeColor=#006EAF;arcSize=50;fontFamily=Helvetica;fontSize=11;textOpacity=30;labelBackgroundColor=none;" vertex="1" parent="1OO3OjP8roBSX_PP4mbD-3">
          <mxGeometry x="120" y="60" width="36" height="25" as="geometry" />
        </mxCell>
        <mxCell id="1OO3OjP8roBSX_PP4mbD-7" value="World" style="rounded=1;container=1;recursiveResize=0;verticalAlign=top;arcSize=6;fontStyle=1;autosize=0;points=[];absoluteArcSize=1;shadow=1;strokeColor=#6c8ebf;fillColor=#dae8fc;fontFamily=Helvetica;fontSize=11;gradientColor=#0050EF;fontColor=default;labelBackgroundColor=none;" vertex="1" parent="1OO3OjP8roBSX_PP4mbD-1">
          <mxGeometry x="600" y="320" width="138" height="100" as="geometry">
            <mxRectangle x="-98" y="-1230" width="99" height="26" as="alternateBounds" />
          </mxGeometry>
        </mxCell>
        <mxCell id="1OO3OjP8roBSX_PP4mbD-8" value="" style="rounded=1;sketch=0;points=[[0,0.5,0,0,0],[1,0.5,0,0,0]];arcSize=50;fontFamily=Helvetica;fontSize=11;fontColor=default;labelBackgroundColor=none;" vertex="1" parent="1OO3OjP8roBSX_PP4mbD-7">
          <mxGeometry x="-16.75" y="30" width="36.75" height="25" as="geometry" />
        </mxCell>
        <mxCell id="1OO3OjP8roBSX_PP4mbD-9" value="" style="rounded=1;sketch=0;points=[[0,0.5,0,0,0],[1,0.5,0,0,0]];fillColor=#1ba1e2;fontColor=#ffffff;strokeColor=#006EAF;arcSize=50;fontFamily=Helvetica;fontSize=11;labelBackgroundColor=none;" vertex="1" parent="1OO3OjP8roBSX_PP4mbD-7">
          <mxGeometry x="120" y="27.5" width="36" height="25" as="geometry" />
        </mxCell>
        <mxCell id="1OO3OjP8roBSX_PP4mbD-10" value="✗" style="rounded=1;sketch=0;points=[[0,0.5,0,0,0],[1,0.5,0,0,0]];fillColor=#1ba1e2;fontColor=#ffffff;strokeColor=#006EAF;arcSize=50;fontFamily=Helvetica;fontSize=11;textOpacity=30;labelBackgroundColor=none;" vertex="1" parent="1OO3OjP8roBSX_PP4mbD-7">
          <mxGeometry x="120" y="60" width="36" height="25" as="geometry" />
        </mxCell>
        <mxCell id="1OO3OjP8roBSX_PP4mbD-11" value="" style="rhombus;rounded=1;fontStyle=1;glass=0;sketch=0;fontSize=12;points=[[0,0.5,0,0,0],[0.5,0,0,0,0],[0.5,1,0,0,0],[1,0.5,0,0,0]];shadow=1;fillColor=#0050ef;fontColor=#ffffff;strokeColor=#001DBC;fontFamily=Helvetica;labelBackgroundColor=none;" vertex="1" parent="1OO3OjP8roBSX_PP4mbD-1">
          <mxGeometry x="880" y="260" width="40" height="40" as="geometry" />
        </mxCell>
        <mxCell id="1OO3OjP8roBSX_PP4mbD-12" value="✗" style="rhombus;whiteSpace=wrap;html=1;rounded=1;fillColor=#0050ef;fontColor=#ffffff;strokeColor=#001DBC;fontStyle=1;glass=0;sketch=0;fontSize=12;points=[[0,0.5,0,0,0],[0.5,0,0,0,0],[0.5,1,0,0,0],[1,0.5,0,0,0]];shadow=1;opacity=30;textOpacity=30;fontFamily=Helvetica;labelBackgroundColor=none;" vertex="1" parent="1OO3OjP8roBSX_PP4mbD-1">
          <mxGeometry x="880" y="440" width="40" height="40" as="geometry" />
        </mxCell>
        <mxCell id="1OO3OjP8roBSX_PP4mbD-13" value="" style="edgeStyle=orthogonalEdgeStyle;shape=connector;curved=0;rounded=1;orthogonalLoop=1;jettySize=auto;exitX=1;exitY=0.5;exitDx=0;exitDy=0;exitPerimeter=0;entryX=0;entryY=0.5;entryDx=0;entryDy=0;entryPerimeter=0;strokeColor=default;strokeWidth=2;align=center;verticalAlign=middle;fontFamily=Helvetica;fontSize=11;fontColor=default;labelBackgroundColor=default;endArrow=classic;" edge="1" parent="1OO3OjP8roBSX_PP4mbD-1" source="1OO3OjP8roBSX_PP4mbD-5" target="1OO3OjP8roBSX_PP4mbD-11">
          <mxGeometry relative="1" as="geometry" />
        </mxCell>
        <mxCell id="1OO3OjP8roBSX_PP4mbD-14" value="" style="edgeStyle=orthogonalEdgeStyle;shape=connector;curved=0;rounded=1;orthogonalLoop=1;jettySize=auto;exitX=1;exitY=0.5;exitDx=0;exitDy=0;exitPerimeter=0;entryX=0;entryY=0.5;entryDx=0;entryDy=0;entryPerimeter=0;strokeColor=default;strokeWidth=2;align=center;verticalAlign=middle;fontFamily=Helvetica;fontSize=11;fontColor=default;labelBackgroundColor=default;endArrow=classic;" edge="1" parent="1OO3OjP8roBSX_PP4mbD-1" source="1OO3OjP8roBSX_PP4mbD-9" target="1OO3OjP8roBSX_PP4mbD-11">
          <mxGeometry relative="1" as="geometry" />
        </mxCell>
        <mxCell id="1OO3OjP8roBSX_PP4mbD-15" value="" style="edgeStyle=orthogonalEdgeStyle;shape=connector;curved=0;rounded=1;orthogonalLoop=1;jettySize=auto;exitX=1;exitY=0.5;exitDx=0;exitDy=0;exitPerimeter=0;entryX=0;entryY=0.5;entryDx=0;entryDy=0;entryPerimeter=0;strokeColor=default;strokeWidth=1;align=center;verticalAlign=middle;fontFamily=Helvetica;fontSize=11;fontColor=default;labelBackgroundColor=default;endArrow=classic;dashed=1;dashPattern=1 4;opacity=20;" edge="1" parent="1OO3OjP8roBSX_PP4mbD-1" source="1OO3OjP8roBSX_PP4mbD-6" target="1OO3OjP8roBSX_PP4mbD-12">
          <mxGeometry relative="1" as="geometry">
            <Array as="points">
              <mxPoint x="780" y="253" />
              <mxPoint x="780" y="460" />
            </Array>
          </mxGeometry>
        </mxCell>
        <mxCell id="1OO3OjP8roBSX_PP4mbD-16" value="" style="edgeStyle=orthogonalEdgeStyle;shape=connector;curved=0;rounded=1;orthogonalLoop=1;jettySize=auto;exitX=1;exitY=0.5;exitDx=0;exitDy=0;exitPerimeter=0;entryX=0;entryY=0.5;entryDx=0;entryDy=0;entryPerimeter=0;strokeColor=default;strokeWidth=1;align=center;verticalAlign=middle;fontFamily=Helvetica;fontSize=11;fontColor=default;labelBackgroundColor=default;endArrow=classic;dashed=1;dashPattern=1 4;opacity=20;" edge="1" parent="1OO3OjP8roBSX_PP4mbD-1" source="1OO3OjP8roBSX_PP4mbD-10" target="1OO3OjP8roBSX_PP4mbD-12">
          <mxGeometry relative="1" as="geometry">
            <Array as="points">
              <mxPoint x="780" y="393" />
              <mxPoint x="780" y="460" />
            </Array>
          </mxGeometry>
        </mxCell>
        <mxCell id="1OO3OjP8roBSX_PP4mbD-17" value="Hello" style="rounded=1;container=1;recursiveResize=0;verticalAlign=top;arcSize=6;fontStyle=1;autosize=0;points=[];absoluteArcSize=1;shadow=1;strokeColor=#6c8ebf;fillColor=#dae8fc;fontFamily=Helvetica;fontSize=11;gradientColor=#0050EF;fontColor=default;labelBackgroundColor=none;" vertex="1" parent="1OO3OjP8roBSX_PP4mbD-1">
          <mxGeometry x="600" y="40" width="138" height="100" as="geometry">
            <mxRectangle x="-98" y="-1230" width="99" height="26" as="alternateBounds" />
          </mxGeometry>
        </mxCell>
        <mxCell id="1OO3OjP8roBSX_PP4mbD-18" value="" style="rounded=1;sketch=0;points=[[0,0.5,0,0,0],[1,0.5,0,0,0]];arcSize=50;fontFamily=Helvetica;fontSize=11;fontColor=default;labelBackgroundColor=none;" vertex="1" parent="1OO3OjP8roBSX_PP4mbD-17">
          <mxGeometry x="-16.75" y="27.5" width="36.75" height="25" as="geometry" />
        </mxCell>
        <mxCell id="1OO3OjP8roBSX_PP4mbD-19" value="" style="rounded=1;sketch=0;points=[[0,0.5,0,0,0],[1,0.5,0,0,0]];fillColor=#1ba1e2;fontColor=#ffffff;strokeColor=#006EAF;arcSize=50;fontFamily=Helvetica;fontSize=11;labelBackgroundColor=none;" vertex="1" parent="1OO3OjP8roBSX_PP4mbD-17">
          <mxGeometry x="120" y="27.5" width="36" height="25" as="geometry" />
        </mxCell>
        <mxCell id="1OO3OjP8roBSX_PP4mbD-20" value="✗" style="rounded=1;sketch=0;points=[[0,0.5,0,0,0],[1,0.5,0,0,0]];fillColor=#1ba1e2;fontColor=#ffffff;strokeColor=#006EAF;arcSize=50;fontFamily=Helvetica;fontSize=11;textOpacity=30;labelBackgroundColor=none;" vertex="1" parent="1OO3OjP8roBSX_PP4mbD-17">
          <mxGeometry x="120" y="60" width="36" height="25" as="geometry" />
        </mxCell>
        <mxCell id="1OO3OjP8roBSX_PP4mbD-21" style="edgeStyle=orthogonalEdgeStyle;shape=connector;curved=0;rounded=1;orthogonalLoop=1;jettySize=auto;html=1;exitX=1;exitY=0.5;exitDx=0;exitDy=0;exitPerimeter=0;entryX=0;entryY=0.5;entryDx=0;entryDy=0;entryPerimeter=0;strokeColor=default;strokeWidth=2;align=center;verticalAlign=middle;fontFamily=Helvetica;fontSize=11;fontColor=default;labelBackgroundColor=default;endArrow=classic;" edge="1" parent="1OO3OjP8roBSX_PP4mbD-1" source="1OO3OjP8roBSX_PP4mbD-19" target="1OO3OjP8roBSX_PP4mbD-11">
          <mxGeometry relative="1" as="geometry" />
        </mxCell>
        <mxCell id="1OO3OjP8roBSX_PP4mbD-22" style="edgeStyle=orthogonalEdgeStyle;shape=connector;curved=0;rounded=1;orthogonalLoop=1;jettySize=auto;html=1;exitX=1;exitY=0.5;exitDx=0;exitDy=0;exitPerimeter=0;entryX=0;entryY=0.5;entryDx=0;entryDy=0;entryPerimeter=0;strokeColor=default;strokeWidth=1;align=center;verticalAlign=middle;fontFamily=Helvetica;fontSize=11;fontColor=default;labelBackgroundColor=default;endArrow=classic;dashed=1;opacity=20;" edge="1" parent="1OO3OjP8roBSX_PP4mbD-1" source="1OO3OjP8roBSX_PP4mbD-20" target="1OO3OjP8roBSX_PP4mbD-12">
          <mxGeometry relative="1" as="geometry">
            <Array as="points">
              <mxPoint x="780" y="113" />
              <mxPoint x="780" y="460" />
            </Array>
          </mxGeometry>
        </mxCell>
        <mxCell id="1OO3OjP8roBSX_PP4mbD-23" value="1then2" style="rounded=1;whiteSpace=wrap;html=1;sketch=0;container=1;recursiveResize=0;verticalAlign=top;arcSize=6;fontStyle=1;autosize=0;points=[];absoluteArcSize=1;shadow=1;strokeColor=#001DBC;fillColor=#DAE8FC;fontColor=#ffffff;gradientColor=#0050EF;fontFamily=Helvetica;fontSize=11;labelBackgroundColor=none;" vertex="1" parent="1OO3OjP8roBSX_PP4mbD-1">
          <mxGeometry x="200" y="90" width="70" height="100" as="geometry">
            <mxRectangle x="-98" y="-1230" width="99" height="26" as="alternateBounds" />
          </mxGeometry>
        </mxCell>
        <mxCell id="1OO3OjP8roBSX_PP4mbD-24" value="2" style="rounded=1;whiteSpace=wrap;html=1;sketch=0;points=[[0,0.5,0,0,0],[1,0.5,0,0,0]];arcSize=50;fontFamily=Helvetica;fontSize=11;fontColor=default;labelBackgroundColor=none;" vertex="1" parent="1OO3OjP8roBSX_PP4mbD-23">
          <mxGeometry x="-10" y="60" width="40" height="25" as="geometry" />
        </mxCell>
        <mxCell id="1OO3OjP8roBSX_PP4mbD-25" value="1" style="rounded=1;whiteSpace=wrap;html=1;sketch=0;points=[[0,0.5,0,0,0],[1,0.5,0,0,0]];arcSize=50;fontFamily=Helvetica;fontSize=11;fontColor=default;labelBackgroundColor=none;" vertex="1" parent="1OO3OjP8roBSX_PP4mbD-23">
          <mxGeometry x="-10" y="30" width="40" height="25" as="geometry" />
        </mxCell>
        <mxCell id="1OO3OjP8roBSX_PP4mbD-26" value="1" style="rounded=1;whiteSpace=wrap;html=1;sketch=0;points=[[0,0.5,0,0,0],[1,0.5,0,0,0]];fillColor=#1ba1e2;fontColor=#ffffff;strokeColor=#006EAF;arcSize=50;fontFamily=Helvetica;fontSize=11;labelBackgroundColor=none;" vertex="1" parent="1OO3OjP8roBSX_PP4mbD-23">
          <mxGeometry x="40" y="30" width="40" height="25" as="geometry" />
        </mxCell>
        <mxCell id="1OO3OjP8roBSX_PP4mbD-27" value="2" style="rounded=1;whiteSpace=wrap;html=1;sketch=0;points=[[0,0.5,0,0,0],[1,0.5,0,0,0]];fillColor=#1ba1e2;fontColor=#ffffff;strokeColor=#006EAF;arcSize=50;fontFamily=Helvetica;fontSize=11;labelBackgroundColor=none;" vertex="1" parent="1OO3OjP8roBSX_PP4mbD-23">
          <mxGeometry x="40" y="60" width="40" height="25" as="geometry" />
        </mxCell>
        <mxCell id="1OO3OjP8roBSX_PP4mbD-28" value="1then2" style="rounded=1;whiteSpace=wrap;html=1;sketch=0;container=1;recursiveResize=0;verticalAlign=top;arcSize=6;fontStyle=1;autosize=0;points=[];absoluteArcSize=1;shadow=1;strokeColor=#001DBC;fillColor=#DAE8FC;fontColor=#ffffff;gradientColor=#0050EF;fontFamily=Helvetica;fontSize=11;labelBackgroundColor=none;" vertex="1" parent="1OO3OjP8roBSX_PP4mbD-1">
          <mxGeometry x="392" y="232" width="70" height="100" as="geometry">
            <mxRectangle x="-98" y="-1230" width="99" height="26" as="alternateBounds" />
          </mxGeometry>
        </mxCell>
        <mxCell id="1OO3OjP8roBSX_PP4mbD-29" value="2" style="rounded=1;whiteSpace=wrap;html=1;sketch=0;points=[[0,0.5,0,0,0],[1,0.5,0,0,0]];arcSize=50;fontFamily=Helvetica;fontSize=11;fontColor=default;labelBackgroundColor=none;" vertex="1" parent="1OO3OjP8roBSX_PP4mbD-28">
          <mxGeometry x="-10" y="60" width="40" height="25" as="geometry" />
        </mxCell>
        <mxCell id="1OO3OjP8roBSX_PP4mbD-30" value="1" style="rounded=1;whiteSpace=wrap;html=1;sketch=0;points=[[0,0.5,0,0,0],[1,0.5,0,0,0]];arcSize=50;fontFamily=Helvetica;fontSize=11;fontColor=default;labelBackgroundColor=none;" vertex="1" parent="1OO3OjP8roBSX_PP4mbD-28">
          <mxGeometry x="-10" y="30" width="40" height="25" as="geometry" />
        </mxCell>
        <mxCell id="1OO3OjP8roBSX_PP4mbD-31" value="1" style="rounded=1;whiteSpace=wrap;html=1;sketch=0;points=[[0,0.5,0,0,0],[1,0.5,0,0,0]];fillColor=#1ba1e2;fontColor=#ffffff;strokeColor=#006EAF;arcSize=50;fontFamily=Helvetica;fontSize=11;labelBackgroundColor=none;" vertex="1" parent="1OO3OjP8roBSX_PP4mbD-28">
          <mxGeometry x="40" y="30" width="40" height="25" as="geometry" />
        </mxCell>
        <mxCell id="1OO3OjP8roBSX_PP4mbD-32" value="2" style="rounded=1;whiteSpace=wrap;html=1;sketch=0;points=[[0,0.5,0,0,0],[1,0.5,0,0,0]];fillColor=#1ba1e2;fontColor=#ffffff;strokeColor=#006EAF;arcSize=50;fontFamily=Helvetica;fontSize=11;labelBackgroundColor=none;" vertex="1" parent="1OO3OjP8roBSX_PP4mbD-28">
          <mxGeometry x="40" y="60" width="40" height="25" as="geometry" />
        </mxCell>
        <mxCell id="1OO3OjP8roBSX_PP4mbD-33" style="edgeStyle=orthogonalEdgeStyle;shape=connector;curved=0;rounded=1;orthogonalLoop=1;jettySize=auto;html=1;exitX=1;exitY=0.5;exitDx=0;exitDy=0;exitPerimeter=0;entryX=0;entryY=0.5;entryDx=0;entryDy=0;entryPerimeter=0;strokeColor=default;strokeWidth=2;align=center;verticalAlign=middle;fontFamily=Helvetica;fontSize=11;fontColor=default;labelBackgroundColor=default;endArrow=classic;" edge="1" parent="1OO3OjP8roBSX_PP4mbD-1" source="1OO3OjP8roBSX_PP4mbD-32" target="1OO3OjP8roBSX_PP4mbD-8">
          <mxGeometry relative="1" as="geometry">
            <mxPoint x="503.25" y="360" as="targetPoint" />
          </mxGeometry>
        </mxCell>
        <mxCell id="1OO3OjP8roBSX_PP4mbD-34" style="edgeStyle=orthogonalEdgeStyle;shape=connector;curved=0;rounded=1;orthogonalLoop=1;jettySize=auto;html=1;exitX=1;exitY=0.5;exitDx=0;exitDy=0;exitPerimeter=0;entryX=0;entryY=0.5;entryDx=0;entryDy=0;entryPerimeter=0;strokeColor=default;strokeWidth=2;align=center;verticalAlign=middle;fontFamily=Helvetica;fontSize=11;fontColor=default;labelBackgroundColor=default;endArrow=classic;" edge="1" parent="1OO3OjP8roBSX_PP4mbD-1" source="1OO3OjP8roBSX_PP4mbD-26" target="1OO3OjP8roBSX_PP4mbD-18">
          <mxGeometry relative="1" as="geometry" />
        </mxCell>
        <mxCell id="1OO3OjP8roBSX_PP4mbD-35" style="edgeStyle=orthogonalEdgeStyle;shape=connector;curved=0;rounded=1;orthogonalLoop=1;jettySize=auto;html=1;exitX=1;exitY=0.5;exitDx=0;exitDy=0;exitPerimeter=0;entryX=0;entryY=0.5;entryDx=0;entryDy=0;entryPerimeter=0;strokeColor=default;strokeWidth=2;align=center;verticalAlign=middle;fontFamily=Helvetica;fontSize=11;fontColor=default;labelBackgroundColor=default;endArrow=classic;" edge="1" parent="1OO3OjP8roBSX_PP4mbD-1" source="1OO3OjP8roBSX_PP4mbD-31" target="1OO3OjP8roBSX_PP4mbD-4">
          <mxGeometry relative="1" as="geometry" />
        </mxCell>
        <mxCell id="1OO3OjP8roBSX_PP4mbD-36" style="edgeStyle=orthogonalEdgeStyle;shape=connector;curved=0;rounded=1;orthogonalLoop=1;jettySize=auto;html=1;entryX=0;entryY=0.5;entryDx=0;entryDy=0;entryPerimeter=0;strokeColor=default;strokeWidth=2;align=center;verticalAlign=middle;fontFamily=Helvetica;fontSize=11;fontColor=default;labelBackgroundColor=default;endArrow=classic;" edge="1" parent="1OO3OjP8roBSX_PP4mbD-1" source="1OO3OjP8roBSX_PP4mbD-2" target="1OO3OjP8roBSX_PP4mbD-25">
          <mxGeometry relative="1" as="geometry" />
        </mxCell>
        <mxCell id="1OO3OjP8roBSX_PP4mbD-37" style="edgeStyle=orthogonalEdgeStyle;shape=connector;curved=0;rounded=1;orthogonalLoop=1;jettySize=auto;html=1;exitX=1;exitY=0.5;exitDx=0;exitDy=0;exitPerimeter=0;entryX=0;entryY=0.5;entryDx=0;entryDy=0;entryPerimeter=0;strokeColor=default;strokeWidth=2;align=center;verticalAlign=middle;fontFamily=Helvetica;fontSize=11;fontColor=default;labelBackgroundColor=default;endArrow=classic;" edge="1" parent="1OO3OjP8roBSX_PP4mbD-1" source="1OO3OjP8roBSX_PP4mbD-2" target="1OO3OjP8roBSX_PP4mbD-24">
          <mxGeometry relative="1" as="geometry" />
        </mxCell>
        <mxCell id="1OO3OjP8roBSX_PP4mbD-38" style="edgeStyle=orthogonalEdgeStyle;rounded=1;orthogonalLoop=1;jettySize=auto;html=1;exitX=1;exitY=0.5;exitDx=0;exitDy=0;exitPerimeter=0;entryX=0;entryY=0.5;entryDx=0;entryDy=0;entryPerimeter=0;curved=0;strokeWidth=2;" edge="1" parent="1OO3OjP8roBSX_PP4mbD-1" source="1OO3OjP8roBSX_PP4mbD-2" target="1OO3OjP8roBSX_PP4mbD-29">
          <mxGeometry relative="1" as="geometry">
            <Array as="points">
              <mxPoint x="136" y="148" />
              <mxPoint x="136" y="304" />
            </Array>
          </mxGeometry>
        </mxCell>
        <mxCell id="1OO3OjP8roBSX_PP4mbD-39" style="edgeStyle=orthogonalEdgeStyle;shape=connector;curved=0;rounded=1;orthogonalLoop=1;jettySize=auto;html=1;exitX=1;exitY=0.5;exitDx=0;exitDy=0;exitPerimeter=0;entryX=0;entryY=0.5;entryDx=0;entryDy=0;entryPerimeter=0;strokeColor=default;strokeWidth=2;align=center;verticalAlign=middle;fontFamily=Helvetica;fontSize=11;fontColor=default;labelBackgroundColor=default;endArrow=classic;" edge="1" parent="1OO3OjP8roBSX_PP4mbD-1" source="1OO3OjP8roBSX_PP4mbD-27" target="1OO3OjP8roBSX_PP4mbD-30">
          <mxGeometry relative="1" as="geometry" />
        </mxCell>
        <mxCell id="p4f5-MUNgsjCai6u2IFb-0" value="c" style="rounded=1;whiteSpace=wrap;html=1;sketch=1;curveFitting=1;jiggle=2;dashed=1;fillColor=#fff2cc;strokeColor=#d6b656;" vertex="1" parent="1OO3OjP8roBSX_PP4mbD-1">
          <mxGeometry x="760" y="336" width="20" height="20" as="geometry" />
        </mxCell>
        <mxCell id="p4f5-MUNgsjCai6u2IFb-1" value="b" style="rounded=1;whiteSpace=wrap;html=1;sketch=1;curveFitting=1;jiggle=2;dashed=1;fillColor=#fff2cc;strokeColor=#d6b656;" vertex="1" parent="1OO3OjP8roBSX_PP4mbD-1">
          <mxGeometry x="760" y="196" width="20" height="20" as="geometry" />
        </mxCell>
        <mxCell id="p4f5-MUNgsjCai6u2IFb-2" value="a" style="rounded=1;whiteSpace=wrap;html=1;sketch=1;curveFitting=1;jiggle=2;dashed=1;fillColor=#fff2cc;strokeColor=#d6b656;" vertex="1" parent="1OO3OjP8roBSX_PP4mbD-1">
          <mxGeometry x="760" y="56" width="20" height="20" as="geometry" />
        </mxCell>
        <mxCell id="8fEvVorErsv6mY3anS2Z-0" value="[{&quot;&quot;,&quot;World},{&quot;&quot;,&quot;Cruel&quot;},{&quot;&quot;,&quot;Hello&quot;}]" style="rounded=1;whiteSpace=wrap;html=1;sketch=1;curveFitting=1;jiggle=2;dashed=1;fillColor=#fff2cc;strokeColor=#d6b656;" vertex="1" parent="1OO3OjP8roBSX_PP4mbD-1">
          <mxGeometry x="920" y="266" width="208" height="24" as="geometry" />
        </mxCell>
        <mxCell id="8fEvVorErsv6mY3anS2Z-1" value="" style="endArrow=classic;html=1;rounded=0;dashed=1;fillColor=#fff2cc;strokeColor=#d6b656;strokeWidth=2;dashPattern=1 2;" edge="1" parent="1OO3OjP8roBSX_PP4mbD-1">
          <mxGeometry width="50" height="50" relative="1" as="geometry">
            <mxPoint x="960" y="254" as="sourcePoint" />
            <mxPoint x="1136" y="254" as="targetPoint" />
          </mxGeometry>
        </mxCell>
        <mxCell id="6K8Suv16CicyYSt4XBJo-0" value="B" style="rounded=1;whiteSpace=wrap;html=1;sketch=1;curveFitting=1;jiggle=2;dashed=1;fillColor=#f8cecc;strokeColor=#b85450;" vertex="1" parent="1OO3OjP8roBSX_PP4mbD-1">
          <mxGeometry x="288" y="105" width="20" height="20" as="geometry" />
        </mxCell>
        <mxCell id="6K8Suv16CicyYSt4XBJo-1" value="C" style="rounded=1;whiteSpace=wrap;html=1;sketch=1;curveFitting=1;jiggle=2;dashed=1;fillColor=#f8cecc;strokeColor=#b85450;arcSize=0;" vertex="1" parent="1OO3OjP8roBSX_PP4mbD-1">
          <mxGeometry x="288" y="171" width="20" height="20" as="geometry" />
        </mxCell>
        <mxCell id="6K8Suv16CicyYSt4XBJo-2" value="D" style="rounded=1;whiteSpace=wrap;html=1;sketch=1;curveFitting=1;jiggle=2;dashed=1;fillColor=#f8cecc;strokeColor=#b85450;" vertex="1" parent="1OO3OjP8roBSX_PP4mbD-1">
          <mxGeometry x="480" y="246" width="20" height="20" as="geometry" />
        </mxCell>
        <mxCell id="6K8Suv16CicyYSt4XBJo-3" value="E" style="rounded=1;whiteSpace=wrap;html=1;sketch=1;curveFitting=1;jiggle=2;dashed=1;fillColor=#f8cecc;strokeColor=#b85450;arcSize=0;" vertex="1" parent="1OO3OjP8roBSX_PP4mbD-1">
          <mxGeometry x="480" y="312" width="20" height="20" as="geometry" />
        </mxCell>
        <mxCell id="zQsOuAr9I8T7dcVqNCKb-0" value="A" style="rounded=1;whiteSpace=wrap;html=1;sketch=1;curveFitting=1;jiggle=2;dashed=1;fillColor=#f8cecc;strokeColor=#b85450;" vertex="1" parent="1OO3OjP8roBSX_PP4mbD-1">
          <mxGeometry x="156" y="168" width="20" height="20" as="geometry" />
        </mxCell>
        <mxCell id="zQsOuAr9I8T7dcVqNCKb-1" value="A" style="rounded=1;whiteSpace=wrap;html=1;sketch=1;curveFitting=1;jiggle=2;dashed=1;fillColor=#f8cecc;strokeColor=#b85450;" vertex="1" parent="1OO3OjP8roBSX_PP4mbD-1">
          <mxGeometry x="156" y="276" width="20" height="20" as="geometry" />
        </mxCell>
        <mxCell id="zQsOuAr9I8T7dcVqNCKb-2" value="A" style="rounded=1;whiteSpace=wrap;html=1;sketch=1;curveFitting=1;jiggle=2;dashed=1;fillColor=#f8cecc;strokeColor=#b85450;" vertex="1" parent="1OO3OjP8roBSX_PP4mbD-1">
          <mxGeometry x="156" y="104" width="20" height="20" as="geometry" />
        </mxCell>
        <mxCell id="zQsOuAr9I8T7dcVqNCKb-3" value="1then2₁" style="rounded=1;whiteSpace=wrap;html=1;fontFamily=Helvetica;fontSize=11;fontColor=#333333;labelBackgroundColor=none;fillColor=#f5f5f5;strokeColor=#666666;sketch=1;curveFitting=1;jiggle=2;dashed=1;dashPattern=1 2;" vertex="1" parent="1OO3OjP8roBSX_PP4mbD-1">
          <mxGeometry x="197" y="52" width="76" height="24" as="geometry" />
        </mxCell>
        <mxCell id="zQsOuAr9I8T7dcVqNCKb-4" value="1then2₂" style="rounded=1;whiteSpace=wrap;html=1;fontFamily=Helvetica;fontSize=11;fontColor=#333333;labelBackgroundColor=none;sketch=1;curveFitting=1;jiggle=2;fillColor=#f5f5f5;strokeColor=#666666;dashed=1;dashPattern=1 2;" vertex="1" parent="1OO3OjP8roBSX_PP4mbD-1">
          <mxGeometry x="389" y="344" width="76" height="24" as="geometry" />
        </mxCell>
      </root>
    </mxGraphModel>
  </diagram>
  <diagram name="[dep] seq3b" id="TwILAomqEIEWtJ7YPgdK">
    <mxGraphModel dx="629" dy="378" grid="1" gridSize="4" guides="1" tooltips="1" connect="1" arrows="1" fold="1" page="1" pageScale="1" pageWidth="1100" pageHeight="850" math="0" shadow="0">
      <root>
        <mxCell id="vbK5y3Qj4n6UEI1W4Cw3-0" />
        <mxCell id="vbK5y3Qj4n6UEI1W4Cw3-1" parent="vbK5y3Qj4n6UEI1W4Cw3-0" />
        <mxCell id="vbK5y3Qj4n6UEI1W4Cw3-2" value="" style="rhombus;rounded=1;fontStyle=1;glass=0;sketch=0;fontSize=12;points=[[0,0.5,0,0,0],[0.5,0,0,0,0],[0.5,1,0,0,0],[1,0.5,0,0,0]];shadow=1;fontFamily=Helvetica;fontColor=default;labelBackgroundColor=none;" vertex="1" parent="vbK5y3Qj4n6UEI1W4Cw3-1">
          <mxGeometry x="40" y="112.5" width="40" height="40" as="geometry" />
        </mxCell>
        <mxCell id="vbK5y3Qj4n6UEI1W4Cw3-3" value="World" style="rounded=1;container=1;recursiveResize=0;verticalAlign=top;arcSize=6;fontStyle=1;autosize=0;points=[];absoluteArcSize=1;shadow=1;strokeColor=#6c8ebf;fillColor=#dae8fc;fontFamily=Helvetica;fontSize=11;gradientColor=#0050EF;fontColor=default;labelBackgroundColor=none;" vertex="1" parent="vbK5y3Qj4n6UEI1W4Cw3-1">
          <mxGeometry x="600" y="180" width="138" height="100" as="geometry">
            <mxRectangle x="-98" y="-1230" width="99" height="26" as="alternateBounds" />
          </mxGeometry>
        </mxCell>
        <mxCell id="vbK5y3Qj4n6UEI1W4Cw3-4" value="" style="rounded=1;sketch=0;points=[[0,0.5,0,0,0],[1,0.5,0,0,0]];arcSize=50;fontFamily=Helvetica;fontSize=11;fontColor=default;labelBackgroundColor=none;" vertex="1" parent="vbK5y3Qj4n6UEI1W4Cw3-3">
          <mxGeometry x="-16.75" y="27.5" width="36.75" height="25" as="geometry" />
        </mxCell>
        <mxCell id="vbK5y3Qj4n6UEI1W4Cw3-5" value="" style="rounded=1;sketch=0;points=[[0,0.5,0,0,0],[1,0.5,0,0,0]];fillColor=#1ba1e2;fontColor=#ffffff;strokeColor=#006EAF;arcSize=50;fontFamily=Helvetica;fontSize=11;labelBackgroundColor=none;" vertex="1" parent="vbK5y3Qj4n6UEI1W4Cw3-3">
          <mxGeometry x="120" y="27.5" width="36" height="25" as="geometry" />
        </mxCell>
        <mxCell id="vbK5y3Qj4n6UEI1W4Cw3-6" value="✗" style="rounded=1;sketch=0;points=[[0,0.5,0,0,0],[1,0.5,0,0,0]];fillColor=#1ba1e2;fontColor=#ffffff;strokeColor=#006EAF;arcSize=50;fontFamily=Helvetica;fontSize=11;textOpacity=30;labelBackgroundColor=none;" vertex="1" parent="vbK5y3Qj4n6UEI1W4Cw3-3">
          <mxGeometry x="120" y="60" width="36" height="25" as="geometry" />
        </mxCell>
        <mxCell id="vbK5y3Qj4n6UEI1W4Cw3-7" value="Hello" style="rounded=1;container=1;recursiveResize=0;verticalAlign=top;arcSize=6;fontStyle=1;autosize=0;points=[];absoluteArcSize=1;shadow=1;strokeColor=#6c8ebf;fillColor=#dae8fc;fontFamily=Helvetica;fontSize=11;gradientColor=#0050EF;fontColor=default;labelBackgroundColor=none;" vertex="1" parent="vbK5y3Qj4n6UEI1W4Cw3-1">
          <mxGeometry x="600" y="320" width="138" height="100" as="geometry">
            <mxRectangle x="-98" y="-1230" width="99" height="26" as="alternateBounds" />
          </mxGeometry>
        </mxCell>
        <mxCell id="vbK5y3Qj4n6UEI1W4Cw3-8" value="" style="rounded=1;sketch=0;points=[[0,0.5,0,0,0],[1,0.5,0,0,0]];arcSize=50;fontFamily=Helvetica;fontSize=11;fontColor=default;labelBackgroundColor=none;" vertex="1" parent="vbK5y3Qj4n6UEI1W4Cw3-7">
          <mxGeometry x="-16.75" y="30" width="36.75" height="25" as="geometry" />
        </mxCell>
        <mxCell id="vbK5y3Qj4n6UEI1W4Cw3-9" value="" style="rounded=1;sketch=0;points=[[0,0.5,0,0,0],[1,0.5,0,0,0]];fillColor=#1ba1e2;fontColor=#ffffff;strokeColor=#006EAF;arcSize=50;fontFamily=Helvetica;fontSize=11;labelBackgroundColor=none;" vertex="1" parent="vbK5y3Qj4n6UEI1W4Cw3-7">
          <mxGeometry x="120" y="27.5" width="36" height="25" as="geometry" />
        </mxCell>
        <mxCell id="vbK5y3Qj4n6UEI1W4Cw3-10" value="✗" style="rounded=1;sketch=0;points=[[0,0.5,0,0,0],[1,0.5,0,0,0]];fillColor=#1ba1e2;fontColor=#ffffff;strokeColor=#006EAF;arcSize=50;fontFamily=Helvetica;fontSize=11;textOpacity=30;labelBackgroundColor=none;" vertex="1" parent="vbK5y3Qj4n6UEI1W4Cw3-7">
          <mxGeometry x="120" y="60" width="36" height="25" as="geometry" />
        </mxCell>
        <mxCell id="vbK5y3Qj4n6UEI1W4Cw3-11" value="" style="rhombus;rounded=1;fontStyle=1;glass=0;sketch=0;fontSize=12;points=[[0,0.5,0,0,0],[0.5,0,0,0,0],[0.5,1,0,0,0],[1,0.5,0,0,0]];shadow=1;fillColor=#0050ef;fontColor=#ffffff;strokeColor=#001DBC;fontFamily=Helvetica;labelBackgroundColor=none;" vertex="1" parent="vbK5y3Qj4n6UEI1W4Cw3-1">
          <mxGeometry x="880" y="260" width="40" height="40" as="geometry" />
        </mxCell>
        <mxCell id="vbK5y3Qj4n6UEI1W4Cw3-12" value="✗" style="rhombus;whiteSpace=wrap;html=1;rounded=1;fillColor=#0050ef;fontColor=#ffffff;strokeColor=#001DBC;fontStyle=1;glass=0;sketch=0;fontSize=12;points=[[0,0.5,0,0,0],[0.5,0,0,0,0],[0.5,1,0,0,0],[1,0.5,0,0,0]];shadow=1;opacity=30;textOpacity=30;fontFamily=Helvetica;labelBackgroundColor=none;" vertex="1" parent="vbK5y3Qj4n6UEI1W4Cw3-1">
          <mxGeometry x="880" y="440" width="40" height="40" as="geometry" />
        </mxCell>
        <mxCell id="vbK5y3Qj4n6UEI1W4Cw3-13" value="" style="edgeStyle=orthogonalEdgeStyle;shape=connector;curved=0;rounded=1;orthogonalLoop=1;jettySize=auto;exitX=1;exitY=0.5;exitDx=0;exitDy=0;exitPerimeter=0;entryX=0;entryY=0.5;entryDx=0;entryDy=0;entryPerimeter=0;strokeColor=default;strokeWidth=2;align=center;verticalAlign=middle;fontFamily=Helvetica;fontSize=11;fontColor=default;labelBackgroundColor=default;endArrow=classic;" edge="1" parent="vbK5y3Qj4n6UEI1W4Cw3-1" source="vbK5y3Qj4n6UEI1W4Cw3-5" target="vbK5y3Qj4n6UEI1W4Cw3-11">
          <mxGeometry relative="1" as="geometry" />
        </mxCell>
        <mxCell id="vbK5y3Qj4n6UEI1W4Cw3-14" value="" style="edgeStyle=orthogonalEdgeStyle;shape=connector;curved=0;rounded=1;orthogonalLoop=1;jettySize=auto;exitX=1;exitY=0.5;exitDx=0;exitDy=0;exitPerimeter=0;entryX=0;entryY=0.5;entryDx=0;entryDy=0;entryPerimeter=0;strokeColor=default;strokeWidth=2;align=center;verticalAlign=middle;fontFamily=Helvetica;fontSize=11;fontColor=default;labelBackgroundColor=default;endArrow=classic;" edge="1" parent="vbK5y3Qj4n6UEI1W4Cw3-1" source="vbK5y3Qj4n6UEI1W4Cw3-9" target="vbK5y3Qj4n6UEI1W4Cw3-11">
          <mxGeometry relative="1" as="geometry" />
        </mxCell>
        <mxCell id="vbK5y3Qj4n6UEI1W4Cw3-15" value="" style="edgeStyle=orthogonalEdgeStyle;shape=connector;curved=0;rounded=1;orthogonalLoop=1;jettySize=auto;exitX=1;exitY=0.5;exitDx=0;exitDy=0;exitPerimeter=0;entryX=0;entryY=0.5;entryDx=0;entryDy=0;entryPerimeter=0;strokeColor=default;strokeWidth=1;align=center;verticalAlign=middle;fontFamily=Helvetica;fontSize=11;fontColor=default;labelBackgroundColor=default;endArrow=classic;dashed=1;dashPattern=1 4;opacity=20;" edge="1" parent="vbK5y3Qj4n6UEI1W4Cw3-1" source="vbK5y3Qj4n6UEI1W4Cw3-6" target="vbK5y3Qj4n6UEI1W4Cw3-12">
          <mxGeometry relative="1" as="geometry">
            <Array as="points">
              <mxPoint x="780" y="253" />
              <mxPoint x="780" y="460" />
            </Array>
          </mxGeometry>
        </mxCell>
        <mxCell id="vbK5y3Qj4n6UEI1W4Cw3-16" value="" style="edgeStyle=orthogonalEdgeStyle;shape=connector;curved=0;rounded=1;orthogonalLoop=1;jettySize=auto;exitX=1;exitY=0.5;exitDx=0;exitDy=0;exitPerimeter=0;entryX=0;entryY=0.5;entryDx=0;entryDy=0;entryPerimeter=0;strokeColor=default;strokeWidth=1;align=center;verticalAlign=middle;fontFamily=Helvetica;fontSize=11;fontColor=default;labelBackgroundColor=default;endArrow=classic;dashed=1;dashPattern=1 4;opacity=20;" edge="1" parent="vbK5y3Qj4n6UEI1W4Cw3-1" source="vbK5y3Qj4n6UEI1W4Cw3-10" target="vbK5y3Qj4n6UEI1W4Cw3-12">
          <mxGeometry relative="1" as="geometry">
            <Array as="points">
              <mxPoint x="780" y="393" />
              <mxPoint x="780" y="460" />
            </Array>
          </mxGeometry>
        </mxCell>
        <mxCell id="vbK5y3Qj4n6UEI1W4Cw3-17" value="Cruel" style="rounded=1;container=1;recursiveResize=0;verticalAlign=top;arcSize=6;fontStyle=1;autosize=0;points=[];absoluteArcSize=1;shadow=1;strokeColor=#6c8ebf;fillColor=#dae8fc;fontFamily=Helvetica;fontSize=11;gradientColor=#0050EF;fontColor=default;labelBackgroundColor=none;" vertex="1" parent="vbK5y3Qj4n6UEI1W4Cw3-1">
          <mxGeometry x="600" y="40" width="138" height="100" as="geometry">
            <mxRectangle x="-98" y="-1230" width="99" height="26" as="alternateBounds" />
          </mxGeometry>
        </mxCell>
        <mxCell id="vbK5y3Qj4n6UEI1W4Cw3-18" value="" style="rounded=1;sketch=0;points=[[0,0.5,0,0,0],[1,0.5,0,0,0]];arcSize=50;fontFamily=Helvetica;fontSize=11;fontColor=default;labelBackgroundColor=none;" vertex="1" parent="vbK5y3Qj4n6UEI1W4Cw3-17">
          <mxGeometry x="-16.75" y="27.5" width="36.75" height="25" as="geometry" />
        </mxCell>
        <mxCell id="vbK5y3Qj4n6UEI1W4Cw3-19" value="" style="rounded=1;sketch=0;points=[[0,0.5,0,0,0],[1,0.5,0,0,0]];fillColor=#1ba1e2;fontColor=#ffffff;strokeColor=#006EAF;arcSize=50;fontFamily=Helvetica;fontSize=11;labelBackgroundColor=none;" vertex="1" parent="vbK5y3Qj4n6UEI1W4Cw3-17">
          <mxGeometry x="120" y="27.5" width="36" height="25" as="geometry" />
        </mxCell>
        <mxCell id="vbK5y3Qj4n6UEI1W4Cw3-20" value="✗" style="rounded=1;sketch=0;points=[[0,0.5,0,0,0],[1,0.5,0,0,0]];fillColor=#1ba1e2;fontColor=#ffffff;strokeColor=#006EAF;arcSize=50;fontFamily=Helvetica;fontSize=11;textOpacity=30;labelBackgroundColor=none;" vertex="1" parent="vbK5y3Qj4n6UEI1W4Cw3-17">
          <mxGeometry x="120" y="60" width="36" height="25" as="geometry" />
        </mxCell>
        <mxCell id="vbK5y3Qj4n6UEI1W4Cw3-21" style="edgeStyle=orthogonalEdgeStyle;shape=connector;curved=0;rounded=1;orthogonalLoop=1;jettySize=auto;html=1;exitX=1;exitY=0.5;exitDx=0;exitDy=0;exitPerimeter=0;entryX=0;entryY=0.5;entryDx=0;entryDy=0;entryPerimeter=0;strokeColor=default;strokeWidth=2;align=center;verticalAlign=middle;fontFamily=Helvetica;fontSize=11;fontColor=default;labelBackgroundColor=default;endArrow=classic;" edge="1" parent="vbK5y3Qj4n6UEI1W4Cw3-1" source="vbK5y3Qj4n6UEI1W4Cw3-19" target="vbK5y3Qj4n6UEI1W4Cw3-11">
          <mxGeometry relative="1" as="geometry" />
        </mxCell>
        <mxCell id="vbK5y3Qj4n6UEI1W4Cw3-22" style="edgeStyle=orthogonalEdgeStyle;shape=connector;curved=0;rounded=1;orthogonalLoop=1;jettySize=auto;html=1;exitX=1;exitY=0.5;exitDx=0;exitDy=0;exitPerimeter=0;entryX=0;entryY=0.5;entryDx=0;entryDy=0;entryPerimeter=0;strokeColor=default;strokeWidth=1;align=center;verticalAlign=middle;fontFamily=Helvetica;fontSize=11;fontColor=default;labelBackgroundColor=default;endArrow=classic;dashed=1;opacity=20;" edge="1" parent="vbK5y3Qj4n6UEI1W4Cw3-1" source="vbK5y3Qj4n6UEI1W4Cw3-20" target="vbK5y3Qj4n6UEI1W4Cw3-12">
          <mxGeometry relative="1" as="geometry">
            <Array as="points">
              <mxPoint x="780" y="113" />
              <mxPoint x="780" y="460" />
            </Array>
          </mxGeometry>
        </mxCell>
        <mxCell id="vbK5y3Qj4n6UEI1W4Cw3-23" value="1then2" style="rounded=1;whiteSpace=wrap;html=1;sketch=0;container=1;recursiveResize=0;verticalAlign=top;arcSize=6;fontStyle=1;autosize=0;points=[];absoluteArcSize=1;shadow=1;strokeColor=#001DBC;fillColor=#DAE8FC;fontColor=#ffffff;gradientColor=#0050EF;fontFamily=Helvetica;fontSize=11;labelBackgroundColor=none;" vertex="1" parent="vbK5y3Qj4n6UEI1W4Cw3-1">
          <mxGeometry x="410" y="90" width="70" height="100" as="geometry">
            <mxRectangle x="-98" y="-1230" width="99" height="26" as="alternateBounds" />
          </mxGeometry>
        </mxCell>
        <mxCell id="vbK5y3Qj4n6UEI1W4Cw3-24" value="1" style="rounded=1;whiteSpace=wrap;html=1;sketch=0;points=[[0,0.5,0,0,0],[1,0.5,0,0,0]];arcSize=50;fontFamily=Helvetica;fontSize=11;fontColor=default;labelBackgroundColor=none;" vertex="1" parent="vbK5y3Qj4n6UEI1W4Cw3-23">
          <mxGeometry x="-10" y="60" width="40" height="25" as="geometry" />
        </mxCell>
        <mxCell id="vbK5y3Qj4n6UEI1W4Cw3-25" value="2" style="rounded=1;whiteSpace=wrap;html=1;sketch=0;points=[[0,0.5,0,0,0],[1,0.5,0,0,0]];arcSize=50;fontFamily=Helvetica;fontSize=11;fontColor=default;labelBackgroundColor=none;" vertex="1" parent="vbK5y3Qj4n6UEI1W4Cw3-23">
          <mxGeometry x="-10" y="30" width="40" height="25" as="geometry" />
        </mxCell>
        <mxCell id="vbK5y3Qj4n6UEI1W4Cw3-26" value="1" style="rounded=1;whiteSpace=wrap;html=1;sketch=0;points=[[0,0.5,0,0,0],[1,0.5,0,0,0]];fillColor=#1ba1e2;fontColor=#ffffff;strokeColor=#006EAF;arcSize=50;fontFamily=Helvetica;fontSize=11;labelBackgroundColor=none;" vertex="1" parent="vbK5y3Qj4n6UEI1W4Cw3-23">
          <mxGeometry x="40" y="30" width="40" height="25" as="geometry" />
        </mxCell>
        <mxCell id="vbK5y3Qj4n6UEI1W4Cw3-27" value="2" style="rounded=1;whiteSpace=wrap;html=1;sketch=0;points=[[0,0.5,0,0,0],[1,0.5,0,0,0]];fillColor=#1ba1e2;fontColor=#ffffff;strokeColor=#006EAF;arcSize=50;fontFamily=Helvetica;fontSize=11;labelBackgroundColor=none;" vertex="1" parent="vbK5y3Qj4n6UEI1W4Cw3-23">
          <mxGeometry x="40" y="60" width="40" height="25" as="geometry" />
        </mxCell>
        <mxCell id="vbK5y3Qj4n6UEI1W4Cw3-28" value="1then2" style="rounded=1;whiteSpace=wrap;html=1;sketch=0;container=1;recursiveResize=0;verticalAlign=top;arcSize=6;fontStyle=1;autosize=0;points=[];absoluteArcSize=1;shadow=1;strokeColor=#001DBC;fillColor=#DAE8FC;fontColor=#ffffff;gradientColor=#0050EF;fontFamily=Helvetica;fontSize=11;labelBackgroundColor=none;" vertex="1" parent="vbK5y3Qj4n6UEI1W4Cw3-1">
          <mxGeometry x="220" y="290" width="70" height="100" as="geometry">
            <mxRectangle x="-98" y="-1230" width="99" height="26" as="alternateBounds" />
          </mxGeometry>
        </mxCell>
        <mxCell id="vbK5y3Qj4n6UEI1W4Cw3-29" value="2" style="rounded=1;whiteSpace=wrap;html=1;sketch=0;points=[[0,0.5,0,0,0],[1,0.5,0,0,0]];arcSize=50;fontFamily=Helvetica;fontSize=11;fontColor=default;labelBackgroundColor=none;" vertex="1" parent="vbK5y3Qj4n6UEI1W4Cw3-28">
          <mxGeometry x="-10" y="60" width="40" height="25" as="geometry" />
        </mxCell>
        <mxCell id="vbK5y3Qj4n6UEI1W4Cw3-30" value="1" style="rounded=1;whiteSpace=wrap;html=1;sketch=0;points=[[0,0.5,0,0,0],[1,0.5,0,0,0]];arcSize=50;fontFamily=Helvetica;fontSize=11;fontColor=default;labelBackgroundColor=none;" vertex="1" parent="vbK5y3Qj4n6UEI1W4Cw3-28">
          <mxGeometry x="-10" y="30" width="40" height="25" as="geometry" />
        </mxCell>
        <mxCell id="vbK5y3Qj4n6UEI1W4Cw3-31" value="2" style="rounded=1;whiteSpace=wrap;html=1;sketch=0;points=[[0,0.5,0,0,0],[1,0.5,0,0,0]];fillColor=#1ba1e2;fontColor=#ffffff;strokeColor=#006EAF;arcSize=50;fontFamily=Helvetica;fontSize=11;labelBackgroundColor=none;" vertex="1" parent="vbK5y3Qj4n6UEI1W4Cw3-28">
          <mxGeometry x="40" y="30" width="40" height="25" as="geometry" />
        </mxCell>
        <mxCell id="vbK5y3Qj4n6UEI1W4Cw3-32" value="1" style="rounded=1;whiteSpace=wrap;html=1;sketch=0;points=[[0,0.5,0,0,0],[1,0.5,0,0,0]];fillColor=#1ba1e2;fontColor=#ffffff;strokeColor=#006EAF;arcSize=50;fontFamily=Helvetica;fontSize=11;labelBackgroundColor=none;" vertex="1" parent="vbK5y3Qj4n6UEI1W4Cw3-28">
          <mxGeometry x="40" y="60" width="40" height="25" as="geometry" />
        </mxCell>
        <mxCell id="vbK5y3Qj4n6UEI1W4Cw3-33" style="edgeStyle=orthogonalEdgeStyle;shape=connector;curved=0;rounded=1;orthogonalLoop=1;jettySize=auto;html=1;exitX=1;exitY=0.5;exitDx=0;exitDy=0;exitPerimeter=0;entryX=0;entryY=0.5;entryDx=0;entryDy=0;entryPerimeter=0;strokeColor=default;strokeWidth=2;align=center;verticalAlign=middle;fontFamily=Helvetica;fontSize=11;fontColor=default;labelBackgroundColor=default;endArrow=classic;" edge="1" parent="vbK5y3Qj4n6UEI1W4Cw3-1" source="vbK5y3Qj4n6UEI1W4Cw3-31" target="vbK5y3Qj4n6UEI1W4Cw3-24">
          <mxGeometry relative="1" as="geometry" />
        </mxCell>
        <mxCell id="vbK5y3Qj4n6UEI1W4Cw3-34" style="edgeStyle=orthogonalEdgeStyle;shape=connector;curved=0;rounded=1;orthogonalLoop=1;jettySize=auto;html=1;exitX=1;exitY=0.5;exitDx=0;exitDy=0;exitPerimeter=0;entryX=0;entryY=0.5;entryDx=0;entryDy=0;entryPerimeter=0;strokeColor=default;strokeWidth=2;align=center;verticalAlign=middle;fontFamily=Helvetica;fontSize=11;fontColor=default;labelBackgroundColor=default;endArrow=classic;" edge="1" parent="vbK5y3Qj4n6UEI1W4Cw3-1" source="vbK5y3Qj4n6UEI1W4Cw3-32" target="vbK5y3Qj4n6UEI1W4Cw3-8">
          <mxGeometry relative="1" as="geometry">
            <mxPoint x="503.25" y="360" as="targetPoint" />
          </mxGeometry>
        </mxCell>
        <mxCell id="vbK5y3Qj4n6UEI1W4Cw3-35" style="edgeStyle=orthogonalEdgeStyle;shape=connector;curved=0;rounded=1;orthogonalLoop=1;jettySize=auto;html=1;exitX=1;exitY=0.5;exitDx=0;exitDy=0;exitPerimeter=0;entryX=0;entryY=0.5;entryDx=0;entryDy=0;entryPerimeter=0;strokeColor=default;strokeWidth=2;align=center;verticalAlign=middle;fontFamily=Helvetica;fontSize=11;fontColor=default;labelBackgroundColor=default;endArrow=classic;" edge="1" parent="vbK5y3Qj4n6UEI1W4Cw3-1" source="vbK5y3Qj4n6UEI1W4Cw3-26" target="vbK5y3Qj4n6UEI1W4Cw3-18">
          <mxGeometry relative="1" as="geometry" />
        </mxCell>
        <mxCell id="vbK5y3Qj4n6UEI1W4Cw3-36" style="edgeStyle=orthogonalEdgeStyle;shape=connector;curved=0;rounded=1;orthogonalLoop=1;jettySize=auto;html=1;exitX=1;exitY=0.5;exitDx=0;exitDy=0;exitPerimeter=0;entryX=0;entryY=0.5;entryDx=0;entryDy=0;entryPerimeter=0;strokeColor=default;strokeWidth=2;align=center;verticalAlign=middle;fontFamily=Helvetica;fontSize=11;fontColor=default;labelBackgroundColor=default;endArrow=classic;" edge="1" parent="vbK5y3Qj4n6UEI1W4Cw3-1" source="vbK5y3Qj4n6UEI1W4Cw3-27" target="vbK5y3Qj4n6UEI1W4Cw3-4">
          <mxGeometry relative="1" as="geometry" />
        </mxCell>
        <mxCell id="vbK5y3Qj4n6UEI1W4Cw3-37" style="edgeStyle=orthogonalEdgeStyle;shape=connector;curved=0;rounded=1;orthogonalLoop=1;jettySize=auto;html=1;entryX=0;entryY=0.5;entryDx=0;entryDy=0;entryPerimeter=0;strokeColor=default;strokeWidth=2;align=center;verticalAlign=middle;fontFamily=Helvetica;fontSize=11;fontColor=default;labelBackgroundColor=default;endArrow=classic;" edge="1" parent="vbK5y3Qj4n6UEI1W4Cw3-1" source="vbK5y3Qj4n6UEI1W4Cw3-2" target="vbK5y3Qj4n6UEI1W4Cw3-25">
          <mxGeometry relative="1" as="geometry" />
        </mxCell>
        <mxCell id="vbK5y3Qj4n6UEI1W4Cw3-38" style="edgeStyle=orthogonalEdgeStyle;shape=connector;curved=0;rounded=1;orthogonalLoop=1;jettySize=auto;html=1;exitX=1;exitY=0.5;exitDx=0;exitDy=0;exitPerimeter=0;entryX=0;entryY=0.5;entryDx=0;entryDy=0;entryPerimeter=0;strokeColor=default;strokeWidth=2;align=center;verticalAlign=middle;fontFamily=Helvetica;fontSize=11;fontColor=default;labelBackgroundColor=default;endArrow=classic;" edge="1" parent="vbK5y3Qj4n6UEI1W4Cw3-1" source="vbK5y3Qj4n6UEI1W4Cw3-2" target="vbK5y3Qj4n6UEI1W4Cw3-30">
          <mxGeometry relative="1" as="geometry" />
        </mxCell>
        <mxCell id="vbK5y3Qj4n6UEI1W4Cw3-39" style="edgeStyle=orthogonalEdgeStyle;shape=connector;curved=0;rounded=1;orthogonalLoop=1;jettySize=auto;html=1;exitX=1;exitY=0.5;exitDx=0;exitDy=0;exitPerimeter=0;entryX=0;entryY=0.5;entryDx=0;entryDy=0;entryPerimeter=0;strokeColor=default;strokeWidth=2;align=center;verticalAlign=middle;fontFamily=Helvetica;fontSize=11;fontColor=default;labelBackgroundColor=default;endArrow=classic;" edge="1" parent="vbK5y3Qj4n6UEI1W4Cw3-1" source="vbK5y3Qj4n6UEI1W4Cw3-2" target="vbK5y3Qj4n6UEI1W4Cw3-29">
          <mxGeometry relative="1" as="geometry" />
        </mxCell>
        <mxCell id="i8cWs-7yupjiLyERyTla-0" value="[{&quot;&quot;,&quot;World},{&quot;&quot;,&quot;Cruel&quot;},{&quot;&quot;,&quot;Hello&quot;}]" style="rounded=1;whiteSpace=wrap;html=1;sketch=1;curveFitting=1;jiggle=2;dashed=1;fillColor=#fff2cc;strokeColor=#d6b656;" vertex="1" parent="vbK5y3Qj4n6UEI1W4Cw3-1">
          <mxGeometry x="920" y="266" width="208" height="24" as="geometry" />
        </mxCell>
        <mxCell id="i8cWs-7yupjiLyERyTla-1" value="" style="endArrow=classic;html=1;rounded=0;dashed=1;fillColor=#fff2cc;strokeColor=#d6b656;strokeWidth=2;dashPattern=1 2;" edge="1" parent="vbK5y3Qj4n6UEI1W4Cw3-1">
          <mxGeometry width="50" height="50" relative="1" as="geometry">
            <mxPoint x="960" y="254" as="sourcePoint" />
            <mxPoint x="1136" y="254" as="targetPoint" />
          </mxGeometry>
        </mxCell>
        <mxCell id="We11R6UIVOZ7qB3BtoQJ-0" value="B" style="rounded=1;whiteSpace=wrap;html=1;sketch=1;curveFitting=1;jiggle=2;dashed=1;fillColor=#f8cecc;strokeColor=#b85450;" vertex="1" parent="vbK5y3Qj4n6UEI1W4Cw3-1">
          <mxGeometry x="320" y="304" width="20" height="20" as="geometry" />
        </mxCell>
        <mxCell id="We11R6UIVOZ7qB3BtoQJ-1" value="D" style="rounded=1;whiteSpace=wrap;html=1;sketch=1;curveFitting=1;jiggle=2;dashed=1;fillColor=#f8cecc;strokeColor=#b85450;" vertex="1" parent="vbK5y3Qj4n6UEI1W4Cw3-1">
          <mxGeometry x="500" y="168" width="20" height="20" as="geometry" />
        </mxCell>
        <mxCell id="We11R6UIVOZ7qB3BtoQJ-2" value="A" style="rounded=1;whiteSpace=wrap;html=1;sketch=1;curveFitting=1;jiggle=2;dashed=1;fillColor=#f8cecc;strokeColor=#b85450;arcSize=0;" vertex="1" parent="vbK5y3Qj4n6UEI1W4Cw3-1">
          <mxGeometry x="320" y="370" width="20" height="20" as="geometry" />
        </mxCell>
        <mxCell id="We11R6UIVOZ7qB3BtoQJ-3" value="C" style="rounded=1;whiteSpace=wrap;html=1;sketch=1;curveFitting=1;jiggle=2;dashed=1;fillColor=#f8cecc;strokeColor=#b85450;" vertex="1" parent="vbK5y3Qj4n6UEI1W4Cw3-1">
          <mxGeometry x="500" y="108" width="20" height="20" as="geometry" />
        </mxCell>
        <mxCell id="fHvft5iGSZjMT8PcJOcX-0" value="a" style="rounded=1;whiteSpace=wrap;html=1;sketch=1;curveFitting=1;jiggle=2;dashed=1;fillColor=#fff2cc;strokeColor=#d6b656;" vertex="1" parent="vbK5y3Qj4n6UEI1W4Cw3-1">
          <mxGeometry x="760" y="336" width="20" height="20" as="geometry" />
        </mxCell>
        <mxCell id="fHvft5iGSZjMT8PcJOcX-1" value="c" style="rounded=1;whiteSpace=wrap;html=1;sketch=1;curveFitting=1;jiggle=2;dashed=1;fillColor=#fff2cc;strokeColor=#d6b656;" vertex="1" parent="vbK5y3Qj4n6UEI1W4Cw3-1">
          <mxGeometry x="760" y="196" width="20" height="20" as="geometry" />
        </mxCell>
        <mxCell id="fHvft5iGSZjMT8PcJOcX-2" value="b" style="rounded=1;whiteSpace=wrap;html=1;sketch=1;curveFitting=1;jiggle=2;dashed=1;fillColor=#fff2cc;strokeColor=#d6b656;" vertex="1" parent="vbK5y3Qj4n6UEI1W4Cw3-1">
          <mxGeometry x="760" y="56" width="20" height="20" as="geometry" />
        </mxCell>
      </root>
    </mxGraphModel>
  </diagram>
  <diagram name="[dep dep] seq3b" id="EPJQsbFO75_43IocCdbf">
    <mxGraphModel dx="1100" dy="661" grid="1" gridSize="4" guides="1" tooltips="1" connect="1" arrows="1" fold="1" page="1" pageScale="1" pageWidth="1100" pageHeight="850" math="0" shadow="0">
      <root>
        <mxCell id="mAWrplCgp_W955-lHM9R-0" />
        <mxCell id="mAWrplCgp_W955-lHM9R-1" parent="mAWrplCgp_W955-lHM9R-0" />
        <mxCell id="mAWrplCgp_W955-lHM9R-2" value="" style="rhombus;rounded=1;fontStyle=1;glass=0;sketch=0;fontSize=12;points=[[0,0.5,0,0,0],[0.5,0,0,0,0],[0.5,1,0,0,0],[1,0.5,0,0,0]];shadow=1;fontFamily=Helvetica;fontColor=default;labelBackgroundColor=none;" vertex="1" parent="mAWrplCgp_W955-lHM9R-1">
          <mxGeometry x="40" y="142.5" width="40" height="40" as="geometry" />
        </mxCell>
        <mxCell id="mAWrplCgp_W955-lHM9R-3" value="World" style="rounded=1;container=1;recursiveResize=0;verticalAlign=top;arcSize=6;fontStyle=1;autosize=0;points=[];absoluteArcSize=1;shadow=1;strokeColor=#6c8ebf;fillColor=#dae8fc;fontFamily=Helvetica;fontSize=11;gradientColor=#0050EF;fontColor=default;labelBackgroundColor=none;" vertex="1" parent="mAWrplCgp_W955-lHM9R-1">
          <mxGeometry x="600" y="180" width="138" height="100" as="geometry">
            <mxRectangle x="-98" y="-1230" width="99" height="26" as="alternateBounds" />
          </mxGeometry>
        </mxCell>
        <mxCell id="mAWrplCgp_W955-lHM9R-4" value="" style="rounded=1;sketch=0;points=[[0,0.5,0,0,0],[1,0.5,0,0,0]];arcSize=50;fontFamily=Helvetica;fontSize=11;fontColor=default;labelBackgroundColor=none;" vertex="1" parent="mAWrplCgp_W955-lHM9R-3">
          <mxGeometry x="-16.75" y="27.5" width="36.75" height="25" as="geometry" />
        </mxCell>
        <mxCell id="mAWrplCgp_W955-lHM9R-5" value="" style="rounded=1;sketch=0;points=[[0,0.5,0,0,0],[1,0.5,0,0,0]];fillColor=#1ba1e2;fontColor=#ffffff;strokeColor=#006EAF;arcSize=50;fontFamily=Helvetica;fontSize=11;labelBackgroundColor=none;" vertex="1" parent="mAWrplCgp_W955-lHM9R-3">
          <mxGeometry x="120" y="27.5" width="36" height="25" as="geometry" />
        </mxCell>
        <mxCell id="mAWrplCgp_W955-lHM9R-6" value="✗" style="rounded=1;sketch=0;points=[[0,0.5,0,0,0],[1,0.5,0,0,0]];fillColor=#1ba1e2;fontColor=#ffffff;strokeColor=#006EAF;arcSize=50;fontFamily=Helvetica;fontSize=11;textOpacity=30;labelBackgroundColor=none;" vertex="1" parent="mAWrplCgp_W955-lHM9R-3">
          <mxGeometry x="120" y="60" width="36" height="25" as="geometry" />
        </mxCell>
        <mxCell id="mAWrplCgp_W955-lHM9R-7" value="Hello" style="rounded=1;container=1;recursiveResize=0;verticalAlign=top;arcSize=6;fontStyle=1;autosize=0;points=[];absoluteArcSize=1;shadow=1;strokeColor=#6c8ebf;fillColor=#dae8fc;fontFamily=Helvetica;fontSize=11;gradientColor=#0050EF;fontColor=default;labelBackgroundColor=none;" vertex="1" parent="mAWrplCgp_W955-lHM9R-1">
          <mxGeometry x="600" y="320" width="138" height="100" as="geometry">
            <mxRectangle x="-98" y="-1230" width="99" height="26" as="alternateBounds" />
          </mxGeometry>
        </mxCell>
        <mxCell id="mAWrplCgp_W955-lHM9R-8" value="" style="rounded=1;sketch=0;points=[[0,0.5,0,0,0],[1,0.5,0,0,0]];arcSize=50;fontFamily=Helvetica;fontSize=11;fontColor=default;labelBackgroundColor=none;" vertex="1" parent="mAWrplCgp_W955-lHM9R-7">
          <mxGeometry x="-16.75" y="30" width="36.75" height="25" as="geometry" />
        </mxCell>
        <mxCell id="mAWrplCgp_W955-lHM9R-9" value="" style="rounded=1;sketch=0;points=[[0,0.5,0,0,0],[1,0.5,0,0,0]];fillColor=#1ba1e2;fontColor=#ffffff;strokeColor=#006EAF;arcSize=50;fontFamily=Helvetica;fontSize=11;labelBackgroundColor=none;" vertex="1" parent="mAWrplCgp_W955-lHM9R-7">
          <mxGeometry x="120" y="27.5" width="36" height="25" as="geometry" />
        </mxCell>
        <mxCell id="mAWrplCgp_W955-lHM9R-10" value="✗" style="rounded=1;sketch=0;points=[[0,0.5,0,0,0],[1,0.5,0,0,0]];fillColor=#1ba1e2;fontColor=#ffffff;strokeColor=#006EAF;arcSize=50;fontFamily=Helvetica;fontSize=11;textOpacity=30;labelBackgroundColor=none;" vertex="1" parent="mAWrplCgp_W955-lHM9R-7">
          <mxGeometry x="120" y="60" width="36" height="25" as="geometry" />
        </mxCell>
        <mxCell id="mAWrplCgp_W955-lHM9R-11" value="" style="rhombus;rounded=1;fontStyle=1;glass=0;sketch=0;fontSize=12;points=[[0,0.5,0,0,0],[0.5,0,0,0,0],[0.5,1,0,0,0],[1,0.5,0,0,0]];shadow=1;fillColor=#0050ef;fontColor=#ffffff;strokeColor=#001DBC;fontFamily=Helvetica;labelBackgroundColor=none;" vertex="1" parent="mAWrplCgp_W955-lHM9R-1">
          <mxGeometry x="840" y="260" width="40" height="40" as="geometry" />
        </mxCell>
        <mxCell id="mAWrplCgp_W955-lHM9R-12" value="✗" style="rhombus;whiteSpace=wrap;html=1;rounded=1;fillColor=#0050ef;fontColor=#ffffff;strokeColor=#001DBC;fontStyle=1;glass=0;sketch=0;fontSize=12;points=[[0,0.5,0,0,0],[0.5,0,0,0,0],[0.5,1,0,0,0],[1,0.5,0,0,0]];shadow=1;opacity=30;textOpacity=30;fontFamily=Helvetica;labelBackgroundColor=none;" vertex="1" parent="mAWrplCgp_W955-lHM9R-1">
          <mxGeometry x="840" y="440" width="40" height="40" as="geometry" />
        </mxCell>
        <mxCell id="mAWrplCgp_W955-lHM9R-13" value="" style="edgeStyle=orthogonalEdgeStyle;shape=connector;curved=0;rounded=1;orthogonalLoop=1;jettySize=auto;exitX=1;exitY=0.5;exitDx=0;exitDy=0;exitPerimeter=0;entryX=0;entryY=0.5;entryDx=0;entryDy=0;entryPerimeter=0;strokeColor=default;strokeWidth=2;align=center;verticalAlign=middle;fontFamily=Helvetica;fontSize=11;fontColor=default;labelBackgroundColor=default;endArrow=classic;" edge="1" parent="mAWrplCgp_W955-lHM9R-1" source="mAWrplCgp_W955-lHM9R-5" target="mAWrplCgp_W955-lHM9R-11">
          <mxGeometry relative="1" as="geometry" />
        </mxCell>
        <mxCell id="mAWrplCgp_W955-lHM9R-14" value="" style="edgeStyle=orthogonalEdgeStyle;shape=connector;curved=0;rounded=1;orthogonalLoop=1;jettySize=auto;exitX=1;exitY=0.5;exitDx=0;exitDy=0;exitPerimeter=0;entryX=0;entryY=0.5;entryDx=0;entryDy=0;entryPerimeter=0;strokeColor=default;strokeWidth=2;align=center;verticalAlign=middle;fontFamily=Helvetica;fontSize=11;fontColor=default;labelBackgroundColor=default;endArrow=classic;" edge="1" parent="mAWrplCgp_W955-lHM9R-1" source="mAWrplCgp_W955-lHM9R-9" target="mAWrplCgp_W955-lHM9R-11">
          <mxGeometry relative="1" as="geometry" />
        </mxCell>
        <mxCell id="mAWrplCgp_W955-lHM9R-15" value="" style="edgeStyle=orthogonalEdgeStyle;shape=connector;curved=0;rounded=1;orthogonalLoop=1;jettySize=auto;exitX=1;exitY=0.5;exitDx=0;exitDy=0;exitPerimeter=0;entryX=0;entryY=0.5;entryDx=0;entryDy=0;entryPerimeter=0;strokeColor=default;strokeWidth=1;align=center;verticalAlign=middle;fontFamily=Helvetica;fontSize=11;fontColor=default;labelBackgroundColor=default;endArrow=classic;dashed=1;dashPattern=1 4;opacity=20;" edge="1" parent="mAWrplCgp_W955-lHM9R-1" source="mAWrplCgp_W955-lHM9R-6" target="mAWrplCgp_W955-lHM9R-12">
          <mxGeometry relative="1" as="geometry">
            <Array as="points">
              <mxPoint x="780" y="253" />
              <mxPoint x="780" y="460" />
            </Array>
          </mxGeometry>
        </mxCell>
        <mxCell id="mAWrplCgp_W955-lHM9R-16" value="" style="edgeStyle=orthogonalEdgeStyle;shape=connector;curved=0;rounded=1;orthogonalLoop=1;jettySize=auto;exitX=1;exitY=0.5;exitDx=0;exitDy=0;exitPerimeter=0;entryX=0;entryY=0.5;entryDx=0;entryDy=0;entryPerimeter=0;strokeColor=default;strokeWidth=1;align=center;verticalAlign=middle;fontFamily=Helvetica;fontSize=11;fontColor=default;labelBackgroundColor=default;endArrow=classic;dashed=1;dashPattern=1 4;opacity=20;" edge="1" parent="mAWrplCgp_W955-lHM9R-1" source="mAWrplCgp_W955-lHM9R-10" target="mAWrplCgp_W955-lHM9R-12">
          <mxGeometry relative="1" as="geometry">
            <Array as="points">
              <mxPoint x="780" y="393" />
              <mxPoint x="780" y="460" />
            </Array>
          </mxGeometry>
        </mxCell>
        <mxCell id="mAWrplCgp_W955-lHM9R-17" value="Cruel" style="rounded=1;container=1;recursiveResize=0;verticalAlign=top;arcSize=6;fontStyle=1;autosize=0;points=[];absoluteArcSize=1;shadow=1;strokeColor=#6c8ebf;fillColor=#dae8fc;fontFamily=Helvetica;fontSize=11;gradientColor=#0050EF;fontColor=default;labelBackgroundColor=none;" vertex="1" parent="mAWrplCgp_W955-lHM9R-1">
          <mxGeometry x="600" y="40" width="138" height="100" as="geometry">
            <mxRectangle x="-98" y="-1230" width="99" height="26" as="alternateBounds" />
          </mxGeometry>
        </mxCell>
        <mxCell id="mAWrplCgp_W955-lHM9R-18" value="" style="rounded=1;sketch=0;points=[[0,0.5,0,0,0],[1,0.5,0,0,0]];arcSize=50;fontFamily=Helvetica;fontSize=11;fontColor=default;labelBackgroundColor=none;" vertex="1" parent="mAWrplCgp_W955-lHM9R-17">
          <mxGeometry x="-16.75" y="27.5" width="36.75" height="25" as="geometry" />
        </mxCell>
        <mxCell id="mAWrplCgp_W955-lHM9R-19" value="" style="rounded=1;sketch=0;points=[[0,0.5,0,0,0],[1,0.5,0,0,0]];fillColor=#1ba1e2;fontColor=#ffffff;strokeColor=#006EAF;arcSize=50;fontFamily=Helvetica;fontSize=11;labelBackgroundColor=none;" vertex="1" parent="mAWrplCgp_W955-lHM9R-17">
          <mxGeometry x="120" y="27.5" width="36" height="25" as="geometry" />
        </mxCell>
        <mxCell id="mAWrplCgp_W955-lHM9R-20" value="✗" style="rounded=1;sketch=0;points=[[0,0.5,0,0,0],[1,0.5,0,0,0]];fillColor=#1ba1e2;fontColor=#ffffff;strokeColor=#006EAF;arcSize=50;fontFamily=Helvetica;fontSize=11;textOpacity=30;labelBackgroundColor=none;" vertex="1" parent="mAWrplCgp_W955-lHM9R-17">
          <mxGeometry x="120" y="60" width="36" height="25" as="geometry" />
        </mxCell>
        <mxCell id="mAWrplCgp_W955-lHM9R-21" style="edgeStyle=orthogonalEdgeStyle;shape=connector;curved=0;rounded=1;orthogonalLoop=1;jettySize=auto;html=1;exitX=1;exitY=0.5;exitDx=0;exitDy=0;exitPerimeter=0;entryX=0;entryY=0.5;entryDx=0;entryDy=0;entryPerimeter=0;strokeColor=default;strokeWidth=2;align=center;verticalAlign=middle;fontFamily=Helvetica;fontSize=11;fontColor=default;labelBackgroundColor=default;endArrow=classic;" edge="1" parent="mAWrplCgp_W955-lHM9R-1" source="mAWrplCgp_W955-lHM9R-19" target="mAWrplCgp_W955-lHM9R-11">
          <mxGeometry relative="1" as="geometry" />
        </mxCell>
        <mxCell id="mAWrplCgp_W955-lHM9R-22" style="edgeStyle=orthogonalEdgeStyle;shape=connector;curved=0;rounded=1;orthogonalLoop=1;jettySize=auto;html=1;exitX=1;exitY=0.5;exitDx=0;exitDy=0;exitPerimeter=0;entryX=0;entryY=0.5;entryDx=0;entryDy=0;entryPerimeter=0;strokeColor=default;strokeWidth=1;align=center;verticalAlign=middle;fontFamily=Helvetica;fontSize=11;fontColor=default;labelBackgroundColor=default;endArrow=classic;dashed=1;opacity=20;" edge="1" parent="mAWrplCgp_W955-lHM9R-1" source="mAWrplCgp_W955-lHM9R-20" target="mAWrplCgp_W955-lHM9R-12">
          <mxGeometry relative="1" as="geometry">
            <Array as="points">
              <mxPoint x="780" y="113" />
              <mxPoint x="780" y="460" />
            </Array>
          </mxGeometry>
        </mxCell>
        <mxCell id="mAWrplCgp_W955-lHM9R-23" value="1then2" style="rounded=1;whiteSpace=wrap;html=1;sketch=0;container=1;recursiveResize=0;verticalAlign=top;arcSize=6;fontStyle=1;autosize=0;points=[];absoluteArcSize=1;shadow=1;strokeColor=#001DBC;fillColor=#DAE8FC;fontColor=#ffffff;gradientColor=#0050EF;fontFamily=Helvetica;fontSize=11;labelBackgroundColor=none;" vertex="1" parent="mAWrplCgp_W955-lHM9R-1">
          <mxGeometry x="410" y="90" width="70" height="100" as="geometry">
            <mxRectangle x="-98" y="-1230" width="99" height="26" as="alternateBounds" />
          </mxGeometry>
        </mxCell>
        <mxCell id="mAWrplCgp_W955-lHM9R-24" value="2" style="rounded=1;whiteSpace=wrap;html=1;sketch=0;points=[[0,0.5,0,0,0],[1,0.5,0,0,0]];arcSize=50;fontFamily=Helvetica;fontSize=11;fontColor=default;labelBackgroundColor=none;" vertex="1" parent="mAWrplCgp_W955-lHM9R-23">
          <mxGeometry x="-10" y="60" width="40" height="25" as="geometry" />
        </mxCell>
        <mxCell id="mAWrplCgp_W955-lHM9R-25" value="1" style="rounded=1;whiteSpace=wrap;html=1;sketch=0;points=[[0,0.5,0,0,0],[1,0.5,0,0,0]];arcSize=50;fontFamily=Helvetica;fontSize=11;fontColor=default;labelBackgroundColor=none;" vertex="1" parent="mAWrplCgp_W955-lHM9R-23">
          <mxGeometry x="-10" y="30" width="40" height="25" as="geometry" />
        </mxCell>
        <mxCell id="mAWrplCgp_W955-lHM9R-26" value="1" style="rounded=1;whiteSpace=wrap;html=1;sketch=0;points=[[0,0.5,0,0,0],[1,0.5,0,0,0]];fillColor=#1ba1e2;fontColor=#ffffff;strokeColor=#006EAF;arcSize=50;fontFamily=Helvetica;fontSize=11;labelBackgroundColor=none;" vertex="1" parent="mAWrplCgp_W955-lHM9R-23">
          <mxGeometry x="40" y="30" width="40" height="25" as="geometry" />
        </mxCell>
        <mxCell id="mAWrplCgp_W955-lHM9R-27" value="2" style="rounded=1;whiteSpace=wrap;html=1;sketch=0;points=[[0,0.5,0,0,0],[1,0.5,0,0,0]];fillColor=#1ba1e2;fontColor=#ffffff;strokeColor=#006EAF;arcSize=50;fontFamily=Helvetica;fontSize=11;labelBackgroundColor=none;" vertex="1" parent="mAWrplCgp_W955-lHM9R-23">
          <mxGeometry x="40" y="60" width="40" height="25" as="geometry" />
        </mxCell>
        <mxCell id="mAWrplCgp_W955-lHM9R-28" value="1then2" style="rounded=1;whiteSpace=wrap;html=1;sketch=0;container=1;recursiveResize=0;verticalAlign=top;arcSize=6;fontStyle=1;autosize=0;points=[];absoluteArcSize=1;shadow=1;strokeColor=#001DBC;fillColor=#DAE8FC;fontColor=#ffffff;gradientColor=#0050EF;fontFamily=Helvetica;fontSize=11;labelBackgroundColor=none;" vertex="1" parent="mAWrplCgp_W955-lHM9R-1">
          <mxGeometry x="220" y="320" width="70" height="100" as="geometry">
            <mxRectangle x="-98" y="-1230" width="99" height="26" as="alternateBounds" />
          </mxGeometry>
        </mxCell>
        <mxCell id="mAWrplCgp_W955-lHM9R-29" value="2" style="rounded=1;whiteSpace=wrap;html=1;sketch=0;points=[[0,0.5,0,0,0],[1,0.5,0,0,0]];arcSize=50;fontFamily=Helvetica;fontSize=11;fontColor=default;labelBackgroundColor=none;" vertex="1" parent="mAWrplCgp_W955-lHM9R-28">
          <mxGeometry x="-10" y="60" width="40" height="25" as="geometry" />
        </mxCell>
        <mxCell id="mAWrplCgp_W955-lHM9R-30" value="1" style="rounded=1;whiteSpace=wrap;html=1;sketch=0;points=[[0,0.5,0,0,0],[1,0.5,0,0,0]];arcSize=50;fontFamily=Helvetica;fontSize=11;fontColor=default;labelBackgroundColor=none;" vertex="1" parent="mAWrplCgp_W955-lHM9R-28">
          <mxGeometry x="-10" y="30" width="40" height="25" as="geometry" />
        </mxCell>
        <mxCell id="mAWrplCgp_W955-lHM9R-31" value="1" style="rounded=1;whiteSpace=wrap;html=1;sketch=0;points=[[0,0.5,0,0,0],[1,0.5,0,0,0]];fillColor=#1ba1e2;fontColor=#ffffff;strokeColor=#006EAF;arcSize=50;fontFamily=Helvetica;fontSize=11;labelBackgroundColor=none;" vertex="1" parent="mAWrplCgp_W955-lHM9R-28">
          <mxGeometry x="40" y="30" width="40" height="25" as="geometry" />
        </mxCell>
        <mxCell id="mAWrplCgp_W955-lHM9R-32" value="2" style="rounded=1;whiteSpace=wrap;html=1;sketch=0;points=[[0,0.5,0,0,0],[1,0.5,0,0,0]];fillColor=#1ba1e2;fontColor=#ffffff;strokeColor=#006EAF;arcSize=50;fontFamily=Helvetica;fontSize=11;labelBackgroundColor=none;" vertex="1" parent="mAWrplCgp_W955-lHM9R-28">
          <mxGeometry x="40" y="60" width="40" height="25" as="geometry" />
        </mxCell>
        <mxCell id="mAWrplCgp_W955-lHM9R-33" style="edgeStyle=orthogonalEdgeStyle;shape=connector;curved=0;rounded=1;orthogonalLoop=1;jettySize=auto;html=1;exitX=1;exitY=0.5;exitDx=0;exitDy=0;exitPerimeter=0;entryX=0;entryY=0.5;entryDx=0;entryDy=0;entryPerimeter=0;strokeColor=default;strokeWidth=2;align=center;verticalAlign=middle;fontFamily=Helvetica;fontSize=11;fontColor=default;labelBackgroundColor=default;endArrow=classic;" edge="1" parent="mAWrplCgp_W955-lHM9R-1" source="mAWrplCgp_W955-lHM9R-32" target="mAWrplCgp_W955-lHM9R-25">
          <mxGeometry relative="1" as="geometry" />
        </mxCell>
        <mxCell id="mAWrplCgp_W955-lHM9R-34" style="edgeStyle=orthogonalEdgeStyle;shape=connector;curved=0;rounded=1;orthogonalLoop=1;jettySize=auto;html=1;exitX=1;exitY=0.5;exitDx=0;exitDy=0;exitPerimeter=0;entryX=0;entryY=0.5;entryDx=0;entryDy=0;entryPerimeter=0;strokeColor=default;strokeWidth=2;align=center;verticalAlign=middle;fontFamily=Helvetica;fontSize=11;fontColor=default;labelBackgroundColor=default;endArrow=classic;" edge="1" parent="mAWrplCgp_W955-lHM9R-1" source="mAWrplCgp_W955-lHM9R-31" target="mAWrplCgp_W955-lHM9R-8">
          <mxGeometry relative="1" as="geometry">
            <mxPoint x="503.25" y="360" as="targetPoint" />
          </mxGeometry>
        </mxCell>
        <mxCell id="mAWrplCgp_W955-lHM9R-35" style="edgeStyle=orthogonalEdgeStyle;shape=connector;curved=0;rounded=1;orthogonalLoop=1;jettySize=auto;html=1;exitX=1;exitY=0.5;exitDx=0;exitDy=0;exitPerimeter=0;entryX=0;entryY=0.5;entryDx=0;entryDy=0;entryPerimeter=0;strokeColor=default;strokeWidth=2;align=center;verticalAlign=middle;fontFamily=Helvetica;fontSize=11;fontColor=default;labelBackgroundColor=default;endArrow=classic;" edge="1" parent="mAWrplCgp_W955-lHM9R-1" source="mAWrplCgp_W955-lHM9R-26" target="mAWrplCgp_W955-lHM9R-18">
          <mxGeometry relative="1" as="geometry" />
        </mxCell>
        <mxCell id="mAWrplCgp_W955-lHM9R-36" style="edgeStyle=orthogonalEdgeStyle;shape=connector;curved=0;rounded=1;orthogonalLoop=1;jettySize=auto;html=1;exitX=1;exitY=0.5;exitDx=0;exitDy=0;exitPerimeter=0;entryX=0;entryY=0.5;entryDx=0;entryDy=0;entryPerimeter=0;strokeColor=default;strokeWidth=2;align=center;verticalAlign=middle;fontFamily=Helvetica;fontSize=11;fontColor=default;labelBackgroundColor=default;endArrow=classic;" edge="1" parent="mAWrplCgp_W955-lHM9R-1" source="mAWrplCgp_W955-lHM9R-27" target="mAWrplCgp_W955-lHM9R-4">
          <mxGeometry relative="1" as="geometry" />
        </mxCell>
        <mxCell id="mAWrplCgp_W955-lHM9R-37" style="edgeStyle=orthogonalEdgeStyle;shape=connector;curved=0;rounded=1;orthogonalLoop=1;jettySize=auto;html=1;entryX=0;entryY=0.5;entryDx=0;entryDy=0;entryPerimeter=0;strokeColor=default;strokeWidth=2;align=center;verticalAlign=middle;fontFamily=Helvetica;fontSize=11;fontColor=default;labelBackgroundColor=default;endArrow=classic;" edge="1" parent="mAWrplCgp_W955-lHM9R-1" source="mAWrplCgp_W955-lHM9R-2" target="mAWrplCgp_W955-lHM9R-24">
          <mxGeometry relative="1" as="geometry" />
        </mxCell>
        <mxCell id="mAWrplCgp_W955-lHM9R-38" style="edgeStyle=orthogonalEdgeStyle;shape=connector;curved=0;rounded=1;orthogonalLoop=1;jettySize=auto;html=1;exitX=1;exitY=0.5;exitDx=0;exitDy=0;exitPerimeter=0;entryX=0;entryY=0.5;entryDx=0;entryDy=0;entryPerimeter=0;strokeColor=default;strokeWidth=2;align=center;verticalAlign=middle;fontFamily=Helvetica;fontSize=11;fontColor=default;labelBackgroundColor=default;endArrow=classic;" edge="1" parent="mAWrplCgp_W955-lHM9R-1" source="mAWrplCgp_W955-lHM9R-2" target="mAWrplCgp_W955-lHM9R-30">
          <mxGeometry relative="1" as="geometry" />
        </mxCell>
        <mxCell id="mAWrplCgp_W955-lHM9R-39" style="edgeStyle=orthogonalEdgeStyle;shape=connector;curved=0;rounded=1;orthogonalLoop=1;jettySize=auto;html=1;exitX=1;exitY=0.5;exitDx=0;exitDy=0;exitPerimeter=0;entryX=0;entryY=0.5;entryDx=0;entryDy=0;entryPerimeter=0;strokeColor=default;strokeWidth=2;align=center;verticalAlign=middle;fontFamily=Helvetica;fontSize=11;fontColor=default;labelBackgroundColor=default;endArrow=classic;" edge="1" parent="mAWrplCgp_W955-lHM9R-1" source="mAWrplCgp_W955-lHM9R-2" target="mAWrplCgp_W955-lHM9R-29">
          <mxGeometry relative="1" as="geometry" />
        </mxCell>
        <mxCell id="mAWrplCgp_W955-lHM9R-40" value="B" style="rounded=1;whiteSpace=wrap;html=1;sketch=1;curveFitting=1;jiggle=2;dashed=1;fillColor=#f8cecc;strokeColor=#b85450;" vertex="1" parent="mAWrplCgp_W955-lHM9R-1">
          <mxGeometry x="356" y="260" width="20" height="20" as="geometry" />
        </mxCell>
        <mxCell id="mAWrplCgp_W955-lHM9R-41" value="C" style="rounded=1;whiteSpace=wrap;html=1;sketch=1;curveFitting=1;jiggle=2;dashed=1;fillColor=#f8cecc;strokeColor=#b85450;" vertex="1" parent="mAWrplCgp_W955-lHM9R-1">
          <mxGeometry x="516" y="70" width="20" height="20" as="geometry" />
        </mxCell>
        <mxCell id="mAWrplCgp_W955-lHM9R-42" value="D" style="rounded=1;whiteSpace=wrap;html=1;sketch=1;curveFitting=1;jiggle=2;dashed=1;fillColor=#f8cecc;strokeColor=#b85450;" vertex="1" parent="mAWrplCgp_W955-lHM9R-1">
          <mxGeometry x="516" y="212" width="20" height="20" as="geometry" />
        </mxCell>
        <mxCell id="mAWrplCgp_W955-lHM9R-43" value="A" style="rounded=1;whiteSpace=wrap;html=1;sketch=1;curveFitting=1;jiggle=2;dashed=1;fillColor=#f8cecc;strokeColor=#b85450;arcSize=0;" vertex="1" parent="mAWrplCgp_W955-lHM9R-1">
          <mxGeometry x="440" y="368" width="20" height="20" as="geometry" />
        </mxCell>
        <mxCell id="mAWrplCgp_W955-lHM9R-44" value="a" style="rounded=1;whiteSpace=wrap;html=1;sketch=1;curveFitting=1;jiggle=2;dashed=1;fillColor=#fff2cc;strokeColor=#d6b656;" vertex="1" parent="mAWrplCgp_W955-lHM9R-1">
          <mxGeometry x="760" y="336" width="20" height="20" as="geometry" />
        </mxCell>
        <mxCell id="mAWrplCgp_W955-lHM9R-45" value="c" style="rounded=1;whiteSpace=wrap;html=1;sketch=1;curveFitting=1;jiggle=2;dashed=1;fillColor=#fff2cc;strokeColor=#d6b656;" vertex="1" parent="mAWrplCgp_W955-lHM9R-1">
          <mxGeometry x="760" y="196" width="20" height="20" as="geometry" />
        </mxCell>
        <mxCell id="mAWrplCgp_W955-lHM9R-46" value="b" style="rounded=1;whiteSpace=wrap;html=1;sketch=1;curveFitting=1;jiggle=2;dashed=1;fillColor=#fff2cc;strokeColor=#d6b656;" vertex="1" parent="mAWrplCgp_W955-lHM9R-1">
          <mxGeometry x="760" y="56" width="20" height="20" as="geometry" />
        </mxCell>
        <mxCell id="mAWrplCgp_W955-lHM9R-47" value="[{&quot;&quot;,&quot;World},{&quot;&quot;,&quot;Cruel&quot;},{&quot;&quot;,&quot;Hello&quot;}]" style="rounded=1;whiteSpace=wrap;html=1;sketch=1;curveFitting=1;jiggle=2;dashed=1;fillColor=#fff2cc;strokeColor=#d6b656;" vertex="1" parent="mAWrplCgp_W955-lHM9R-1">
          <mxGeometry x="888" y="268" width="208" height="24" as="geometry" />
        </mxCell>
        <mxCell id="JaK3MsI757HDltVLX9fi-0" value="" style="endArrow=classic;html=1;rounded=0;dashed=1;fillColor=#fff2cc;strokeColor=#d6b656;strokeWidth=2;dashPattern=1 2;" edge="1" parent="mAWrplCgp_W955-lHM9R-1">
          <mxGeometry width="50" height="50" relative="1" as="geometry">
            <mxPoint x="928" y="256" as="sourcePoint" />
            <mxPoint x="1104" y="256" as="targetPoint" />
          </mxGeometry>
        </mxCell>
      </root>
    </mxGraphModel>
  </diagram>
  <diagram name="seq4" id="yavLaYkhksaVCzstrS9v">
    <mxGraphModel dx="1100" dy="661" grid="1" gridSize="10" guides="1" tooltips="1" connect="1" arrows="1" fold="1" page="1" pageScale="1" pageWidth="1100" pageHeight="850" math="0" shadow="0">
      <root>
        <mxCell id="sAgTPO_ePFra4Tp7mOkt-0" />
        <mxCell id="sAgTPO_ePFra4Tp7mOkt-1" parent="sAgTPO_ePFra4Tp7mOkt-0" />
        <mxCell id="sAgTPO_ePFra4Tp7mOkt-2" value="" style="rhombus;rounded=1;fontStyle=1;glass=0;sketch=0;fontSize=12;points=[[0,0.5,0,0,0],[0.5,0,0,0,0],[0.5,1,0,0,0],[1,0.5,0,0,0]];shadow=1;fontFamily=Helvetica;fontColor=default;labelBackgroundColor=none;" parent="sAgTPO_ePFra4Tp7mOkt-1" vertex="1">
          <mxGeometry x="40" y="200" width="40" height="40" as="geometry" />
        </mxCell>
        <mxCell id="sAgTPO_ePFra4Tp7mOkt-3" value="World" style="rounded=1;container=1;recursiveResize=0;verticalAlign=top;arcSize=6;fontStyle=1;autosize=0;points=[];absoluteArcSize=1;shadow=1;strokeColor=#6c8ebf;fillColor=#dae8fc;fontFamily=Helvetica;fontSize=11;gradientColor=#0050EF;fontColor=default;labelBackgroundColor=none;" parent="sAgTPO_ePFra4Tp7mOkt-1" vertex="1">
          <mxGeometry x="180" y="180" width="138" height="100" as="geometry">
            <mxRectangle x="-98" y="-1230" width="99" height="26" as="alternateBounds" />
          </mxGeometry>
        </mxCell>
        <mxCell id="sAgTPO_ePFra4Tp7mOkt-4" value="" style="rounded=1;sketch=0;points=[[0,0.5,0,0,0],[1,0.5,0,0,0]];arcSize=50;fontFamily=Helvetica;fontSize=11;fontColor=default;labelBackgroundColor=none;" parent="sAgTPO_ePFra4Tp7mOkt-3" vertex="1">
          <mxGeometry x="-16.75" y="27.5" width="36.75" height="25" as="geometry" />
        </mxCell>
        <mxCell id="sAgTPO_ePFra4Tp7mOkt-5" value="" style="rounded=1;sketch=0;points=[[0,0.5,0,0,0],[1,0.5,0,0,0]];fillColor=#1ba1e2;fontColor=#ffffff;strokeColor=#006EAF;arcSize=50;fontFamily=Helvetica;fontSize=11;labelBackgroundColor=none;" parent="sAgTPO_ePFra4Tp7mOkt-3" vertex="1">
          <mxGeometry x="120" y="27.5" width="36" height="25" as="geometry" />
        </mxCell>
        <mxCell id="sAgTPO_ePFra4Tp7mOkt-6" value="✗" style="rounded=1;sketch=0;points=[[0,0.5,0,0,0],[1,0.5,0,0,0]];fillColor=#1ba1e2;fontColor=#ffffff;strokeColor=#006EAF;arcSize=50;fontFamily=Helvetica;fontSize=11;textOpacity=30;labelBackgroundColor=none;" parent="sAgTPO_ePFra4Tp7mOkt-3" vertex="1">
          <mxGeometry x="120" y="60" width="36" height="25" as="geometry" />
        </mxCell>
        <mxCell id="sAgTPO_ePFra4Tp7mOkt-7" value="Hello" style="rounded=1;container=1;recursiveResize=0;verticalAlign=top;arcSize=6;fontStyle=1;autosize=0;points=[];absoluteArcSize=1;shadow=1;strokeColor=#6c8ebf;fillColor=#dae8fc;fontFamily=Helvetica;fontSize=11;gradientColor=#0050EF;fontColor=default;labelBackgroundColor=none;" parent="sAgTPO_ePFra4Tp7mOkt-1" vertex="1">
          <mxGeometry x="180" y="320" width="138" height="100" as="geometry">
            <mxRectangle x="-98" y="-1230" width="99" height="26" as="alternateBounds" />
          </mxGeometry>
        </mxCell>
        <mxCell id="sAgTPO_ePFra4Tp7mOkt-8" value="" style="rounded=1;sketch=0;points=[[0,0.5,0,0,0],[1,0.5,0,0,0]];arcSize=50;fontFamily=Helvetica;fontSize=11;fontColor=default;labelBackgroundColor=none;" parent="sAgTPO_ePFra4Tp7mOkt-7" vertex="1">
          <mxGeometry x="-16.75" y="30" width="36.75" height="25" as="geometry" />
        </mxCell>
        <mxCell id="sAgTPO_ePFra4Tp7mOkt-9" value="" style="rounded=1;sketch=0;points=[[0,0.5,0,0,0],[1,0.5,0,0,0]];fillColor=#1ba1e2;fontColor=#ffffff;strokeColor=#006EAF;arcSize=50;fontFamily=Helvetica;fontSize=11;labelBackgroundColor=none;" parent="sAgTPO_ePFra4Tp7mOkt-7" vertex="1">
          <mxGeometry x="120" y="27.5" width="36" height="25" as="geometry" />
        </mxCell>
        <mxCell id="sAgTPO_ePFra4Tp7mOkt-10" value="✗" style="rounded=1;sketch=0;points=[[0,0.5,0,0,0],[1,0.5,0,0,0]];fillColor=#1ba1e2;fontColor=#ffffff;strokeColor=#006EAF;arcSize=50;fontFamily=Helvetica;fontSize=11;textOpacity=30;labelBackgroundColor=none;" parent="sAgTPO_ePFra4Tp7mOkt-7" vertex="1">
          <mxGeometry x="120" y="60" width="36" height="25" as="geometry" />
        </mxCell>
        <mxCell id="sAgTPO_ePFra4Tp7mOkt-11" value="" style="rhombus;rounded=1;fontStyle=1;glass=0;sketch=0;fontSize=12;points=[[0,0.5,0,0,0],[0.5,0,0,0,0],[0.5,1,0,0,0],[1,0.5,0,0,0]];shadow=1;fillColor=#0050ef;fontColor=#ffffff;strokeColor=#001DBC;fontFamily=Helvetica;labelBackgroundColor=none;" parent="sAgTPO_ePFra4Tp7mOkt-1" vertex="1">
          <mxGeometry x="740" y="280" width="40" height="40" as="geometry" />
        </mxCell>
        <mxCell id="sAgTPO_ePFra4Tp7mOkt-12" value="✗" style="rhombus;whiteSpace=wrap;html=1;rounded=1;fillColor=#0050ef;fontColor=#ffffff;strokeColor=#001DBC;fontStyle=1;glass=0;sketch=0;fontSize=12;points=[[0,0.5,0,0,0],[0.5,0,0,0,0],[0.5,1,0,0,0],[1,0.5,0,0,0]];shadow=1;opacity=30;textOpacity=30;fontFamily=Helvetica;labelBackgroundColor=none;" parent="sAgTPO_ePFra4Tp7mOkt-1" vertex="1">
          <mxGeometry x="560" y="440" width="40" height="40" as="geometry" />
        </mxCell>
        <mxCell id="sAgTPO_ePFra4Tp7mOkt-15" value="" style="edgeStyle=orthogonalEdgeStyle;shape=connector;curved=0;rounded=1;orthogonalLoop=1;jettySize=auto;exitX=1;exitY=0.5;exitDx=0;exitDy=0;exitPerimeter=0;entryX=0;entryY=0.5;entryDx=0;entryDy=0;entryPerimeter=0;strokeColor=default;strokeWidth=1;align=center;verticalAlign=middle;fontFamily=Helvetica;fontSize=11;fontColor=default;labelBackgroundColor=default;endArrow=classic;dashed=1;dashPattern=1 4;" parent="sAgTPO_ePFra4Tp7mOkt-1" source="sAgTPO_ePFra4Tp7mOkt-6" target="sAgTPO_ePFra4Tp7mOkt-12" edge="1">
          <mxGeometry relative="1" as="geometry">
            <Array as="points">
              <mxPoint x="370" y="253" />
              <mxPoint x="370" y="460" />
            </Array>
          </mxGeometry>
        </mxCell>
        <mxCell id="sAgTPO_ePFra4Tp7mOkt-16" value="" style="edgeStyle=orthogonalEdgeStyle;shape=connector;curved=0;rounded=1;orthogonalLoop=1;jettySize=auto;exitX=1;exitY=0.5;exitDx=0;exitDy=0;exitPerimeter=0;entryX=0;entryY=0.5;entryDx=0;entryDy=0;entryPerimeter=0;strokeColor=default;strokeWidth=1;align=center;verticalAlign=middle;fontFamily=Helvetica;fontSize=11;fontColor=default;labelBackgroundColor=default;endArrow=classic;dashed=1;dashPattern=1 4;" parent="sAgTPO_ePFra4Tp7mOkt-1" source="sAgTPO_ePFra4Tp7mOkt-10" target="sAgTPO_ePFra4Tp7mOkt-12" edge="1">
          <mxGeometry relative="1" as="geometry">
            <Array as="points">
              <mxPoint x="370" y="393" />
              <mxPoint x="370" y="460" />
            </Array>
          </mxGeometry>
        </mxCell>
        <mxCell id="sAgTPO_ePFra4Tp7mOkt-17" value="Cruel" style="rounded=1;container=1;recursiveResize=0;verticalAlign=top;arcSize=6;fontStyle=1;autosize=0;points=[];absoluteArcSize=1;shadow=1;strokeColor=#6c8ebf;fillColor=#dae8fc;fontFamily=Helvetica;fontSize=11;gradientColor=#0050EF;fontColor=default;labelBackgroundColor=none;" parent="sAgTPO_ePFra4Tp7mOkt-1" vertex="1">
          <mxGeometry x="180" y="40" width="138" height="100" as="geometry">
            <mxRectangle x="-98" y="-1230" width="99" height="26" as="alternateBounds" />
          </mxGeometry>
        </mxCell>
        <mxCell id="sAgTPO_ePFra4Tp7mOkt-18" value="" style="rounded=1;sketch=0;points=[[0,0.5,0,0,0],[1,0.5,0,0,0]];arcSize=50;fontFamily=Helvetica;fontSize=11;fontColor=default;labelBackgroundColor=none;" parent="sAgTPO_ePFra4Tp7mOkt-17" vertex="1">
          <mxGeometry x="-16.75" y="27.5" width="36.75" height="25" as="geometry" />
        </mxCell>
        <mxCell id="sAgTPO_ePFra4Tp7mOkt-19" value="" style="rounded=1;sketch=0;points=[[0,0.5,0,0,0],[1,0.5,0,0,0]];fillColor=#1ba1e2;fontColor=#ffffff;strokeColor=#006EAF;arcSize=50;fontFamily=Helvetica;fontSize=11;labelBackgroundColor=none;" parent="sAgTPO_ePFra4Tp7mOkt-17" vertex="1">
          <mxGeometry x="120" y="27.5" width="36" height="25" as="geometry" />
        </mxCell>
        <mxCell id="sAgTPO_ePFra4Tp7mOkt-20" value="✗" style="rounded=1;sketch=0;points=[[0,0.5,0,0,0],[1,0.5,0,0,0]];fillColor=#1ba1e2;fontColor=#ffffff;strokeColor=#006EAF;arcSize=50;fontFamily=Helvetica;fontSize=11;textOpacity=30;labelBackgroundColor=none;" parent="sAgTPO_ePFra4Tp7mOkt-17" vertex="1">
          <mxGeometry x="120" y="60" width="36" height="25" as="geometry" />
        </mxCell>
        <mxCell id="sAgTPO_ePFra4Tp7mOkt-22" style="edgeStyle=orthogonalEdgeStyle;shape=connector;curved=0;rounded=1;orthogonalLoop=1;jettySize=auto;html=1;exitX=1;exitY=0.5;exitDx=0;exitDy=0;exitPerimeter=0;entryX=0;entryY=0.5;entryDx=0;entryDy=0;entryPerimeter=0;strokeColor=default;strokeWidth=1;align=center;verticalAlign=middle;fontFamily=Helvetica;fontSize=11;fontColor=default;labelBackgroundColor=default;endArrow=classic;dashed=1;" parent="sAgTPO_ePFra4Tp7mOkt-1" source="sAgTPO_ePFra4Tp7mOkt-20" target="sAgTPO_ePFra4Tp7mOkt-12" edge="1">
          <mxGeometry relative="1" as="geometry">
            <Array as="points">
              <mxPoint x="370" y="113" />
              <mxPoint x="370" y="460" />
            </Array>
          </mxGeometry>
        </mxCell>
        <mxCell id="sAgTPO_ePFra4Tp7mOkt-23" value="1then2" style="rounded=1;whiteSpace=wrap;html=1;sketch=0;container=1;recursiveResize=0;verticalAlign=top;arcSize=6;fontStyle=1;autosize=0;points=[];absoluteArcSize=1;shadow=1;strokeColor=#001DBC;fillColor=#DAE8FC;fontColor=#ffffff;gradientColor=#0050EF;fontFamily=Helvetica;fontSize=11;labelBackgroundColor=none;" parent="sAgTPO_ePFra4Tp7mOkt-1" vertex="1">
          <mxGeometry x="600" y="180" width="70" height="100" as="geometry">
            <mxRectangle x="-98" y="-1230" width="99" height="26" as="alternateBounds" />
          </mxGeometry>
        </mxCell>
        <mxCell id="sAgTPO_ePFra4Tp7mOkt-24" value="1" style="rounded=1;whiteSpace=wrap;html=1;sketch=0;points=[[0,0.5,0,0,0],[1,0.5,0,0,0]];arcSize=50;fontFamily=Helvetica;fontSize=11;fontColor=default;labelBackgroundColor=none;" parent="sAgTPO_ePFra4Tp7mOkt-23" vertex="1">
          <mxGeometry x="-10" y="60" width="40" height="25" as="geometry" />
        </mxCell>
        <mxCell id="sAgTPO_ePFra4Tp7mOkt-25" value="2" style="rounded=1;whiteSpace=wrap;html=1;sketch=0;points=[[0,0.5,0,0,0],[1,0.5,0,0,0]];arcSize=50;fontFamily=Helvetica;fontSize=11;fontColor=default;labelBackgroundColor=none;" parent="sAgTPO_ePFra4Tp7mOkt-23" vertex="1">
          <mxGeometry x="-10" y="30" width="40" height="25" as="geometry" />
        </mxCell>
        <mxCell id="sAgTPO_ePFra4Tp7mOkt-26" value="1" style="rounded=1;whiteSpace=wrap;html=1;sketch=0;points=[[0,0.5,0,0,0],[1,0.5,0,0,0]];fillColor=#1ba1e2;fontColor=#ffffff;strokeColor=#006EAF;arcSize=50;fontFamily=Helvetica;fontSize=11;labelBackgroundColor=none;" parent="sAgTPO_ePFra4Tp7mOkt-23" vertex="1">
          <mxGeometry x="40" y="30" width="40" height="25" as="geometry" />
        </mxCell>
        <mxCell id="sAgTPO_ePFra4Tp7mOkt-27" value="2" style="rounded=1;whiteSpace=wrap;html=1;sketch=0;points=[[0,0.5,0,0,0],[1,0.5,0,0,0]];fillColor=#1ba1e2;fontColor=#ffffff;strokeColor=#006EAF;arcSize=50;fontFamily=Helvetica;fontSize=11;labelBackgroundColor=none;" parent="sAgTPO_ePFra4Tp7mOkt-23" vertex="1">
          <mxGeometry x="40" y="60" width="40" height="25" as="geometry" />
        </mxCell>
        <mxCell id="sAgTPO_ePFra4Tp7mOkt-28" value="1then2" style="rounded=1;whiteSpace=wrap;html=1;sketch=0;container=1;recursiveResize=0;verticalAlign=top;arcSize=6;fontStyle=1;autosize=0;points=[];absoluteArcSize=1;shadow=1;strokeColor=#001DBC;fillColor=#DAE8FC;fontColor=#ffffff;gradientColor=#0050EF;fontFamily=Helvetica;fontSize=11;labelBackgroundColor=none;" parent="sAgTPO_ePFra4Tp7mOkt-1" vertex="1">
          <mxGeometry x="440" y="290" width="70" height="100" as="geometry">
            <mxRectangle x="-98" y="-1230" width="99" height="26" as="alternateBounds" />
          </mxGeometry>
        </mxCell>
        <mxCell id="sAgTPO_ePFra4Tp7mOkt-29" value="1" style="rounded=1;whiteSpace=wrap;html=1;sketch=0;points=[[0,0.5,0,0,0],[1,0.5,0,0,0]];arcSize=50;fontFamily=Helvetica;fontSize=11;fontColor=default;labelBackgroundColor=none;" parent="sAgTPO_ePFra4Tp7mOkt-28" vertex="1">
          <mxGeometry x="-10" y="60" width="40" height="25" as="geometry" />
        </mxCell>
        <mxCell id="sAgTPO_ePFra4Tp7mOkt-30" value="2" style="rounded=1;whiteSpace=wrap;html=1;sketch=0;points=[[0,0.5,0,0,0],[1,0.5,0,0,0]];arcSize=50;fontFamily=Helvetica;fontSize=11;fontColor=default;labelBackgroundColor=none;" parent="sAgTPO_ePFra4Tp7mOkt-28" vertex="1">
          <mxGeometry x="-10" y="30" width="40" height="25" as="geometry" />
        </mxCell>
        <mxCell id="sAgTPO_ePFra4Tp7mOkt-31" value="2" style="rounded=1;whiteSpace=wrap;html=1;sketch=0;points=[[0,0.5,0,0,0],[1,0.5,0,0,0]];fillColor=#1ba1e2;fontColor=#ffffff;strokeColor=#006EAF;arcSize=50;fontFamily=Helvetica;fontSize=11;labelBackgroundColor=none;" parent="sAgTPO_ePFra4Tp7mOkt-28" vertex="1">
          <mxGeometry x="40" y="30" width="40" height="25" as="geometry" />
        </mxCell>
        <mxCell id="sAgTPO_ePFra4Tp7mOkt-32" value="1" style="rounded=1;whiteSpace=wrap;html=1;sketch=0;points=[[0,0.5,0,0,0],[1,0.5,0,0,0]];fillColor=#1ba1e2;fontColor=#ffffff;strokeColor=#006EAF;arcSize=50;fontFamily=Helvetica;fontSize=11;labelBackgroundColor=none;" parent="sAgTPO_ePFra4Tp7mOkt-28" vertex="1">
          <mxGeometry x="40" y="60" width="40" height="25" as="geometry" />
        </mxCell>
        <mxCell id="r_BShDRhTZwuCTn2QNDj-1" style="edgeStyle=orthogonalEdgeStyle;shape=connector;curved=0;rounded=1;orthogonalLoop=1;jettySize=auto;html=1;exitX=1;exitY=0.5;exitDx=0;exitDy=0;exitPerimeter=0;entryX=0;entryY=0.5;entryDx=0;entryDy=0;entryPerimeter=0;strokeColor=default;strokeWidth=2;align=center;verticalAlign=middle;fontFamily=Helvetica;fontSize=11;fontColor=default;labelBackgroundColor=default;endArrow=classic;" parent="sAgTPO_ePFra4Tp7mOkt-1" source="sAgTPO_ePFra4Tp7mOkt-19" target="sAgTPO_ePFra4Tp7mOkt-30" edge="1">
          <mxGeometry relative="1" as="geometry" />
        </mxCell>
        <mxCell id="r_BShDRhTZwuCTn2QNDj-3" style="edgeStyle=orthogonalEdgeStyle;shape=connector;curved=0;rounded=1;orthogonalLoop=1;jettySize=auto;html=1;exitX=1;exitY=0.5;exitDx=0;exitDy=0;exitPerimeter=0;entryX=0;entryY=0.5;entryDx=0;entryDy=0;entryPerimeter=0;strokeColor=default;strokeWidth=2;align=center;verticalAlign=middle;fontFamily=Helvetica;fontSize=11;fontColor=default;labelBackgroundColor=default;endArrow=classic;" parent="sAgTPO_ePFra4Tp7mOkt-1" source="sAgTPO_ePFra4Tp7mOkt-2" target="sAgTPO_ePFra4Tp7mOkt-4" edge="1">
          <mxGeometry relative="1" as="geometry" />
        </mxCell>
        <mxCell id="r_BShDRhTZwuCTn2QNDj-4" style="edgeStyle=orthogonalEdgeStyle;shape=connector;curved=0;rounded=1;orthogonalLoop=1;jettySize=auto;html=1;entryX=0;entryY=0.5;entryDx=0;entryDy=0;entryPerimeter=0;strokeColor=default;strokeWidth=2;align=center;verticalAlign=middle;fontFamily=Helvetica;fontSize=11;fontColor=default;labelBackgroundColor=default;endArrow=classic;" parent="sAgTPO_ePFra4Tp7mOkt-1" source="sAgTPO_ePFra4Tp7mOkt-2" target="sAgTPO_ePFra4Tp7mOkt-18" edge="1">
          <mxGeometry relative="1" as="geometry" />
        </mxCell>
        <mxCell id="r_BShDRhTZwuCTn2QNDj-5" style="edgeStyle=orthogonalEdgeStyle;shape=connector;curved=0;rounded=1;orthogonalLoop=1;jettySize=auto;html=1;exitX=1;exitY=0.5;exitDx=0;exitDy=0;exitPerimeter=0;entryX=0;entryY=0.5;entryDx=0;entryDy=0;entryPerimeter=0;strokeColor=default;strokeWidth=2;align=center;verticalAlign=middle;fontFamily=Helvetica;fontSize=11;fontColor=default;labelBackgroundColor=default;endArrow=classic;" parent="sAgTPO_ePFra4Tp7mOkt-1" source="sAgTPO_ePFra4Tp7mOkt-2" target="sAgTPO_ePFra4Tp7mOkt-8" edge="1">
          <mxGeometry relative="1" as="geometry" />
        </mxCell>
        <mxCell id="r_BShDRhTZwuCTn2QNDj-11" style="edgeStyle=orthogonalEdgeStyle;shape=connector;curved=0;rounded=1;orthogonalLoop=1;jettySize=auto;html=1;exitX=1;exitY=0.5;exitDx=0;exitDy=0;exitPerimeter=0;entryX=0;entryY=0.5;entryDx=0;entryDy=0;entryPerimeter=0;strokeColor=default;strokeWidth=2;align=center;verticalAlign=middle;fontFamily=Helvetica;fontSize=11;fontColor=default;labelBackgroundColor=default;endArrow=classic;" parent="sAgTPO_ePFra4Tp7mOkt-1" source="sAgTPO_ePFra4Tp7mOkt-9" target="sAgTPO_ePFra4Tp7mOkt-29" edge="1">
          <mxGeometry relative="1" as="geometry" />
        </mxCell>
        <mxCell id="r_BShDRhTZwuCTn2QNDj-12" style="edgeStyle=orthogonalEdgeStyle;shape=connector;curved=0;rounded=1;orthogonalLoop=1;jettySize=auto;html=1;exitX=1;exitY=0.5;exitDx=0;exitDy=0;exitPerimeter=0;strokeColor=default;strokeWidth=2;align=center;verticalAlign=middle;fontFamily=Helvetica;fontSize=11;fontColor=default;labelBackgroundColor=default;endArrow=classic;entryX=0;entryY=0.5;entryDx=0;entryDy=0;entryPerimeter=0;" parent="sAgTPO_ePFra4Tp7mOkt-1" source="sAgTPO_ePFra4Tp7mOkt-31" target="sAgTPO_ePFra4Tp7mOkt-24" edge="1">
          <mxGeometry relative="1" as="geometry">
            <mxPoint x="580" y="260" as="targetPoint" />
          </mxGeometry>
        </mxCell>
        <mxCell id="r_BShDRhTZwuCTn2QNDj-13" style="edgeStyle=orthogonalEdgeStyle;shape=connector;curved=0;rounded=1;orthogonalLoop=1;jettySize=auto;html=1;exitX=1;exitY=0.5;exitDx=0;exitDy=0;exitPerimeter=0;strokeColor=default;strokeWidth=2;align=center;verticalAlign=middle;fontFamily=Helvetica;fontSize=11;fontColor=default;labelBackgroundColor=default;endArrow=classic;entryX=0;entryY=0.5;entryDx=0;entryDy=0;entryPerimeter=0;" parent="sAgTPO_ePFra4Tp7mOkt-1" source="sAgTPO_ePFra4Tp7mOkt-32" target="sAgTPO_ePFra4Tp7mOkt-11" edge="1">
          <mxGeometry relative="1" as="geometry">
            <mxPoint x="690" y="330" as="targetPoint" />
          </mxGeometry>
        </mxCell>
        <mxCell id="r_BShDRhTZwuCTn2QNDj-14" style="edgeStyle=orthogonalEdgeStyle;shape=connector;curved=0;rounded=1;orthogonalLoop=1;jettySize=auto;html=1;exitX=1;exitY=0.5;exitDx=0;exitDy=0;exitPerimeter=0;entryX=0;entryY=0.5;entryDx=0;entryDy=0;entryPerimeter=0;strokeColor=default;strokeWidth=2;align=center;verticalAlign=middle;fontFamily=Helvetica;fontSize=11;fontColor=default;labelBackgroundColor=default;endArrow=classic;" parent="sAgTPO_ePFra4Tp7mOkt-1" source="sAgTPO_ePFra4Tp7mOkt-26" target="sAgTPO_ePFra4Tp7mOkt-11" edge="1">
          <mxGeometry relative="1" as="geometry" />
        </mxCell>
        <mxCell id="r_BShDRhTZwuCTn2QNDj-15" style="edgeStyle=orthogonalEdgeStyle;shape=connector;curved=0;rounded=1;orthogonalLoop=1;jettySize=auto;html=1;exitX=1;exitY=0.5;exitDx=0;exitDy=0;exitPerimeter=0;entryX=0;entryY=0.5;entryDx=0;entryDy=0;entryPerimeter=0;strokeColor=default;strokeWidth=2;align=center;verticalAlign=middle;fontFamily=Helvetica;fontSize=11;fontColor=default;labelBackgroundColor=default;endArrow=classic;" parent="sAgTPO_ePFra4Tp7mOkt-1" source="sAgTPO_ePFra4Tp7mOkt-27" target="sAgTPO_ePFra4Tp7mOkt-11" edge="1">
          <mxGeometry relative="1" as="geometry" />
        </mxCell>
        <mxCell id="r_BShDRhTZwuCTn2QNDj-16" style="edgeStyle=orthogonalEdgeStyle;shape=connector;curved=0;rounded=1;orthogonalLoop=1;jettySize=auto;html=1;exitX=1;exitY=0.5;exitDx=0;exitDy=0;exitPerimeter=0;entryX=0;entryY=0.5;entryDx=0;entryDy=0;entryPerimeter=0;strokeColor=default;strokeWidth=2;align=center;verticalAlign=middle;fontFamily=Helvetica;fontSize=11;fontColor=default;labelBackgroundColor=default;endArrow=classic;" parent="sAgTPO_ePFra4Tp7mOkt-1" source="sAgTPO_ePFra4Tp7mOkt-5" target="sAgTPO_ePFra4Tp7mOkt-25" edge="1">
          <mxGeometry relative="1" as="geometry" />
        </mxCell>
      </root>
    </mxGraphModel>
  </diagram>
  <diagram name="seq5" id="gxu9eCtmlenusKZ30nRi">
    <mxGraphModel dx="1100" dy="661" grid="1" gridSize="10" guides="1" tooltips="1" connect="1" arrows="1" fold="1" page="1" pageScale="1" pageWidth="1100" pageHeight="850" math="0" shadow="0">
      <root>
        <mxCell id="q9dqT8iFWcZP778gfB1M-0" />
        <mxCell id="q9dqT8iFWcZP778gfB1M-1" parent="q9dqT8iFWcZP778gfB1M-0" />
        <mxCell id="q9dqT8iFWcZP778gfB1M-2" value="" style="rhombus;rounded=1;fontStyle=1;glass=0;sketch=0;fontSize=12;points=[[0,0.5,0,0,0],[0.5,0,0,0,0],[0.5,1,0,0,0],[1,0.5,0,0,0]];shadow=1;fontFamily=Helvetica;fontColor=default;labelBackgroundColor=none;" parent="q9dqT8iFWcZP778gfB1M-1" vertex="1">
          <mxGeometry x="40" y="342.5" width="40" height="40" as="geometry" />
        </mxCell>
        <mxCell id="q9dqT8iFWcZP778gfB1M-3" value="World" style="rounded=1;container=1;recursiveResize=0;verticalAlign=top;arcSize=6;fontStyle=1;autosize=0;points=[];absoluteArcSize=1;shadow=1;strokeColor=#6c8ebf;fillColor=#dae8fc;fontFamily=Helvetica;fontSize=11;gradientColor=#0050EF;fontColor=default;labelBackgroundColor=none;" parent="q9dqT8iFWcZP778gfB1M-1" vertex="1">
          <mxGeometry x="612" y="320" width="138" height="100" as="geometry">
            <mxRectangle x="-98" y="-1230" width="99" height="26" as="alternateBounds" />
          </mxGeometry>
        </mxCell>
        <mxCell id="q9dqT8iFWcZP778gfB1M-4" value="" style="rounded=1;sketch=0;points=[[0,0.5,0,0,0],[1,0.5,0,0,0]];arcSize=50;fontFamily=Helvetica;fontSize=11;fontColor=default;labelBackgroundColor=none;" parent="q9dqT8iFWcZP778gfB1M-3" vertex="1">
          <mxGeometry x="-16.75" y="27.5" width="36.75" height="25" as="geometry" />
        </mxCell>
        <mxCell id="q9dqT8iFWcZP778gfB1M-5" value="" style="rounded=1;sketch=0;points=[[0,0.5,0,0,0],[1,0.5,0,0,0]];fillColor=#1ba1e2;fontColor=#ffffff;strokeColor=#006EAF;arcSize=50;fontFamily=Helvetica;fontSize=11;labelBackgroundColor=none;" parent="q9dqT8iFWcZP778gfB1M-3" vertex="1">
          <mxGeometry x="120" y="27.5" width="36" height="25" as="geometry" />
        </mxCell>
        <mxCell id="q9dqT8iFWcZP778gfB1M-6" value="✗" style="rounded=1;sketch=0;points=[[0,0.5,0,0,0],[1,0.5,0,0,0]];fillColor=#1ba1e2;fontColor=#ffffff;strokeColor=#006EAF;arcSize=50;fontFamily=Helvetica;fontSize=11;textOpacity=30;labelBackgroundColor=none;" parent="q9dqT8iFWcZP778gfB1M-3" vertex="1">
          <mxGeometry x="120" y="60" width="36" height="25" as="geometry" />
        </mxCell>
        <mxCell id="q9dqT8iFWcZP778gfB1M-7" value="Hello" style="rounded=1;container=1;recursiveResize=0;verticalAlign=top;arcSize=6;fontStyle=1;autosize=0;points=[];absoluteArcSize=1;shadow=1;strokeColor=#6c8ebf;fillColor=#dae8fc;fontFamily=Helvetica;fontSize=11;gradientColor=#0050EF;fontColor=default;labelBackgroundColor=none;" parent="q9dqT8iFWcZP778gfB1M-1" vertex="1">
          <mxGeometry x="170" y="320" width="138" height="100" as="geometry">
            <mxRectangle x="-98" y="-1230" width="99" height="26" as="alternateBounds" />
          </mxGeometry>
        </mxCell>
        <mxCell id="q9dqT8iFWcZP778gfB1M-8" value="" style="rounded=1;sketch=0;points=[[0,0.5,0,0,0],[1,0.5,0,0,0]];arcSize=50;fontFamily=Helvetica;fontSize=11;fontColor=default;labelBackgroundColor=none;" parent="q9dqT8iFWcZP778gfB1M-7" vertex="1">
          <mxGeometry x="-16.75" y="30" width="36.75" height="25" as="geometry" />
        </mxCell>
        <mxCell id="q9dqT8iFWcZP778gfB1M-9" value="" style="rounded=1;sketch=0;points=[[0,0.5,0,0,0],[1,0.5,0,0,0]];fillColor=#1ba1e2;fontColor=#ffffff;strokeColor=#006EAF;arcSize=50;fontFamily=Helvetica;fontSize=11;labelBackgroundColor=none;" parent="q9dqT8iFWcZP778gfB1M-7" vertex="1">
          <mxGeometry x="120" y="27.5" width="36" height="25" as="geometry" />
        </mxCell>
        <mxCell id="q9dqT8iFWcZP778gfB1M-10" value="✗" style="rounded=1;sketch=0;points=[[0,0.5,0,0,0],[1,0.5,0,0,0]];fillColor=#1ba1e2;fontColor=#ffffff;strokeColor=#006EAF;arcSize=50;fontFamily=Helvetica;fontSize=11;textOpacity=30;labelBackgroundColor=none;" parent="q9dqT8iFWcZP778gfB1M-7" vertex="1">
          <mxGeometry x="120" y="60" width="36" height="25" as="geometry" />
        </mxCell>
        <mxCell id="q9dqT8iFWcZP778gfB1M-11" value="" style="rhombus;rounded=1;fontStyle=1;glass=0;sketch=0;fontSize=12;points=[[0,0.5,0,0,0],[0.5,0,0,0,0],[0.5,1,0,0,0],[1,0.5,0,0,0]];shadow=1;fillColor=#0050ef;fontColor=#ffffff;strokeColor=#001DBC;fontFamily=Helvetica;labelBackgroundColor=none;" parent="q9dqT8iFWcZP778gfB1M-1" vertex="1">
          <mxGeometry x="840" y="240" width="40" height="40" as="geometry" />
        </mxCell>
        <mxCell id="q9dqT8iFWcZP778gfB1M-12" value="✗" style="rhombus;whiteSpace=wrap;html=1;rounded=1;fillColor=#0050ef;fontColor=#ffffff;strokeColor=#001DBC;fontStyle=1;glass=0;sketch=0;fontSize=12;points=[[0,0.5,0,0,0],[0.5,0,0,0,0],[0.5,1,0,0,0],[1,0.5,0,0,0]];shadow=1;opacity=30;textOpacity=30;fontFamily=Helvetica;labelBackgroundColor=none;" parent="q9dqT8iFWcZP778gfB1M-1" vertex="1">
          <mxGeometry x="840" y="440" width="40" height="40" as="geometry" />
        </mxCell>
        <mxCell id="q9dqT8iFWcZP778gfB1M-14" value="" style="edgeStyle=orthogonalEdgeStyle;shape=connector;curved=0;rounded=1;orthogonalLoop=1;jettySize=auto;exitX=1;exitY=0.5;exitDx=0;exitDy=0;exitPerimeter=0;entryX=0;entryY=0.5;entryDx=0;entryDy=0;entryPerimeter=0;strokeColor=default;strokeWidth=1;align=center;verticalAlign=middle;fontFamily=Helvetica;fontSize=11;fontColor=default;labelBackgroundColor=default;endArrow=classic;dashed=1;dashPattern=1 4;" parent="q9dqT8iFWcZP778gfB1M-1" source="q9dqT8iFWcZP778gfB1M-10" target="q9dqT8iFWcZP778gfB1M-12" edge="1">
          <mxGeometry relative="1" as="geometry">
            <Array as="points">
              <mxPoint x="360" y="393" />
              <mxPoint x="360" y="460" />
            </Array>
          </mxGeometry>
        </mxCell>
        <mxCell id="q9dqT8iFWcZP778gfB1M-15" value="Cruel" style="rounded=1;container=1;recursiveResize=0;verticalAlign=top;arcSize=6;fontStyle=1;autosize=0;points=[];absoluteArcSize=1;shadow=1;strokeColor=#6c8ebf;fillColor=#dae8fc;fontFamily=Helvetica;fontSize=11;gradientColor=#0050EF;fontColor=default;labelBackgroundColor=none;" parent="q9dqT8iFWcZP778gfB1M-1" vertex="1">
          <mxGeometry x="390" y="320" width="138" height="100" as="geometry">
            <mxRectangle x="-98" y="-1230" width="99" height="26" as="alternateBounds" />
          </mxGeometry>
        </mxCell>
        <mxCell id="q9dqT8iFWcZP778gfB1M-16" value="" style="rounded=1;sketch=0;points=[[0,0.5,0,0,0],[1,0.5,0,0,0]];arcSize=50;fontFamily=Helvetica;fontSize=11;fontColor=default;labelBackgroundColor=none;" parent="q9dqT8iFWcZP778gfB1M-15" vertex="1">
          <mxGeometry x="-16.75" y="27.5" width="36.75" height="25" as="geometry" />
        </mxCell>
        <mxCell id="q9dqT8iFWcZP778gfB1M-17" value="" style="rounded=1;sketch=0;points=[[0,0.5,0,0,0],[1,0.5,0,0,0]];fillColor=#1ba1e2;fontColor=#ffffff;strokeColor=#006EAF;arcSize=50;fontFamily=Helvetica;fontSize=11;labelBackgroundColor=none;" parent="q9dqT8iFWcZP778gfB1M-15" vertex="1">
          <mxGeometry x="120" y="27.5" width="36" height="25" as="geometry" />
        </mxCell>
        <mxCell id="q9dqT8iFWcZP778gfB1M-18" value="✗" style="rounded=1;sketch=0;points=[[0,0.5,0,0,0],[1,0.5,0,0,0]];fillColor=#1ba1e2;fontColor=#ffffff;strokeColor=#006EAF;arcSize=50;fontFamily=Helvetica;fontSize=11;textOpacity=30;labelBackgroundColor=none;" parent="q9dqT8iFWcZP778gfB1M-15" vertex="1">
          <mxGeometry x="120" y="60" width="36" height="25" as="geometry" />
        </mxCell>
        <mxCell id="q9dqT8iFWcZP778gfB1M-33" style="edgeStyle=orthogonalEdgeStyle;shape=connector;curved=0;rounded=1;orthogonalLoop=1;jettySize=auto;html=1;exitX=1;exitY=0.5;exitDx=0;exitDy=0;exitPerimeter=0;entryX=0;entryY=0.5;entryDx=0;entryDy=0;entryPerimeter=0;strokeColor=default;strokeWidth=2;align=center;verticalAlign=middle;fontFamily=Helvetica;fontSize=11;fontColor=default;labelBackgroundColor=default;endArrow=classic;" parent="q9dqT8iFWcZP778gfB1M-1" source="q9dqT8iFWcZP778gfB1M-2" target="q9dqT8iFWcZP778gfB1M-8" edge="1">
          <mxGeometry relative="1" as="geometry" />
        </mxCell>
        <mxCell id="JXxA_XhPbJX8pA9UNbZ7-1" style="edgeStyle=orthogonalEdgeStyle;shape=connector;curved=0;rounded=1;orthogonalLoop=1;jettySize=auto;html=1;exitX=1;exitY=0.5;exitDx=0;exitDy=0;exitPerimeter=0;entryX=0;entryY=0.5;entryDx=0;entryDy=0;entryPerimeter=0;strokeColor=default;strokeWidth=2;align=center;verticalAlign=middle;fontFamily=Helvetica;fontSize=11;fontColor=default;labelBackgroundColor=default;endArrow=classic;" parent="q9dqT8iFWcZP778gfB1M-1" source="q9dqT8iFWcZP778gfB1M-9" target="q9dqT8iFWcZP778gfB1M-16" edge="1">
          <mxGeometry relative="1" as="geometry" />
        </mxCell>
        <mxCell id="JXxA_XhPbJX8pA9UNbZ7-2" style="edgeStyle=orthogonalEdgeStyle;shape=connector;curved=0;rounded=1;orthogonalLoop=1;jettySize=auto;html=1;exitX=1;exitY=0.5;exitDx=0;exitDy=0;exitPerimeter=0;entryX=0;entryY=0.5;entryDx=0;entryDy=0;entryPerimeter=0;strokeColor=default;strokeWidth=2;align=center;verticalAlign=middle;fontFamily=Helvetica;fontSize=11;fontColor=default;labelBackgroundColor=default;endArrow=classic;" parent="q9dqT8iFWcZP778gfB1M-1" source="q9dqT8iFWcZP778gfB1M-17" target="q9dqT8iFWcZP778gfB1M-4" edge="1">
          <mxGeometry relative="1" as="geometry" />
        </mxCell>
        <mxCell id="JXxA_XhPbJX8pA9UNbZ7-3" style="edgeStyle=orthogonalEdgeStyle;shape=connector;curved=0;rounded=1;orthogonalLoop=1;jettySize=auto;html=1;exitX=1;exitY=0.5;exitDx=0;exitDy=0;exitPerimeter=0;entryX=0;entryY=0.5;entryDx=0;entryDy=0;entryPerimeter=0;strokeColor=default;strokeWidth=2;align=center;verticalAlign=middle;fontFamily=Helvetica;fontSize=11;fontColor=default;labelBackgroundColor=default;endArrow=classic;" parent="q9dqT8iFWcZP778gfB1M-1" source="q9dqT8iFWcZP778gfB1M-5" target="q9dqT8iFWcZP778gfB1M-11" edge="1">
          <mxGeometry relative="1" as="geometry" />
        </mxCell>
        <mxCell id="JXxA_XhPbJX8pA9UNbZ7-4" style="edgeStyle=orthogonalEdgeStyle;shape=connector;curved=0;rounded=1;orthogonalLoop=1;jettySize=auto;html=1;exitX=1;exitY=0.5;exitDx=0;exitDy=0;exitPerimeter=0;strokeColor=default;strokeWidth=2;align=center;verticalAlign=middle;fontFamily=Helvetica;fontSize=11;fontColor=default;labelBackgroundColor=default;endArrow=classic;entryX=0;entryY=0.5;entryDx=0;entryDy=0;entryPerimeter=0;" parent="q9dqT8iFWcZP778gfB1M-1" source="q9dqT8iFWcZP778gfB1M-17" target="q9dqT8iFWcZP778gfB1M-11" edge="1">
          <mxGeometry relative="1" as="geometry">
            <mxPoint x="850" y="320" as="targetPoint" />
            <Array as="points">
              <mxPoint x="570" y="360" />
              <mxPoint x="570" y="260" />
            </Array>
          </mxGeometry>
        </mxCell>
        <mxCell id="JXxA_XhPbJX8pA9UNbZ7-5" style="edgeStyle=orthogonalEdgeStyle;shape=connector;curved=0;rounded=1;orthogonalLoop=1;jettySize=auto;html=1;exitX=1;exitY=0.5;exitDx=0;exitDy=0;exitPerimeter=0;entryX=0;entryY=0.5;entryDx=0;entryDy=0;entryPerimeter=0;strokeColor=default;strokeWidth=2;align=center;verticalAlign=middle;fontFamily=Helvetica;fontSize=11;fontColor=default;labelBackgroundColor=default;endArrow=classic;" parent="q9dqT8iFWcZP778gfB1M-1" source="q9dqT8iFWcZP778gfB1M-9" target="q9dqT8iFWcZP778gfB1M-11" edge="1">
          <mxGeometry relative="1" as="geometry">
            <Array as="points">
              <mxPoint x="350" y="360" />
              <mxPoint x="350" y="260" />
            </Array>
          </mxGeometry>
        </mxCell>
        <mxCell id="JXxA_XhPbJX8pA9UNbZ7-6" style="edgeStyle=orthogonalEdgeStyle;shape=connector;curved=0;rounded=1;orthogonalLoop=1;jettySize=auto;html=1;entryX=0;entryY=0.5;entryDx=0;entryDy=0;entryPerimeter=0;dashed=1;dashPattern=1 4;strokeColor=default;strokeWidth=1;align=center;verticalAlign=middle;fontFamily=Helvetica;fontSize=11;fontColor=default;labelBackgroundColor=default;endArrow=classic;" parent="q9dqT8iFWcZP778gfB1M-1" source="q9dqT8iFWcZP778gfB1M-18" target="q9dqT8iFWcZP778gfB1M-12" edge="1">
          <mxGeometry relative="1" as="geometry">
            <Array as="points">
              <mxPoint x="580" y="393" />
              <mxPoint x="580" y="460" />
            </Array>
          </mxGeometry>
        </mxCell>
        <mxCell id="JXxA_XhPbJX8pA9UNbZ7-7" style="edgeStyle=orthogonalEdgeStyle;shape=connector;curved=0;rounded=1;orthogonalLoop=1;jettySize=auto;html=1;exitX=1;exitY=0.5;exitDx=0;exitDy=0;exitPerimeter=0;entryX=0;entryY=0.5;entryDx=0;entryDy=0;entryPerimeter=0;dashed=1;dashPattern=1 4;strokeColor=default;strokeWidth=1;align=center;verticalAlign=middle;fontFamily=Helvetica;fontSize=11;fontColor=default;labelBackgroundColor=default;endArrow=classic;" parent="q9dqT8iFWcZP778gfB1M-1" source="q9dqT8iFWcZP778gfB1M-6" target="q9dqT8iFWcZP778gfB1M-12" edge="1">
          <mxGeometry relative="1" as="geometry" />
        </mxCell>
      </root>
    </mxGraphModel>
  </diagram>
</mxfile>
